G75*
%MOIN*%
%OFA0B0*%
%FSLAX25Y25*%
%IPPOS*%
%LPD*%
%AMOC8*
5,1,8,0,0,1.08239X$1,22.5*
%
%ADD10C,0.02953*%
%ADD11R,0.03937X0.04331*%
%ADD12R,0.03150X0.03150*%
%ADD13C,0.00787*%
%ADD14C,0.02266*%
%ADD15C,0.00591*%
D10*
X0384020Y0160607D03*
X0384020Y0165607D03*
X0394020Y0165607D03*
X0404020Y0165607D03*
X0414020Y0165607D03*
X0414020Y0170607D03*
X0419020Y0170607D03*
X0424020Y0170607D03*
X0429020Y0170607D03*
X0424020Y0175607D03*
X0424020Y0180607D03*
X0424020Y0185607D03*
X0429020Y0185607D03*
X0419020Y0185607D03*
X0414020Y0185607D03*
X0409020Y0185607D03*
X0404020Y0185607D03*
X0399020Y0185607D03*
X0394020Y0185607D03*
X0389020Y0185607D03*
X0384020Y0185607D03*
X0384020Y0190607D03*
X0394020Y0190607D03*
X0404020Y0190607D03*
X0414020Y0190607D03*
X0419020Y0195607D03*
X0429020Y0195607D03*
X0424020Y0190607D03*
X0409020Y0195607D03*
X0384020Y0195607D03*
X0384020Y0180607D03*
X0389020Y0180607D03*
X0389020Y0175607D03*
X0384020Y0175607D03*
X0384020Y0170607D03*
X0389020Y0170607D03*
X0394020Y0170607D03*
X0399020Y0170607D03*
X0404020Y0170607D03*
X0409020Y0170607D03*
X0424020Y0165607D03*
X0429020Y0160607D03*
X0419020Y0160607D03*
X0409020Y0160607D03*
D11*
X0417557Y0145266D03*
X0424250Y0145266D03*
X0384130Y0145266D03*
X0377437Y0145266D03*
D12*
X0389730Y0145266D03*
X0395636Y0145266D03*
X0429850Y0145266D03*
X0435756Y0145266D03*
D13*
X0429850Y0145266D02*
X0429850Y0145266D01*
X0424250Y0145266D01*
X0417557Y0145266D02*
X0412117Y0150706D01*
X0377383Y0150706D01*
X0377437Y0150653D01*
X0377437Y0145266D01*
X0384130Y0145266D02*
X0389730Y0145266D01*
X0389730Y0145266D01*
X0419295Y0160607D02*
X0423449Y0156453D01*
X0419295Y0160607D02*
X0419020Y0160607D01*
X0419000Y0165508D02*
X0419000Y0165548D01*
X0419020Y0165567D01*
X0419020Y0170607D01*
X0410260Y0174466D02*
X0410063Y0174170D01*
X0409020Y0173126D01*
X0409020Y0170607D01*
X0404020Y0170607D02*
X0404020Y0170725D01*
X0399020Y0175725D01*
X0394020Y0170725D01*
X0394020Y0170607D01*
X0394059Y0170607D01*
X0394020Y0170607D02*
X0393902Y0170607D01*
X0388409Y0165114D01*
X0388409Y0163146D01*
X0399020Y0175725D02*
X0399039Y0175744D01*
X0406913Y0175744D01*
X0408882Y0177713D01*
X0421913Y0177713D01*
X0424020Y0175607D01*
X0424020Y0180607D01*
X0429020Y0185607D01*
X0399020Y0185607D02*
X0399020Y0175725D01*
X0399020Y0185607D02*
X0394020Y0190607D01*
D14*
X0389197Y0193067D03*
X0396677Y0196610D03*
X0396677Y0199760D03*
X0418921Y0190114D03*
X0418331Y0180862D03*
X0418331Y0175154D03*
X0410260Y0174466D03*
X0403370Y0180469D03*
X0419000Y0165508D03*
X0429157Y0165311D03*
X0423449Y0156453D03*
X0388409Y0163146D03*
X0377383Y0150706D03*
D15*
X0101327Y0130937D02*
X0101327Y0093386D01*
X0451870Y0093386D01*
X0451870Y0219520D01*
X0359201Y0219520D01*
X0359201Y0132047D01*
X0358091Y0130937D01*
X0101327Y0130937D01*
X0101327Y0130587D02*
X0451870Y0130587D01*
X0451870Y0131176D02*
X0358330Y0131176D01*
X0358919Y0131765D02*
X0451870Y0131765D01*
X0451870Y0132354D02*
X0359201Y0132354D01*
X0359201Y0132943D02*
X0451870Y0132943D01*
X0451870Y0133532D02*
X0359201Y0133532D01*
X0359201Y0134121D02*
X0451870Y0134121D01*
X0451870Y0134710D02*
X0359201Y0134710D01*
X0359201Y0135299D02*
X0451870Y0135299D01*
X0451870Y0135888D02*
X0359201Y0135888D01*
X0359201Y0136477D02*
X0451870Y0136477D01*
X0451870Y0137066D02*
X0359201Y0137066D01*
X0359201Y0137655D02*
X0451870Y0137655D01*
X0451870Y0138245D02*
X0359201Y0138245D01*
X0359201Y0138834D02*
X0451870Y0138834D01*
X0451870Y0139423D02*
X0359201Y0139423D01*
X0359201Y0140012D02*
X0451870Y0140012D01*
X0451870Y0140601D02*
X0359201Y0140601D01*
X0359201Y0141190D02*
X0451870Y0141190D01*
X0451870Y0141779D02*
X0359201Y0141779D01*
X0359201Y0142368D02*
X0374935Y0142368D01*
X0375097Y0142206D02*
X0379776Y0142206D01*
X0380300Y0142730D01*
X0380300Y0147803D01*
X0379776Y0148327D01*
X0378726Y0148327D01*
X0378726Y0149180D01*
X0378963Y0149417D01*
X0411583Y0149417D01*
X0414693Y0146307D01*
X0414693Y0142730D01*
X0415217Y0142206D01*
X0419896Y0142206D01*
X0420420Y0142730D01*
X0420420Y0147803D01*
X0419896Y0148327D01*
X0416319Y0148327D01*
X0412651Y0151995D01*
X0378963Y0151995D01*
X0378223Y0152735D01*
X0376543Y0152735D01*
X0375355Y0151547D01*
X0375355Y0149866D01*
X0376148Y0149073D01*
X0376148Y0148327D01*
X0375097Y0148327D01*
X0374573Y0147803D01*
X0374573Y0142730D01*
X0375097Y0142206D01*
X0374573Y0142957D02*
X0359201Y0142957D01*
X0359201Y0143546D02*
X0374573Y0143546D01*
X0374573Y0144135D02*
X0359201Y0144135D01*
X0359201Y0144724D02*
X0374573Y0144724D01*
X0374573Y0145313D02*
X0359201Y0145313D01*
X0359201Y0145902D02*
X0374573Y0145902D01*
X0374573Y0146491D02*
X0359201Y0146491D01*
X0359201Y0147080D02*
X0374573Y0147080D01*
X0374573Y0147670D02*
X0359201Y0147670D01*
X0359201Y0148259D02*
X0375029Y0148259D01*
X0376148Y0148848D02*
X0359201Y0148848D01*
X0359201Y0149437D02*
X0375784Y0149437D01*
X0375355Y0150026D02*
X0359201Y0150026D01*
X0359201Y0150615D02*
X0375355Y0150615D01*
X0375355Y0151204D02*
X0359201Y0151204D01*
X0359201Y0151793D02*
X0375601Y0151793D01*
X0376190Y0152382D02*
X0359201Y0152382D01*
X0359201Y0152971D02*
X0434565Y0152971D01*
X0434565Y0152382D02*
X0378576Y0152382D01*
X0378726Y0148848D02*
X0412152Y0148848D01*
X0412742Y0148259D02*
X0386537Y0148259D01*
X0386469Y0148327D02*
X0381790Y0148327D01*
X0381266Y0147803D01*
X0381266Y0142730D01*
X0381790Y0142206D01*
X0386469Y0142206D01*
X0386993Y0142730D01*
X0386993Y0143977D01*
X0387260Y0143977D01*
X0387260Y0143321D01*
X0387785Y0142796D01*
X0391676Y0142796D01*
X0392200Y0143321D01*
X0392200Y0147212D01*
X0391676Y0147736D01*
X0387785Y0147736D01*
X0387260Y0147212D01*
X0387260Y0146555D01*
X0386993Y0146555D01*
X0386993Y0147803D01*
X0386469Y0148327D01*
X0386993Y0147670D02*
X0387718Y0147670D01*
X0387260Y0147080D02*
X0386993Y0147080D01*
X0386993Y0143546D02*
X0387260Y0143546D01*
X0386993Y0142957D02*
X0387624Y0142957D01*
X0386631Y0142368D02*
X0415055Y0142368D01*
X0414693Y0142957D02*
X0398282Y0142957D01*
X0398247Y0142896D02*
X0398418Y0143192D01*
X0398506Y0143521D01*
X0398506Y0144971D01*
X0395931Y0144971D01*
X0395931Y0142396D01*
X0397381Y0142396D01*
X0397711Y0142485D01*
X0398006Y0142655D01*
X0398247Y0142896D01*
X0398506Y0143546D02*
X0414693Y0143546D01*
X0414693Y0144135D02*
X0398506Y0144135D01*
X0398506Y0144724D02*
X0414693Y0144724D01*
X0414693Y0145313D02*
X0395931Y0145313D01*
X0395931Y0145562D02*
X0398506Y0145562D01*
X0398506Y0147012D01*
X0398418Y0147341D01*
X0398247Y0147637D01*
X0398006Y0147878D01*
X0397711Y0148048D01*
X0397381Y0148136D01*
X0395931Y0148136D01*
X0395931Y0145562D01*
X0395341Y0145562D01*
X0395341Y0148136D01*
X0393890Y0148136D01*
X0393561Y0148048D01*
X0393266Y0147878D01*
X0393025Y0147637D01*
X0392854Y0147341D01*
X0392766Y0147012D01*
X0392766Y0145562D01*
X0395340Y0145562D01*
X0395340Y0144971D01*
X0392766Y0144971D01*
X0392766Y0143521D01*
X0392854Y0143192D01*
X0393025Y0142896D01*
X0393266Y0142655D01*
X0393561Y0142485D01*
X0393890Y0142396D01*
X0395341Y0142396D01*
X0395341Y0144971D01*
X0395931Y0144971D01*
X0395931Y0145562D01*
X0395931Y0145902D02*
X0395341Y0145902D01*
X0395340Y0145313D02*
X0392200Y0145313D01*
X0392200Y0144724D02*
X0392766Y0144724D01*
X0392766Y0144135D02*
X0392200Y0144135D01*
X0392200Y0143546D02*
X0392766Y0143546D01*
X0392989Y0142957D02*
X0391837Y0142957D01*
X0395341Y0142957D02*
X0395931Y0142957D01*
X0395931Y0143546D02*
X0395341Y0143546D01*
X0395341Y0144135D02*
X0395931Y0144135D01*
X0395931Y0144724D02*
X0395341Y0144724D01*
X0395341Y0146491D02*
X0395931Y0146491D01*
X0395931Y0147080D02*
X0395341Y0147080D01*
X0395341Y0147670D02*
X0395931Y0147670D01*
X0398214Y0147670D02*
X0413331Y0147670D01*
X0413920Y0147080D02*
X0398487Y0147080D01*
X0398506Y0146491D02*
X0414509Y0146491D01*
X0414693Y0145902D02*
X0398506Y0145902D01*
X0393058Y0147670D02*
X0391743Y0147670D01*
X0392200Y0147080D02*
X0392784Y0147080D01*
X0392766Y0146491D02*
X0392200Y0146491D01*
X0392200Y0145902D02*
X0392766Y0145902D01*
X0381722Y0148259D02*
X0379844Y0148259D01*
X0380300Y0147670D02*
X0381266Y0147670D01*
X0381266Y0147080D02*
X0380300Y0147080D01*
X0380300Y0146491D02*
X0381266Y0146491D01*
X0381266Y0145902D02*
X0380300Y0145902D01*
X0380300Y0145313D02*
X0381266Y0145313D01*
X0381266Y0144724D02*
X0380300Y0144724D01*
X0380300Y0144135D02*
X0381266Y0144135D01*
X0381266Y0143546D02*
X0380300Y0143546D01*
X0380300Y0142957D02*
X0381266Y0142957D01*
X0381628Y0142368D02*
X0379938Y0142368D01*
X0412853Y0151793D02*
X0434565Y0151793D01*
X0434565Y0151204D02*
X0413442Y0151204D01*
X0414031Y0150615D02*
X0434565Y0150615D01*
X0434565Y0150026D02*
X0414620Y0150026D01*
X0415209Y0149437D02*
X0434565Y0149437D01*
X0434565Y0148848D02*
X0415798Y0148848D01*
X0419964Y0148259D02*
X0421842Y0148259D01*
X0421910Y0148327D02*
X0421386Y0147803D01*
X0421386Y0142730D01*
X0421910Y0142206D01*
X0426589Y0142206D01*
X0427113Y0142730D01*
X0427113Y0143977D01*
X0427380Y0143977D01*
X0427380Y0143321D01*
X0427905Y0142796D01*
X0431796Y0142796D01*
X0432320Y0143321D01*
X0432320Y0147212D01*
X0431796Y0147736D01*
X0427905Y0147736D01*
X0427380Y0147212D01*
X0427380Y0146555D01*
X0427113Y0146555D01*
X0427113Y0147803D01*
X0426589Y0148327D01*
X0421910Y0148327D01*
X0421386Y0147670D02*
X0420420Y0147670D01*
X0420420Y0147080D02*
X0421386Y0147080D01*
X0421386Y0146491D02*
X0420420Y0146491D01*
X0420420Y0145902D02*
X0421386Y0145902D01*
X0421386Y0145313D02*
X0420420Y0145313D01*
X0420420Y0144724D02*
X0421386Y0144724D01*
X0421386Y0144135D02*
X0420420Y0144135D01*
X0420420Y0143546D02*
X0421386Y0143546D01*
X0421386Y0142957D02*
X0420420Y0142957D01*
X0420058Y0142368D02*
X0421748Y0142368D01*
X0426751Y0142368D02*
X0451870Y0142368D01*
X0451870Y0142957D02*
X0437862Y0142957D01*
X0437701Y0142796D02*
X0438226Y0143321D01*
X0438226Y0147212D01*
X0437701Y0147736D01*
X0436946Y0147736D01*
X0436946Y0159206D01*
X0431186Y0164967D01*
X0431186Y0166151D01*
X0429998Y0167340D01*
X0429010Y0167340D01*
X0428457Y0167893D01*
X0428724Y0167839D01*
X0428724Y0170311D01*
X0429315Y0170311D01*
X0429315Y0167839D01*
X0429828Y0167941D01*
X0430333Y0168150D01*
X0430787Y0168454D01*
X0431173Y0168840D01*
X0431476Y0169294D01*
X0431685Y0169798D01*
X0431787Y0170311D01*
X0429315Y0170311D01*
X0429315Y0170902D01*
X0428724Y0170902D01*
X0428724Y0173374D01*
X0428211Y0173272D01*
X0427707Y0173063D01*
X0427253Y0172759D01*
X0426867Y0172373D01*
X0426563Y0171919D01*
X0426391Y0171504D01*
X0426391Y0171589D01*
X0425002Y0172978D01*
X0423037Y0172978D01*
X0421648Y0171589D01*
X0421648Y0169624D01*
X0423037Y0168235D01*
X0423122Y0168235D01*
X0422707Y0168063D01*
X0422253Y0167759D01*
X0421867Y0167373D01*
X0421563Y0166919D01*
X0421355Y0166415D01*
X0421252Y0165902D01*
X0423724Y0165902D01*
X0423724Y0165311D01*
X0421252Y0165311D01*
X0421355Y0164798D01*
X0421563Y0164294D01*
X0421867Y0163840D01*
X0422253Y0163454D01*
X0422707Y0163150D01*
X0423211Y0162941D01*
X0423724Y0162839D01*
X0423724Y0165311D01*
X0424315Y0165311D01*
X0424315Y0162839D01*
X0424828Y0162941D01*
X0425333Y0163150D01*
X0425787Y0163454D01*
X0426173Y0163840D01*
X0426476Y0164294D01*
X0426685Y0164798D01*
X0426787Y0165311D01*
X0424315Y0165311D01*
X0424315Y0165902D01*
X0426787Y0165902D01*
X0426714Y0166268D01*
X0427129Y0165853D01*
X0427129Y0164471D01*
X0428309Y0163291D01*
X0428211Y0163272D01*
X0427707Y0163063D01*
X0427253Y0162759D01*
X0426867Y0162373D01*
X0426563Y0161919D01*
X0426355Y0161415D01*
X0426252Y0160902D01*
X0428724Y0160902D01*
X0428724Y0160311D01*
X0426252Y0160311D01*
X0426355Y0159798D01*
X0426563Y0159294D01*
X0426867Y0158840D01*
X0427253Y0158454D01*
X0427707Y0158150D01*
X0428211Y0157941D01*
X0428724Y0157839D01*
X0428724Y0160311D01*
X0429315Y0160311D01*
X0429315Y0157839D01*
X0429828Y0157941D01*
X0430333Y0158150D01*
X0430787Y0158454D01*
X0431173Y0158840D01*
X0431476Y0159294D01*
X0431685Y0159798D01*
X0431787Y0160311D01*
X0429315Y0160311D01*
X0429315Y0160902D01*
X0431787Y0160902D01*
X0431763Y0161022D01*
X0434565Y0158220D01*
X0434565Y0147736D01*
X0433810Y0147736D01*
X0433286Y0147212D01*
X0433286Y0143321D01*
X0433810Y0142796D01*
X0437701Y0142796D01*
X0438226Y0143546D02*
X0451870Y0143546D01*
X0451870Y0144135D02*
X0438226Y0144135D01*
X0438226Y0144724D02*
X0451870Y0144724D01*
X0451870Y0145313D02*
X0438226Y0145313D01*
X0438226Y0145902D02*
X0451870Y0145902D01*
X0451870Y0146491D02*
X0438226Y0146491D01*
X0438226Y0147080D02*
X0451870Y0147080D01*
X0451870Y0147670D02*
X0437768Y0147670D01*
X0436946Y0148259D02*
X0451870Y0148259D01*
X0451870Y0148848D02*
X0436946Y0148848D01*
X0436946Y0149437D02*
X0451870Y0149437D01*
X0451870Y0150026D02*
X0436946Y0150026D01*
X0436946Y0150615D02*
X0451870Y0150615D01*
X0451870Y0151204D02*
X0436946Y0151204D01*
X0436946Y0151793D02*
X0451870Y0151793D01*
X0451870Y0152382D02*
X0436946Y0152382D01*
X0436946Y0152971D02*
X0451870Y0152971D01*
X0451870Y0153560D02*
X0436946Y0153560D01*
X0436946Y0154149D02*
X0451870Y0154149D01*
X0451870Y0154738D02*
X0436946Y0154738D01*
X0436946Y0155327D02*
X0451870Y0155327D01*
X0451870Y0155916D02*
X0436946Y0155916D01*
X0436946Y0156505D02*
X0451870Y0156505D01*
X0451870Y0157095D02*
X0436946Y0157095D01*
X0436946Y0157684D02*
X0451870Y0157684D01*
X0451870Y0158273D02*
X0436946Y0158273D01*
X0436946Y0158862D02*
X0451870Y0158862D01*
X0451870Y0159451D02*
X0436702Y0159451D01*
X0436113Y0160040D02*
X0451870Y0160040D01*
X0451870Y0160629D02*
X0435524Y0160629D01*
X0434934Y0161218D02*
X0451870Y0161218D01*
X0451870Y0161807D02*
X0434345Y0161807D01*
X0433756Y0162396D02*
X0451870Y0162396D01*
X0451870Y0162985D02*
X0433167Y0162985D01*
X0432578Y0163574D02*
X0451870Y0163574D01*
X0451870Y0164163D02*
X0431989Y0164163D01*
X0431400Y0164752D02*
X0451870Y0164752D01*
X0451870Y0165341D02*
X0431186Y0165341D01*
X0431186Y0165930D02*
X0451870Y0165930D01*
X0451870Y0166520D02*
X0430818Y0166520D01*
X0430229Y0167109D02*
X0451870Y0167109D01*
X0451870Y0167698D02*
X0428652Y0167698D01*
X0428724Y0168287D02*
X0429315Y0168287D01*
X0429315Y0168876D02*
X0428724Y0168876D01*
X0428724Y0169465D02*
X0429315Y0169465D01*
X0429315Y0170054D02*
X0428724Y0170054D01*
X0429315Y0170643D02*
X0451870Y0170643D01*
X0451870Y0171232D02*
X0431721Y0171232D01*
X0431685Y0171415D02*
X0431476Y0171919D01*
X0431173Y0172373D01*
X0430787Y0172759D01*
X0430333Y0173063D01*
X0429828Y0173272D01*
X0429315Y0173374D01*
X0429315Y0170902D01*
X0431787Y0170902D01*
X0431685Y0171415D01*
X0431517Y0171821D02*
X0451870Y0171821D01*
X0451870Y0172410D02*
X0431136Y0172410D01*
X0430428Y0172999D02*
X0451870Y0172999D01*
X0451870Y0173588D02*
X0425355Y0173588D01*
X0425002Y0173235D02*
X0426391Y0174624D01*
X0426391Y0176589D01*
X0425309Y0177672D01*
X0425309Y0178542D01*
X0426391Y0179624D01*
X0426391Y0181155D01*
X0428471Y0183235D01*
X0430002Y0183235D01*
X0431391Y0184624D01*
X0431391Y0186589D01*
X0430002Y0187978D01*
X0428037Y0187978D01*
X0426648Y0186589D01*
X0426648Y0185058D01*
X0426391Y0184801D01*
X0426391Y0186589D01*
X0425002Y0187978D01*
X0424917Y0187978D01*
X0425333Y0188150D01*
X0425787Y0188454D01*
X0426173Y0188840D01*
X0426476Y0189294D01*
X0426685Y0189798D01*
X0426787Y0190311D01*
X0424315Y0190311D01*
X0424315Y0190902D01*
X0423724Y0190902D01*
X0423724Y0190311D01*
X0421252Y0190311D01*
X0421355Y0189798D01*
X0421563Y0189294D01*
X0421841Y0188878D01*
X0420950Y0189770D01*
X0420950Y0190955D01*
X0419761Y0192143D01*
X0418081Y0192143D01*
X0416893Y0190955D01*
X0416893Y0189274D01*
X0418081Y0188086D01*
X0419266Y0188086D01*
X0419374Y0187978D01*
X0418037Y0187978D01*
X0416648Y0186589D01*
X0416648Y0184624D01*
X0417829Y0183443D01*
X0417829Y0182891D01*
X0417491Y0182891D01*
X0416302Y0181703D01*
X0416302Y0180022D01*
X0417323Y0179002D01*
X0408348Y0179002D01*
X0407593Y0178247D01*
X0406379Y0177033D01*
X0400309Y0177033D01*
X0400309Y0183542D01*
X0401391Y0184624D01*
X0401391Y0184709D01*
X0401563Y0184294D01*
X0401867Y0183840D01*
X0402253Y0183454D01*
X0402707Y0183150D01*
X0403211Y0182941D01*
X0403724Y0182839D01*
X0403724Y0185311D01*
X0404315Y0185311D01*
X0404315Y0182839D01*
X0404828Y0182941D01*
X0405333Y0183150D01*
X0405787Y0183454D01*
X0406173Y0183840D01*
X0406476Y0184294D01*
X0406520Y0184399D01*
X0406563Y0184294D01*
X0406867Y0183840D01*
X0407253Y0183454D01*
X0407707Y0183150D01*
X0408211Y0182941D01*
X0408724Y0182839D01*
X0408724Y0185311D01*
X0406787Y0185311D01*
X0404315Y0185311D01*
X0404315Y0185902D01*
X0403724Y0185902D01*
X0403724Y0190311D01*
X0401252Y0190311D01*
X0401355Y0189798D01*
X0401563Y0189294D01*
X0401867Y0188840D01*
X0402253Y0188454D01*
X0402707Y0188150D01*
X0402813Y0188107D01*
X0402707Y0188063D01*
X0402253Y0187759D01*
X0401867Y0187373D01*
X0401563Y0186919D01*
X0401391Y0186504D01*
X0401391Y0186589D01*
X0400002Y0187978D01*
X0398471Y0187978D01*
X0396391Y0190058D01*
X0396391Y0191589D01*
X0395002Y0192978D01*
X0393037Y0192978D01*
X0391648Y0191589D01*
X0391648Y0189624D01*
X0393037Y0188235D01*
X0393122Y0188235D01*
X0392707Y0188063D01*
X0392253Y0187759D01*
X0391867Y0187373D01*
X0391563Y0186919D01*
X0391520Y0186814D01*
X0391476Y0186919D01*
X0391173Y0187373D01*
X0390787Y0187759D01*
X0390333Y0188063D01*
X0389828Y0188272D01*
X0389315Y0188374D01*
X0389315Y0185902D01*
X0388724Y0185902D01*
X0388724Y0185311D01*
X0386787Y0185311D01*
X0384315Y0185311D01*
X0384315Y0182839D01*
X0384315Y0180902D01*
X0383724Y0180902D01*
X0383724Y0180311D01*
X0381252Y0180311D01*
X0381355Y0179798D01*
X0381563Y0179294D01*
X0381867Y0178840D01*
X0382253Y0178454D01*
X0382707Y0178150D01*
X0382813Y0178107D01*
X0382707Y0178063D01*
X0382253Y0177759D01*
X0381867Y0177373D01*
X0381563Y0176919D01*
X0381355Y0176415D01*
X0381252Y0175902D01*
X0383724Y0175902D01*
X0383724Y0175311D01*
X0381252Y0175311D01*
X0381355Y0174798D01*
X0381563Y0174294D01*
X0381867Y0173840D01*
X0382253Y0173454D01*
X0382707Y0173150D01*
X0382813Y0173107D01*
X0382707Y0173063D01*
X0382253Y0172759D01*
X0381867Y0172373D01*
X0381563Y0171919D01*
X0381355Y0171415D01*
X0381252Y0170902D01*
X0383724Y0170902D01*
X0383724Y0170311D01*
X0381252Y0170311D01*
X0381355Y0169798D01*
X0381563Y0169294D01*
X0381867Y0168840D01*
X0382253Y0168454D01*
X0382707Y0168150D01*
X0382813Y0168107D01*
X0382707Y0168063D01*
X0382253Y0167759D01*
X0381867Y0167373D01*
X0381563Y0166919D01*
X0381355Y0166415D01*
X0381252Y0165902D01*
X0383724Y0165902D01*
X0383724Y0165311D01*
X0381252Y0165311D01*
X0381355Y0164798D01*
X0381563Y0164294D01*
X0381867Y0163840D01*
X0382253Y0163454D01*
X0382707Y0163150D01*
X0382813Y0163107D01*
X0382707Y0163063D01*
X0382253Y0162759D01*
X0381867Y0162373D01*
X0381563Y0161919D01*
X0381355Y0161415D01*
X0381252Y0160902D01*
X0383724Y0160902D01*
X0383724Y0160311D01*
X0381252Y0160311D01*
X0381355Y0159798D01*
X0381563Y0159294D01*
X0381867Y0158840D01*
X0382253Y0158454D01*
X0382707Y0158150D01*
X0383211Y0157941D01*
X0383724Y0157839D01*
X0383724Y0160311D01*
X0384315Y0160311D01*
X0384315Y0157839D01*
X0384828Y0157941D01*
X0385333Y0158150D01*
X0385787Y0158454D01*
X0386173Y0158840D01*
X0386476Y0159294D01*
X0386685Y0159798D01*
X0386787Y0160311D01*
X0384315Y0160311D01*
X0384315Y0160902D01*
X0383724Y0160902D01*
X0383724Y0165311D01*
X0384315Y0165311D01*
X0384315Y0162839D01*
X0384315Y0160902D01*
X0386787Y0160902D01*
X0386685Y0161415D01*
X0386476Y0161919D01*
X0386173Y0162373D01*
X0385787Y0162759D01*
X0385333Y0163063D01*
X0385227Y0163107D01*
X0385333Y0163150D01*
X0385787Y0163454D01*
X0386173Y0163840D01*
X0386476Y0164294D01*
X0386685Y0164798D01*
X0386787Y0165311D01*
X0384315Y0165311D01*
X0384315Y0165902D01*
X0383724Y0165902D01*
X0383724Y0170311D01*
X0384315Y0170311D01*
X0384315Y0167839D01*
X0384315Y0165902D01*
X0386787Y0165902D01*
X0386685Y0166415D01*
X0386476Y0166919D01*
X0386173Y0167373D01*
X0385787Y0167759D01*
X0385333Y0168063D01*
X0385227Y0168107D01*
X0385333Y0168150D01*
X0385787Y0168454D01*
X0386173Y0168840D01*
X0386476Y0169294D01*
X0386520Y0169399D01*
X0386563Y0169294D01*
X0386867Y0168840D01*
X0387253Y0168454D01*
X0387707Y0168150D01*
X0388211Y0167941D01*
X0388724Y0167839D01*
X0388724Y0170311D01*
X0386787Y0170311D01*
X0384315Y0170311D01*
X0384315Y0170902D01*
X0383724Y0170902D01*
X0383724Y0175311D01*
X0384315Y0175311D01*
X0384315Y0172839D01*
X0384315Y0170902D01*
X0388724Y0170902D01*
X0388724Y0170311D01*
X0389315Y0170311D01*
X0389315Y0167843D01*
X0387876Y0166403D01*
X0387120Y0165648D01*
X0387120Y0164725D01*
X0386381Y0163986D01*
X0386381Y0162306D01*
X0387569Y0161118D01*
X0389250Y0161118D01*
X0390438Y0162306D01*
X0390438Y0163986D01*
X0389771Y0164653D01*
X0391310Y0166192D01*
X0391252Y0165902D01*
X0393724Y0165902D01*
X0393724Y0165311D01*
X0391252Y0165311D01*
X0391355Y0164798D01*
X0391563Y0164294D01*
X0391867Y0163840D01*
X0392253Y0163454D01*
X0392707Y0163150D01*
X0393211Y0162941D01*
X0393724Y0162839D01*
X0393724Y0165311D01*
X0394315Y0165311D01*
X0394315Y0162839D01*
X0394828Y0162941D01*
X0395333Y0163150D01*
X0395787Y0163454D01*
X0396173Y0163840D01*
X0396476Y0164294D01*
X0396685Y0164798D01*
X0396787Y0165311D01*
X0394315Y0165311D01*
X0394315Y0165902D01*
X0396787Y0165902D01*
X0396685Y0166415D01*
X0396476Y0166919D01*
X0396173Y0167373D01*
X0395787Y0167759D01*
X0395333Y0168063D01*
X0394917Y0168235D01*
X0395002Y0168235D01*
X0396391Y0169624D01*
X0396391Y0169709D01*
X0396563Y0169294D01*
X0396867Y0168840D01*
X0397253Y0168454D01*
X0397707Y0168150D01*
X0398211Y0167941D01*
X0398724Y0167839D01*
X0398724Y0170311D01*
X0399315Y0170311D01*
X0399315Y0167839D01*
X0399828Y0167941D01*
X0400333Y0168150D01*
X0400787Y0168454D01*
X0401173Y0168840D01*
X0401476Y0169294D01*
X0401648Y0169709D01*
X0401648Y0169624D01*
X0403037Y0168235D01*
X0403122Y0168235D01*
X0402707Y0168063D01*
X0402253Y0167759D01*
X0401867Y0167373D01*
X0401563Y0166919D01*
X0401355Y0166415D01*
X0401252Y0165902D01*
X0403724Y0165902D01*
X0403724Y0165311D01*
X0401252Y0165311D01*
X0401355Y0164798D01*
X0401563Y0164294D01*
X0401867Y0163840D01*
X0402253Y0163454D01*
X0402707Y0163150D01*
X0403211Y0162941D01*
X0403724Y0162839D01*
X0403724Y0165311D01*
X0404315Y0165311D01*
X0404315Y0162839D01*
X0404828Y0162941D01*
X0405333Y0163150D01*
X0405787Y0163454D01*
X0406173Y0163840D01*
X0406476Y0164294D01*
X0406685Y0164798D01*
X0406787Y0165311D01*
X0404315Y0165311D01*
X0404315Y0165902D01*
X0406787Y0165902D01*
X0406685Y0166415D01*
X0406476Y0166919D01*
X0406173Y0167373D01*
X0405787Y0167759D01*
X0405333Y0168063D01*
X0404917Y0168235D01*
X0405002Y0168235D01*
X0406391Y0169624D01*
X0406391Y0171589D01*
X0405002Y0172978D01*
X0403589Y0172978D01*
X0402112Y0174455D01*
X0407447Y0174455D01*
X0408202Y0175210D01*
X0408231Y0175240D01*
X0408231Y0174161D01*
X0407731Y0173660D01*
X0407731Y0172672D01*
X0406648Y0171589D01*
X0406648Y0169624D01*
X0408037Y0168235D01*
X0410002Y0168235D01*
X0411391Y0169624D01*
X0411391Y0171589D01*
X0410543Y0172437D01*
X0411100Y0172437D01*
X0412288Y0173625D01*
X0412288Y0175306D01*
X0411170Y0176424D01*
X0416732Y0176424D01*
X0416302Y0175994D01*
X0416302Y0174809D01*
X0414471Y0172978D01*
X0413037Y0172978D01*
X0411648Y0171589D01*
X0411648Y0169624D01*
X0413037Y0168235D01*
X0413122Y0168235D01*
X0412707Y0168063D01*
X0412253Y0167759D01*
X0411867Y0167373D01*
X0411563Y0166919D01*
X0411355Y0166415D01*
X0411252Y0165902D01*
X0413724Y0165902D01*
X0413724Y0165311D01*
X0411252Y0165311D01*
X0411355Y0164798D01*
X0411563Y0164294D01*
X0411867Y0163840D01*
X0412253Y0163454D01*
X0412707Y0163150D01*
X0413211Y0162941D01*
X0413724Y0162839D01*
X0413724Y0165311D01*
X0414315Y0165311D01*
X0414315Y0162839D01*
X0414828Y0162941D01*
X0415333Y0163150D01*
X0415787Y0163454D01*
X0416173Y0163840D01*
X0416476Y0164294D01*
X0416685Y0164798D01*
X0416787Y0165311D01*
X0414315Y0165311D01*
X0414315Y0165902D01*
X0416787Y0165902D01*
X0416685Y0166415D01*
X0416476Y0166919D01*
X0416173Y0167373D01*
X0415787Y0167759D01*
X0415333Y0168063D01*
X0414917Y0168235D01*
X0415002Y0168235D01*
X0416391Y0169624D01*
X0416391Y0171531D01*
X0417986Y0173125D01*
X0419171Y0173125D01*
X0420359Y0174314D01*
X0420359Y0175994D01*
X0419929Y0176424D01*
X0421379Y0176424D01*
X0421648Y0176155D01*
X0421648Y0174624D01*
X0423037Y0173235D01*
X0425002Y0173235D01*
X0425570Y0172410D02*
X0426904Y0172410D01*
X0426523Y0171821D02*
X0426159Y0171821D01*
X0427612Y0172999D02*
X0417860Y0172999D01*
X0418037Y0172978D02*
X0416648Y0171589D01*
X0416648Y0169624D01*
X0417731Y0168542D01*
X0417731Y0167107D01*
X0416972Y0166348D01*
X0416972Y0164668D01*
X0418160Y0163480D01*
X0419840Y0163480D01*
X0421028Y0164668D01*
X0421028Y0166348D01*
X0420309Y0167068D01*
X0420309Y0168542D01*
X0421391Y0169624D01*
X0421391Y0171589D01*
X0420002Y0172978D01*
X0418037Y0172978D01*
X0417469Y0172410D02*
X0417271Y0172410D01*
X0416880Y0171821D02*
X0416682Y0171821D01*
X0416648Y0171232D02*
X0416391Y0171232D01*
X0416391Y0170643D02*
X0416648Y0170643D01*
X0416648Y0170054D02*
X0416391Y0170054D01*
X0416232Y0169465D02*
X0416807Y0169465D01*
X0417396Y0168876D02*
X0415643Y0168876D01*
X0415054Y0168287D02*
X0417731Y0168287D01*
X0417731Y0167698D02*
X0415848Y0167698D01*
X0416349Y0167109D02*
X0417731Y0167109D01*
X0417143Y0166520D02*
X0416642Y0166520D01*
X0416781Y0165930D02*
X0416972Y0165930D01*
X0416972Y0165341D02*
X0414315Y0165341D01*
X0414315Y0164752D02*
X0413724Y0164752D01*
X0413724Y0164163D02*
X0414315Y0164163D01*
X0414315Y0163574D02*
X0413724Y0163574D01*
X0413724Y0162985D02*
X0414315Y0162985D01*
X0414934Y0162985D02*
X0423106Y0162985D01*
X0423724Y0162985D02*
X0424315Y0162985D01*
X0424315Y0163574D02*
X0423724Y0163574D01*
X0423724Y0164163D02*
X0424315Y0164163D01*
X0424315Y0164752D02*
X0423724Y0164752D01*
X0423724Y0165341D02*
X0421028Y0165341D01*
X0421028Y0164752D02*
X0421373Y0164752D01*
X0421651Y0164163D02*
X0420524Y0164163D01*
X0419935Y0163574D02*
X0422132Y0163574D01*
X0420584Y0162396D02*
X0426890Y0162396D01*
X0426517Y0161807D02*
X0421173Y0161807D01*
X0421391Y0161589D02*
X0420002Y0162978D01*
X0418037Y0162978D01*
X0416648Y0161589D01*
X0416648Y0159624D01*
X0418037Y0158235D01*
X0419844Y0158235D01*
X0421420Y0156658D01*
X0421420Y0155613D01*
X0422609Y0154425D01*
X0424289Y0154425D01*
X0425477Y0155613D01*
X0425477Y0157293D01*
X0424289Y0158481D01*
X0423243Y0158481D01*
X0421391Y0160333D01*
X0421391Y0161589D01*
X0421391Y0161218D02*
X0426315Y0161218D01*
X0426306Y0160040D02*
X0421685Y0160040D01*
X0421391Y0160629D02*
X0428724Y0160629D01*
X0428724Y0160040D02*
X0429315Y0160040D01*
X0429315Y0160629D02*
X0432156Y0160629D01*
X0431733Y0160040D02*
X0432745Y0160040D01*
X0433334Y0159451D02*
X0431541Y0159451D01*
X0431187Y0158862D02*
X0433923Y0158862D01*
X0434512Y0158273D02*
X0430516Y0158273D01*
X0429315Y0158273D02*
X0428724Y0158273D01*
X0428724Y0158862D02*
X0429315Y0158862D01*
X0429315Y0159451D02*
X0428724Y0159451D01*
X0427524Y0158273D02*
X0424498Y0158273D01*
X0425087Y0157684D02*
X0434565Y0157684D01*
X0434565Y0157095D02*
X0425477Y0157095D01*
X0425477Y0156505D02*
X0434565Y0156505D01*
X0434565Y0155916D02*
X0425477Y0155916D01*
X0425192Y0155327D02*
X0434565Y0155327D01*
X0434565Y0154738D02*
X0424603Y0154738D01*
X0422295Y0154738D02*
X0359201Y0154738D01*
X0359201Y0154149D02*
X0434565Y0154149D01*
X0434565Y0153560D02*
X0359201Y0153560D01*
X0359201Y0155327D02*
X0421706Y0155327D01*
X0421420Y0155916D02*
X0359201Y0155916D01*
X0359201Y0156505D02*
X0421420Y0156505D01*
X0420984Y0157095D02*
X0359201Y0157095D01*
X0359201Y0157684D02*
X0420395Y0157684D01*
X0418000Y0158273D02*
X0410516Y0158273D01*
X0410333Y0158150D02*
X0410787Y0158454D01*
X0411173Y0158840D01*
X0411476Y0159294D01*
X0411685Y0159798D01*
X0411787Y0160311D01*
X0409315Y0160311D01*
X0409315Y0157839D01*
X0409828Y0157941D01*
X0410333Y0158150D01*
X0409315Y0158273D02*
X0408724Y0158273D01*
X0408724Y0157839D02*
X0408724Y0160311D01*
X0406252Y0160311D01*
X0406355Y0159798D01*
X0406563Y0159294D01*
X0406867Y0158840D01*
X0407253Y0158454D01*
X0407707Y0158150D01*
X0408211Y0157941D01*
X0408724Y0157839D01*
X0408724Y0158862D02*
X0409315Y0158862D01*
X0409315Y0159451D02*
X0408724Y0159451D01*
X0408724Y0160040D02*
X0409315Y0160040D01*
X0409315Y0160311D02*
X0408724Y0160311D01*
X0408724Y0160902D01*
X0406252Y0160902D01*
X0406355Y0161415D01*
X0406563Y0161919D01*
X0406867Y0162373D01*
X0407253Y0162759D01*
X0407707Y0163063D01*
X0408211Y0163272D01*
X0408724Y0163374D01*
X0408724Y0160902D01*
X0409315Y0160902D01*
X0409315Y0163374D01*
X0409828Y0163272D01*
X0410333Y0163063D01*
X0410787Y0162759D01*
X0411173Y0162373D01*
X0411476Y0161919D01*
X0411685Y0161415D01*
X0411787Y0160902D01*
X0409315Y0160902D01*
X0409315Y0160311D01*
X0409315Y0160629D02*
X0416648Y0160629D01*
X0416648Y0161218D02*
X0411724Y0161218D01*
X0411522Y0161807D02*
X0416866Y0161807D01*
X0417455Y0162396D02*
X0411150Y0162396D01*
X0410449Y0162985D02*
X0413106Y0162985D01*
X0412132Y0163574D02*
X0405907Y0163574D01*
X0406389Y0164163D02*
X0411651Y0164163D01*
X0411373Y0164752D02*
X0406666Y0164752D01*
X0406781Y0165930D02*
X0411258Y0165930D01*
X0411398Y0166520D02*
X0406642Y0166520D01*
X0406349Y0167109D02*
X0411690Y0167109D01*
X0412191Y0167698D02*
X0405848Y0167698D01*
X0405054Y0168287D02*
X0407985Y0168287D01*
X0407396Y0168876D02*
X0405643Y0168876D01*
X0406232Y0169465D02*
X0406807Y0169465D01*
X0406648Y0170054D02*
X0406391Y0170054D01*
X0406391Y0170643D02*
X0406648Y0170643D01*
X0406648Y0171232D02*
X0406391Y0171232D01*
X0406159Y0171821D02*
X0406880Y0171821D01*
X0407469Y0172410D02*
X0405570Y0172410D01*
X0403568Y0172999D02*
X0407731Y0172999D01*
X0407731Y0173588D02*
X0402979Y0173588D01*
X0402390Y0174177D02*
X0408231Y0174177D01*
X0408231Y0174766D02*
X0407758Y0174766D01*
X0406469Y0177123D02*
X0400309Y0177123D01*
X0400309Y0177712D02*
X0407058Y0177712D01*
X0407647Y0178301D02*
X0400309Y0178301D01*
X0400309Y0178890D02*
X0402080Y0178890D01*
X0402530Y0178440D02*
X0404210Y0178440D01*
X0405048Y0179278D01*
X0412131Y0179278D01*
X0415210Y0182358D01*
X0415210Y0183443D01*
X0416391Y0184624D01*
X0416391Y0186589D01*
X0415002Y0187978D01*
X0414917Y0187978D01*
X0415333Y0188150D01*
X0415787Y0188454D01*
X0416173Y0188840D01*
X0416476Y0189294D01*
X0416685Y0189798D01*
X0416787Y0190311D01*
X0414315Y0190311D01*
X0414315Y0190902D01*
X0413724Y0190902D01*
X0413724Y0190311D01*
X0411252Y0190311D01*
X0411355Y0189798D01*
X0411563Y0189294D01*
X0411867Y0188840D01*
X0412253Y0188454D01*
X0412707Y0188150D01*
X0413122Y0187978D01*
X0413037Y0187978D01*
X0411648Y0186589D01*
X0411648Y0186504D01*
X0411476Y0186919D01*
X0411173Y0187373D01*
X0410787Y0187759D01*
X0410333Y0188063D01*
X0409828Y0188272D01*
X0409315Y0188374D01*
X0409315Y0185902D01*
X0408724Y0185902D01*
X0408724Y0185311D01*
X0409315Y0185311D01*
X0409315Y0182839D01*
X0409828Y0182941D01*
X0410333Y0183150D01*
X0410787Y0183454D01*
X0411173Y0183840D01*
X0411476Y0184294D01*
X0411648Y0184709D01*
X0411648Y0184624D01*
X0412829Y0183443D01*
X0412829Y0183344D01*
X0411145Y0181659D01*
X0405048Y0181659D01*
X0404210Y0182497D01*
X0402530Y0182497D01*
X0401342Y0181309D01*
X0401342Y0179629D01*
X0402530Y0178440D01*
X0401491Y0179479D02*
X0400309Y0179479D01*
X0400309Y0180068D02*
X0401342Y0180068D01*
X0401342Y0180657D02*
X0400309Y0180657D01*
X0400309Y0181246D02*
X0401342Y0181246D01*
X0401868Y0181835D02*
X0400309Y0181835D01*
X0400309Y0182424D02*
X0402457Y0182424D01*
X0403038Y0183013D02*
X0400309Y0183013D01*
X0400369Y0183602D02*
X0402104Y0183602D01*
X0401632Y0184191D02*
X0400959Y0184191D01*
X0401391Y0186548D02*
X0401409Y0186548D01*
X0401709Y0187137D02*
X0400844Y0187137D01*
X0400254Y0187726D02*
X0402219Y0187726D01*
X0402461Y0188315D02*
X0398134Y0188315D01*
X0397545Y0188904D02*
X0401824Y0188904D01*
X0401481Y0189493D02*
X0396956Y0189493D01*
X0396391Y0190082D02*
X0401298Y0190082D01*
X0401252Y0190902D02*
X0403724Y0190902D01*
X0403724Y0190311D01*
X0404315Y0190311D01*
X0404315Y0187839D01*
X0404315Y0185902D01*
X0408724Y0185902D01*
X0408724Y0188374D01*
X0408211Y0188272D01*
X0407707Y0188063D01*
X0407253Y0187759D01*
X0406867Y0187373D01*
X0406563Y0186919D01*
X0406520Y0186814D01*
X0406476Y0186919D01*
X0406173Y0187373D01*
X0405787Y0187759D01*
X0405333Y0188063D01*
X0405227Y0188107D01*
X0405333Y0188150D01*
X0405787Y0188454D01*
X0406173Y0188840D01*
X0406476Y0189294D01*
X0406685Y0189798D01*
X0406787Y0190311D01*
X0404315Y0190311D01*
X0404315Y0190902D01*
X0403724Y0190902D01*
X0403724Y0193374D01*
X0403211Y0193272D01*
X0402707Y0193063D01*
X0402253Y0192759D01*
X0401867Y0192373D01*
X0401563Y0191919D01*
X0401355Y0191415D01*
X0401252Y0190902D01*
X0401324Y0191260D02*
X0396391Y0191260D01*
X0396391Y0190671D02*
X0403724Y0190671D01*
X0403724Y0190082D02*
X0404315Y0190082D01*
X0404315Y0189493D02*
X0403724Y0189493D01*
X0403724Y0188904D02*
X0404315Y0188904D01*
X0404315Y0188315D02*
X0403724Y0188315D01*
X0403724Y0187726D02*
X0404315Y0187726D01*
X0404315Y0187137D02*
X0403724Y0187137D01*
X0403724Y0186548D02*
X0404315Y0186548D01*
X0404315Y0185959D02*
X0403724Y0185959D01*
X0404315Y0185370D02*
X0408724Y0185370D01*
X0408724Y0185959D02*
X0409315Y0185959D01*
X0409315Y0186548D02*
X0408724Y0186548D01*
X0408724Y0187137D02*
X0409315Y0187137D01*
X0409315Y0187726D02*
X0408724Y0187726D01*
X0408724Y0188315D02*
X0409315Y0188315D01*
X0409611Y0188315D02*
X0412461Y0188315D01*
X0412785Y0187726D02*
X0410820Y0187726D01*
X0411331Y0187137D02*
X0412196Y0187137D01*
X0411648Y0186548D02*
X0411630Y0186548D01*
X0411824Y0188904D02*
X0406215Y0188904D01*
X0406558Y0189493D02*
X0411481Y0189493D01*
X0411298Y0190082D02*
X0406741Y0190082D01*
X0406787Y0190902D02*
X0406685Y0191415D01*
X0406476Y0191919D01*
X0406173Y0192373D01*
X0405787Y0192759D01*
X0405333Y0193063D01*
X0404828Y0193272D01*
X0404315Y0193374D01*
X0404315Y0190902D01*
X0406787Y0190902D01*
X0406716Y0191260D02*
X0411324Y0191260D01*
X0411355Y0191415D02*
X0411252Y0190902D01*
X0413724Y0190902D01*
X0413724Y0193374D01*
X0413211Y0193272D01*
X0412707Y0193063D01*
X0412253Y0192759D01*
X0411867Y0192373D01*
X0411563Y0191919D01*
X0411355Y0191415D01*
X0411534Y0191849D02*
X0406505Y0191849D01*
X0406108Y0192438D02*
X0411932Y0192438D01*
X0412654Y0193027D02*
X0410036Y0193027D01*
X0409828Y0192941D02*
X0410333Y0193150D01*
X0410787Y0193454D01*
X0411173Y0193840D01*
X0411476Y0194294D01*
X0411685Y0194798D01*
X0411787Y0195311D01*
X0409315Y0195311D01*
X0409315Y0192839D01*
X0409828Y0192941D01*
X0409315Y0193027D02*
X0408724Y0193027D01*
X0408724Y0192839D02*
X0408724Y0195311D01*
X0406252Y0195311D01*
X0406355Y0194798D01*
X0406563Y0194294D01*
X0406867Y0193840D01*
X0407253Y0193454D01*
X0407707Y0193150D01*
X0408211Y0192941D01*
X0408724Y0192839D01*
X0408004Y0193027D02*
X0405386Y0193027D01*
X0404315Y0193027D02*
X0403724Y0193027D01*
X0403724Y0192438D02*
X0404315Y0192438D01*
X0404315Y0191849D02*
X0403724Y0191849D01*
X0403724Y0191260D02*
X0404315Y0191260D01*
X0404315Y0190671D02*
X0413724Y0190671D01*
X0413724Y0191260D02*
X0414315Y0191260D01*
X0414315Y0190902D02*
X0414315Y0193374D01*
X0414828Y0193272D01*
X0415333Y0193063D01*
X0415787Y0192759D01*
X0416173Y0192373D01*
X0416476Y0191919D01*
X0416685Y0191415D01*
X0416787Y0190902D01*
X0414315Y0190902D01*
X0414315Y0190671D02*
X0416893Y0190671D01*
X0416893Y0190082D02*
X0416741Y0190082D01*
X0416893Y0189493D02*
X0416558Y0189493D01*
X0416215Y0188904D02*
X0417263Y0188904D01*
X0417852Y0188315D02*
X0415579Y0188315D01*
X0415254Y0187726D02*
X0417785Y0187726D01*
X0417196Y0187137D02*
X0415844Y0187137D01*
X0416391Y0186548D02*
X0416648Y0186548D01*
X0416648Y0185959D02*
X0416391Y0185959D01*
X0416391Y0185370D02*
X0416648Y0185370D01*
X0416648Y0184780D02*
X0416391Y0184780D01*
X0415959Y0184191D02*
X0417081Y0184191D01*
X0417670Y0183602D02*
X0415369Y0183602D01*
X0415210Y0183013D02*
X0417829Y0183013D01*
X0417024Y0182424D02*
X0415210Y0182424D01*
X0414688Y0181835D02*
X0416435Y0181835D01*
X0416302Y0181246D02*
X0414099Y0181246D01*
X0413510Y0180657D02*
X0416302Y0180657D01*
X0416302Y0180068D02*
X0412921Y0180068D01*
X0412332Y0179479D02*
X0416846Y0179479D01*
X0418331Y0180862D02*
X0419020Y0181551D01*
X0419020Y0185607D01*
X0423429Y0185607D02*
X0418921Y0190114D01*
X0420950Y0190082D02*
X0421298Y0190082D01*
X0421226Y0189493D02*
X0421481Y0189493D01*
X0421815Y0188904D02*
X0421824Y0188904D01*
X0420950Y0190671D02*
X0423724Y0190671D01*
X0423724Y0190902D02*
X0421252Y0190902D01*
X0421355Y0191415D01*
X0421563Y0191919D01*
X0421867Y0192373D01*
X0422253Y0192759D01*
X0422707Y0193063D01*
X0423211Y0193272D01*
X0423724Y0193374D01*
X0423724Y0190902D01*
X0423724Y0191260D02*
X0424315Y0191260D01*
X0424315Y0190902D02*
X0424315Y0193374D01*
X0424828Y0193272D01*
X0425333Y0193063D01*
X0425787Y0192759D01*
X0426173Y0192373D01*
X0426476Y0191919D01*
X0426685Y0191415D01*
X0426787Y0190902D01*
X0424315Y0190902D01*
X0424315Y0190671D02*
X0451870Y0190671D01*
X0451870Y0190082D02*
X0426741Y0190082D01*
X0426558Y0189493D02*
X0451870Y0189493D01*
X0451870Y0188904D02*
X0426215Y0188904D01*
X0425579Y0188315D02*
X0451870Y0188315D01*
X0451870Y0187726D02*
X0430254Y0187726D01*
X0430844Y0187137D02*
X0451870Y0187137D01*
X0451870Y0186548D02*
X0431391Y0186548D01*
X0431391Y0185959D02*
X0451870Y0185959D01*
X0451870Y0185370D02*
X0431391Y0185370D01*
X0431391Y0184780D02*
X0451870Y0184780D01*
X0451870Y0184191D02*
X0430959Y0184191D01*
X0430369Y0183602D02*
X0451870Y0183602D01*
X0451870Y0183013D02*
X0428249Y0183013D01*
X0427660Y0182424D02*
X0451870Y0182424D01*
X0451870Y0181835D02*
X0427071Y0181835D01*
X0426482Y0181246D02*
X0451870Y0181246D01*
X0451870Y0180657D02*
X0426391Y0180657D01*
X0426391Y0180068D02*
X0451870Y0180068D01*
X0451870Y0179479D02*
X0426246Y0179479D01*
X0425657Y0178890D02*
X0451870Y0178890D01*
X0451870Y0178301D02*
X0425309Y0178301D01*
X0425309Y0177712D02*
X0451870Y0177712D01*
X0451870Y0177123D02*
X0425858Y0177123D01*
X0426391Y0176534D02*
X0451870Y0176534D01*
X0451870Y0175945D02*
X0426391Y0175945D01*
X0426391Y0175355D02*
X0451870Y0175355D01*
X0451870Y0174766D02*
X0426391Y0174766D01*
X0425944Y0174177D02*
X0451870Y0174177D01*
X0451870Y0170054D02*
X0431736Y0170054D01*
X0431547Y0169465D02*
X0451870Y0169465D01*
X0451870Y0168876D02*
X0431197Y0168876D01*
X0430537Y0168287D02*
X0451870Y0168287D01*
X0435756Y0158713D02*
X0429157Y0165311D01*
X0429157Y0165508D01*
X0424059Y0170607D01*
X0424020Y0170607D01*
X0421648Y0170643D02*
X0421391Y0170643D01*
X0421391Y0171232D02*
X0421648Y0171232D01*
X0421880Y0171821D02*
X0421159Y0171821D01*
X0420570Y0172410D02*
X0422469Y0172410D01*
X0422684Y0173588D02*
X0419634Y0173588D01*
X0420223Y0174177D02*
X0422095Y0174177D01*
X0421648Y0174766D02*
X0420359Y0174766D01*
X0420359Y0175355D02*
X0421648Y0175355D01*
X0421648Y0175945D02*
X0420359Y0175945D01*
X0418331Y0175154D02*
X0414020Y0170843D01*
X0414020Y0170607D01*
X0411648Y0170643D02*
X0411391Y0170643D01*
X0411391Y0171232D02*
X0411648Y0171232D01*
X0411880Y0171821D02*
X0411159Y0171821D01*
X0410570Y0172410D02*
X0412469Y0172410D01*
X0411662Y0172999D02*
X0414492Y0172999D01*
X0415082Y0173588D02*
X0412251Y0173588D01*
X0412288Y0174177D02*
X0415671Y0174177D01*
X0416260Y0174766D02*
X0412288Y0174766D01*
X0412238Y0175355D02*
X0416302Y0175355D01*
X0416302Y0175945D02*
X0411649Y0175945D01*
X0408236Y0178890D02*
X0404660Y0178890D01*
X0403370Y0180469D02*
X0411638Y0180469D01*
X0414020Y0182851D01*
X0414020Y0185607D01*
X0412081Y0184191D02*
X0411408Y0184191D01*
X0410935Y0183602D02*
X0412670Y0183602D01*
X0412499Y0183013D02*
X0410002Y0183013D01*
X0409315Y0183013D02*
X0408724Y0183013D01*
X0408724Y0183602D02*
X0409315Y0183602D01*
X0409315Y0184191D02*
X0408724Y0184191D01*
X0408724Y0184780D02*
X0409315Y0184780D01*
X0408038Y0183013D02*
X0405002Y0183013D01*
X0404315Y0183013D02*
X0403724Y0183013D01*
X0403724Y0183602D02*
X0404315Y0183602D01*
X0404315Y0184191D02*
X0403724Y0184191D01*
X0403724Y0184780D02*
X0404315Y0184780D01*
X0405935Y0183602D02*
X0407104Y0183602D01*
X0406632Y0184191D02*
X0406408Y0184191D01*
X0404283Y0182424D02*
X0411910Y0182424D01*
X0411320Y0181835D02*
X0404872Y0181835D01*
X0397731Y0181835D02*
X0391511Y0181835D01*
X0391476Y0181919D02*
X0391173Y0182373D01*
X0390787Y0182759D01*
X0390333Y0183063D01*
X0390227Y0183107D01*
X0390333Y0183150D01*
X0390787Y0183454D01*
X0391173Y0183840D01*
X0391476Y0184294D01*
X0391520Y0184399D01*
X0391563Y0184294D01*
X0391867Y0183840D01*
X0392253Y0183454D01*
X0392707Y0183150D01*
X0393211Y0182941D01*
X0393724Y0182839D01*
X0393724Y0185311D01*
X0391787Y0185311D01*
X0389315Y0185311D01*
X0389315Y0182839D01*
X0389315Y0180902D01*
X0388724Y0180902D01*
X0388724Y0180311D01*
X0386787Y0180311D01*
X0384315Y0180311D01*
X0384315Y0177839D01*
X0384315Y0175902D01*
X0383724Y0175902D01*
X0383724Y0180311D01*
X0384315Y0180311D01*
X0384315Y0180902D01*
X0388724Y0180902D01*
X0388724Y0185311D01*
X0389315Y0185311D01*
X0389315Y0185902D01*
X0393724Y0185902D01*
X0393724Y0185311D01*
X0394315Y0185311D01*
X0394315Y0182839D01*
X0394828Y0182941D01*
X0395333Y0183150D01*
X0395787Y0183454D01*
X0396173Y0183840D01*
X0396476Y0184294D01*
X0396648Y0184709D01*
X0396648Y0184624D01*
X0397731Y0183542D01*
X0397731Y0176259D01*
X0394450Y0172978D01*
X0393037Y0172978D01*
X0391648Y0171589D01*
X0391648Y0171504D01*
X0391476Y0171919D01*
X0391173Y0172373D01*
X0390787Y0172759D01*
X0390333Y0173063D01*
X0390227Y0173107D01*
X0390333Y0173150D01*
X0390787Y0173454D01*
X0391173Y0173840D01*
X0391476Y0174294D01*
X0391685Y0174798D01*
X0391787Y0175311D01*
X0389315Y0175311D01*
X0389315Y0172839D01*
X0389315Y0170902D01*
X0388724Y0170902D01*
X0388724Y0175311D01*
X0386787Y0175311D01*
X0384315Y0175311D01*
X0384315Y0175902D01*
X0388724Y0175902D01*
X0388724Y0175311D01*
X0389315Y0175311D01*
X0389315Y0175902D01*
X0388724Y0175902D01*
X0388724Y0180311D01*
X0389315Y0180311D01*
X0389315Y0177839D01*
X0389315Y0175902D01*
X0391787Y0175902D01*
X0391685Y0176415D01*
X0391476Y0176919D01*
X0391173Y0177373D01*
X0390787Y0177759D01*
X0390333Y0178063D01*
X0390227Y0178107D01*
X0390333Y0178150D01*
X0390787Y0178454D01*
X0391173Y0178840D01*
X0391476Y0179294D01*
X0391685Y0179798D01*
X0391787Y0180311D01*
X0389315Y0180311D01*
X0389315Y0180902D01*
X0391787Y0180902D01*
X0391685Y0181415D01*
X0391476Y0181919D01*
X0391122Y0182424D02*
X0397731Y0182424D01*
X0397731Y0183013D02*
X0395002Y0183013D01*
X0394315Y0183013D02*
X0393724Y0183013D01*
X0393724Y0183602D02*
X0394315Y0183602D01*
X0394315Y0184191D02*
X0393724Y0184191D01*
X0393724Y0184780D02*
X0394315Y0184780D01*
X0393724Y0185370D02*
X0389315Y0185370D01*
X0389315Y0185959D02*
X0388724Y0185959D01*
X0388724Y0185902D02*
X0388724Y0188374D01*
X0388211Y0188272D01*
X0387707Y0188063D01*
X0387253Y0187759D01*
X0386867Y0187373D01*
X0386563Y0186919D01*
X0386520Y0186814D01*
X0386476Y0186919D01*
X0386173Y0187373D01*
X0385787Y0187759D01*
X0385333Y0188063D01*
X0385227Y0188107D01*
X0385333Y0188150D01*
X0385787Y0188454D01*
X0386173Y0188840D01*
X0386476Y0189294D01*
X0386685Y0189798D01*
X0386787Y0190311D01*
X0384315Y0190311D01*
X0384315Y0188374D01*
X0384315Y0185902D01*
X0383724Y0185902D01*
X0383724Y0185311D01*
X0381252Y0185311D01*
X0381355Y0184798D01*
X0381563Y0184294D01*
X0381867Y0183840D01*
X0382253Y0183454D01*
X0382707Y0183150D01*
X0382813Y0183107D01*
X0382707Y0183063D01*
X0382253Y0182759D01*
X0381867Y0182373D01*
X0381563Y0181919D01*
X0381355Y0181415D01*
X0381252Y0180902D01*
X0383724Y0180902D01*
X0383724Y0185311D01*
X0384315Y0185311D01*
X0384315Y0185902D01*
X0388724Y0185902D01*
X0388724Y0185370D02*
X0384315Y0185370D01*
X0384315Y0185959D02*
X0383724Y0185959D01*
X0383724Y0185902D02*
X0383724Y0190311D01*
X0381252Y0190311D01*
X0381355Y0189798D01*
X0381563Y0189294D01*
X0381867Y0188840D01*
X0382253Y0188454D01*
X0382707Y0188150D01*
X0382813Y0188107D01*
X0382707Y0188063D01*
X0382253Y0187759D01*
X0381867Y0187373D01*
X0381563Y0186919D01*
X0381355Y0186415D01*
X0381252Y0185902D01*
X0383724Y0185902D01*
X0383724Y0185370D02*
X0359201Y0185370D01*
X0359201Y0185959D02*
X0381264Y0185959D01*
X0381409Y0186548D02*
X0359201Y0186548D01*
X0359201Y0187137D02*
X0381709Y0187137D01*
X0382219Y0187726D02*
X0359201Y0187726D01*
X0359201Y0188315D02*
X0382461Y0188315D01*
X0381824Y0188904D02*
X0359201Y0188904D01*
X0359201Y0189493D02*
X0381481Y0189493D01*
X0381298Y0190082D02*
X0359201Y0190082D01*
X0359201Y0190671D02*
X0383724Y0190671D01*
X0383724Y0190902D02*
X0383724Y0190311D01*
X0384315Y0190311D01*
X0384315Y0190902D01*
X0383724Y0190902D01*
X0381252Y0190902D01*
X0381355Y0191415D01*
X0381563Y0191919D01*
X0381867Y0192373D01*
X0382253Y0192759D01*
X0382707Y0193063D01*
X0382813Y0193107D01*
X0382707Y0193150D01*
X0382253Y0193454D01*
X0381867Y0193840D01*
X0381563Y0194294D01*
X0381355Y0194798D01*
X0381252Y0195311D01*
X0383724Y0195311D01*
X0383724Y0195902D01*
X0381252Y0195902D01*
X0381355Y0196415D01*
X0381563Y0196919D01*
X0381867Y0197373D01*
X0382253Y0197759D01*
X0382707Y0198063D01*
X0383211Y0198272D01*
X0383724Y0198374D01*
X0383724Y0195902D01*
X0384315Y0195902D01*
X0384315Y0198374D01*
X0384828Y0198272D01*
X0385333Y0198063D01*
X0385787Y0197759D01*
X0386173Y0197373D01*
X0386476Y0196919D01*
X0386685Y0196415D01*
X0386787Y0195902D01*
X0384315Y0195902D01*
X0384315Y0195311D01*
X0384315Y0192839D01*
X0384315Y0190902D01*
X0386787Y0190902D01*
X0386685Y0191415D01*
X0386476Y0191919D01*
X0386173Y0192373D01*
X0385787Y0192759D01*
X0385333Y0193063D01*
X0385227Y0193107D01*
X0385333Y0193150D01*
X0385787Y0193454D01*
X0386173Y0193840D01*
X0386476Y0194294D01*
X0386685Y0194798D01*
X0386787Y0195311D01*
X0384315Y0195311D01*
X0383724Y0195311D01*
X0383724Y0190902D01*
X0383724Y0191260D02*
X0384315Y0191260D01*
X0384315Y0190671D02*
X0391648Y0190671D01*
X0391648Y0190082D02*
X0386741Y0190082D01*
X0386558Y0189493D02*
X0391779Y0189493D01*
X0392368Y0188904D02*
X0386215Y0188904D01*
X0385579Y0188315D02*
X0388428Y0188315D01*
X0388724Y0188315D02*
X0389315Y0188315D01*
X0389611Y0188315D02*
X0392957Y0188315D01*
X0392219Y0187726D02*
X0390820Y0187726D01*
X0391331Y0187137D02*
X0391709Y0187137D01*
X0389315Y0187137D02*
X0388724Y0187137D01*
X0388724Y0187726D02*
X0389315Y0187726D01*
X0389315Y0186548D02*
X0388724Y0186548D01*
X0388724Y0184780D02*
X0389315Y0184780D01*
X0389315Y0184191D02*
X0388724Y0184191D01*
X0388724Y0183602D02*
X0389315Y0183602D01*
X0389315Y0183013D02*
X0388724Y0183013D01*
X0388724Y0182424D02*
X0389315Y0182424D01*
X0389315Y0181835D02*
X0388724Y0181835D01*
X0388724Y0181246D02*
X0389315Y0181246D01*
X0389315Y0180657D02*
X0397731Y0180657D01*
X0397731Y0180068D02*
X0391738Y0180068D01*
X0391553Y0179479D02*
X0397731Y0179479D01*
X0397731Y0178890D02*
X0391206Y0178890D01*
X0390558Y0178301D02*
X0397731Y0178301D01*
X0397731Y0177712D02*
X0390834Y0177712D01*
X0391340Y0177123D02*
X0397731Y0177123D01*
X0397731Y0176534D02*
X0391636Y0176534D01*
X0391778Y0175945D02*
X0397417Y0175945D01*
X0396828Y0175355D02*
X0389315Y0175355D01*
X0389315Y0174766D02*
X0388724Y0174766D01*
X0388724Y0174177D02*
X0389315Y0174177D01*
X0389315Y0173588D02*
X0388724Y0173588D01*
X0388724Y0172999D02*
X0389315Y0172999D01*
X0389315Y0172410D02*
X0388724Y0172410D01*
X0388724Y0171821D02*
X0389315Y0171821D01*
X0389315Y0171232D02*
X0388724Y0171232D01*
X0388724Y0170643D02*
X0384315Y0170643D01*
X0384315Y0171232D02*
X0383724Y0171232D01*
X0383724Y0170643D02*
X0359201Y0170643D01*
X0359201Y0171232D02*
X0381318Y0171232D01*
X0381523Y0171821D02*
X0359201Y0171821D01*
X0359201Y0172410D02*
X0381904Y0172410D01*
X0382612Y0172999D02*
X0359201Y0172999D01*
X0359201Y0173588D02*
X0382118Y0173588D01*
X0381641Y0174177D02*
X0359201Y0174177D01*
X0359201Y0174766D02*
X0381368Y0174766D01*
X0381261Y0175945D02*
X0359201Y0175945D01*
X0359201Y0176534D02*
X0381404Y0176534D01*
X0381699Y0177123D02*
X0359201Y0177123D01*
X0359201Y0177712D02*
X0382205Y0177712D01*
X0382482Y0178301D02*
X0359201Y0178301D01*
X0359201Y0178890D02*
X0381833Y0178890D01*
X0381487Y0179479D02*
X0359201Y0179479D01*
X0359201Y0180068D02*
X0381301Y0180068D01*
X0381321Y0181246D02*
X0359201Y0181246D01*
X0359201Y0180657D02*
X0383724Y0180657D01*
X0383724Y0180068D02*
X0384315Y0180068D01*
X0384315Y0180657D02*
X0388724Y0180657D01*
X0388724Y0180068D02*
X0389315Y0180068D01*
X0389315Y0179479D02*
X0388724Y0179479D01*
X0388724Y0178890D02*
X0389315Y0178890D01*
X0389315Y0178301D02*
X0388724Y0178301D01*
X0388724Y0177712D02*
X0389315Y0177712D01*
X0389315Y0177123D02*
X0388724Y0177123D01*
X0388724Y0176534D02*
X0389315Y0176534D01*
X0389315Y0175945D02*
X0388724Y0175945D01*
X0388724Y0175355D02*
X0384315Y0175355D01*
X0384315Y0174766D02*
X0383724Y0174766D01*
X0383724Y0174177D02*
X0384315Y0174177D01*
X0384315Y0173588D02*
X0383724Y0173588D01*
X0383724Y0172999D02*
X0384315Y0172999D01*
X0384315Y0172410D02*
X0383724Y0172410D01*
X0383724Y0171821D02*
X0384315Y0171821D01*
X0384315Y0170054D02*
X0383724Y0170054D01*
X0383724Y0169465D02*
X0384315Y0169465D01*
X0384315Y0168876D02*
X0383724Y0168876D01*
X0383724Y0168287D02*
X0384315Y0168287D01*
X0384315Y0167698D02*
X0383724Y0167698D01*
X0383724Y0167109D02*
X0384315Y0167109D01*
X0384315Y0166520D02*
X0383724Y0166520D01*
X0383724Y0165930D02*
X0384315Y0165930D01*
X0384315Y0165341D02*
X0387120Y0165341D01*
X0387120Y0164752D02*
X0386666Y0164752D01*
X0386558Y0164163D02*
X0386389Y0164163D01*
X0386381Y0163574D02*
X0385907Y0163574D01*
X0385449Y0162985D02*
X0386381Y0162985D01*
X0386381Y0162396D02*
X0386150Y0162396D01*
X0386522Y0161807D02*
X0386880Y0161807D01*
X0386724Y0161218D02*
X0387469Y0161218D01*
X0386733Y0160040D02*
X0406306Y0160040D01*
X0406498Y0159451D02*
X0386541Y0159451D01*
X0386187Y0158862D02*
X0406852Y0158862D01*
X0407524Y0158273D02*
X0385516Y0158273D01*
X0384315Y0158273D02*
X0383724Y0158273D01*
X0383724Y0158862D02*
X0384315Y0158862D01*
X0384315Y0159451D02*
X0383724Y0159451D01*
X0383724Y0160040D02*
X0384315Y0160040D01*
X0384315Y0160629D02*
X0408724Y0160629D01*
X0408724Y0161218D02*
X0409315Y0161218D01*
X0409315Y0161807D02*
X0408724Y0161807D01*
X0408724Y0162396D02*
X0409315Y0162396D01*
X0409315Y0162985D02*
X0408724Y0162985D01*
X0407591Y0162985D02*
X0404934Y0162985D01*
X0404315Y0162985D02*
X0403724Y0162985D01*
X0403724Y0163574D02*
X0404315Y0163574D01*
X0404315Y0164163D02*
X0403724Y0164163D01*
X0403724Y0164752D02*
X0404315Y0164752D01*
X0404315Y0165341D02*
X0413724Y0165341D01*
X0415907Y0163574D02*
X0418065Y0163574D01*
X0417476Y0164163D02*
X0416389Y0164163D01*
X0416666Y0164752D02*
X0416972Y0164752D01*
X0420309Y0167109D02*
X0421690Y0167109D01*
X0421398Y0166520D02*
X0420857Y0166520D01*
X0421028Y0165930D02*
X0421258Y0165930D01*
X0422191Y0167698D02*
X0420309Y0167698D01*
X0420309Y0168287D02*
X0422985Y0168287D01*
X0422396Y0168876D02*
X0420643Y0168876D01*
X0421232Y0169465D02*
X0421807Y0169465D01*
X0421648Y0170054D02*
X0421391Y0170054D01*
X0428724Y0171232D02*
X0429315Y0171232D01*
X0429315Y0171821D02*
X0428724Y0171821D01*
X0428724Y0172410D02*
X0429315Y0172410D01*
X0429315Y0172999D02*
X0428724Y0172999D01*
X0412985Y0168287D02*
X0410054Y0168287D01*
X0410643Y0168876D02*
X0412396Y0168876D01*
X0411807Y0169465D02*
X0411232Y0169465D01*
X0411391Y0170054D02*
X0411648Y0170054D01*
X0402985Y0168287D02*
X0400537Y0168287D01*
X0401197Y0168876D02*
X0402396Y0168876D01*
X0401807Y0169465D02*
X0401547Y0169465D01*
X0402191Y0167698D02*
X0395848Y0167698D01*
X0396349Y0167109D02*
X0401690Y0167109D01*
X0401398Y0166520D02*
X0396642Y0166520D01*
X0396781Y0165930D02*
X0401258Y0165930D01*
X0401373Y0164752D02*
X0396666Y0164752D01*
X0396389Y0164163D02*
X0401651Y0164163D01*
X0402132Y0163574D02*
X0395907Y0163574D01*
X0394934Y0162985D02*
X0403106Y0162985D01*
X0403724Y0165341D02*
X0394315Y0165341D01*
X0394315Y0164752D02*
X0393724Y0164752D01*
X0393724Y0164163D02*
X0394315Y0164163D01*
X0394315Y0163574D02*
X0393724Y0163574D01*
X0393724Y0162985D02*
X0394315Y0162985D01*
X0393106Y0162985D02*
X0390438Y0162985D01*
X0390438Y0162396D02*
X0406890Y0162396D01*
X0406517Y0161807D02*
X0389939Y0161807D01*
X0389350Y0161218D02*
X0406315Y0161218D01*
X0411187Y0158862D02*
X0417410Y0158862D01*
X0416821Y0159451D02*
X0411541Y0159451D01*
X0411733Y0160040D02*
X0416648Y0160040D01*
X0422274Y0159451D02*
X0426498Y0159451D01*
X0426852Y0158862D02*
X0422863Y0158862D01*
X0424934Y0162985D02*
X0427591Y0162985D01*
X0428026Y0163574D02*
X0425907Y0163574D01*
X0426389Y0164163D02*
X0427437Y0164163D01*
X0427129Y0164752D02*
X0426666Y0164752D01*
X0427129Y0165341D02*
X0424315Y0165341D01*
X0426781Y0165930D02*
X0427051Y0165930D01*
X0435756Y0158713D02*
X0435756Y0145266D01*
X0433286Y0145313D02*
X0432320Y0145313D01*
X0432320Y0144724D02*
X0433286Y0144724D01*
X0433286Y0144135D02*
X0432320Y0144135D01*
X0432320Y0143546D02*
X0433286Y0143546D01*
X0433649Y0142957D02*
X0431957Y0142957D01*
X0427744Y0142957D02*
X0427113Y0142957D01*
X0427113Y0143546D02*
X0427380Y0143546D01*
X0427380Y0147080D02*
X0427113Y0147080D01*
X0427113Y0147670D02*
X0427838Y0147670D01*
X0426657Y0148259D02*
X0434565Y0148259D01*
X0433743Y0147670D02*
X0431863Y0147670D01*
X0432320Y0147080D02*
X0433286Y0147080D01*
X0433286Y0146491D02*
X0432320Y0146491D01*
X0432320Y0145902D02*
X0433286Y0145902D01*
X0382524Y0158273D02*
X0359201Y0158273D01*
X0359201Y0158862D02*
X0381852Y0158862D01*
X0381498Y0159451D02*
X0359201Y0159451D01*
X0359201Y0160040D02*
X0381306Y0160040D01*
X0381315Y0161218D02*
X0359201Y0161218D01*
X0359201Y0161807D02*
X0381517Y0161807D01*
X0381890Y0162396D02*
X0359201Y0162396D01*
X0359201Y0162985D02*
X0382591Y0162985D01*
X0382132Y0163574D02*
X0359201Y0163574D01*
X0359201Y0164163D02*
X0381651Y0164163D01*
X0381373Y0164752D02*
X0359201Y0164752D01*
X0359201Y0165341D02*
X0383724Y0165341D01*
X0383724Y0164752D02*
X0384315Y0164752D01*
X0384315Y0164163D02*
X0383724Y0164163D01*
X0383724Y0163574D02*
X0384315Y0163574D01*
X0384315Y0162985D02*
X0383724Y0162985D01*
X0383724Y0162396D02*
X0384315Y0162396D01*
X0384315Y0161807D02*
X0383724Y0161807D01*
X0383724Y0161218D02*
X0384315Y0161218D01*
X0383724Y0160629D02*
X0359201Y0160629D01*
X0359201Y0165930D02*
X0381258Y0165930D01*
X0381398Y0166520D02*
X0359201Y0166520D01*
X0359201Y0167109D02*
X0381690Y0167109D01*
X0382191Y0167698D02*
X0359201Y0167698D01*
X0359201Y0168287D02*
X0382503Y0168287D01*
X0381843Y0168876D02*
X0359201Y0168876D01*
X0359201Y0169465D02*
X0381493Y0169465D01*
X0381304Y0170054D02*
X0359201Y0170054D01*
X0359201Y0175355D02*
X0383724Y0175355D01*
X0383724Y0175945D02*
X0384315Y0175945D01*
X0384315Y0176534D02*
X0383724Y0176534D01*
X0383724Y0177123D02*
X0384315Y0177123D01*
X0384315Y0177712D02*
X0383724Y0177712D01*
X0383724Y0178301D02*
X0384315Y0178301D01*
X0384315Y0178890D02*
X0383724Y0178890D01*
X0383724Y0179479D02*
X0384315Y0179479D01*
X0384315Y0181246D02*
X0383724Y0181246D01*
X0383724Y0181835D02*
X0384315Y0181835D01*
X0384315Y0182424D02*
X0383724Y0182424D01*
X0383724Y0183013D02*
X0384315Y0183013D01*
X0384315Y0183602D02*
X0383724Y0183602D01*
X0383724Y0184191D02*
X0384315Y0184191D01*
X0384315Y0184780D02*
X0383724Y0184780D01*
X0383724Y0186548D02*
X0384315Y0186548D01*
X0384315Y0187137D02*
X0383724Y0187137D01*
X0383724Y0187726D02*
X0384315Y0187726D01*
X0384315Y0188315D02*
X0383724Y0188315D01*
X0383724Y0188904D02*
X0384315Y0188904D01*
X0384315Y0189493D02*
X0383724Y0189493D01*
X0383724Y0190082D02*
X0384315Y0190082D01*
X0384315Y0191849D02*
X0383724Y0191849D01*
X0383724Y0192438D02*
X0384315Y0192438D01*
X0384315Y0193027D02*
X0383724Y0193027D01*
X0383724Y0193616D02*
X0384315Y0193616D01*
X0384315Y0194205D02*
X0383724Y0194205D01*
X0383724Y0194795D02*
X0384315Y0194795D01*
X0384315Y0195384D02*
X0408724Y0195384D01*
X0408724Y0195311D02*
X0408724Y0195902D01*
X0406252Y0195902D01*
X0406355Y0196415D01*
X0406563Y0196919D01*
X0406867Y0197373D01*
X0407253Y0197759D01*
X0407707Y0198063D01*
X0408211Y0198272D01*
X0408724Y0198374D01*
X0408724Y0195902D01*
X0409315Y0195902D01*
X0409315Y0198374D01*
X0409828Y0198272D01*
X0410333Y0198063D01*
X0410787Y0197759D01*
X0411173Y0197373D01*
X0411476Y0196919D01*
X0411685Y0196415D01*
X0411787Y0195902D01*
X0409315Y0195902D01*
X0409315Y0195311D01*
X0408724Y0195311D01*
X0408724Y0194795D02*
X0409315Y0194795D01*
X0409315Y0195384D02*
X0418724Y0195384D01*
X0418724Y0195311D02*
X0416252Y0195311D01*
X0416355Y0194798D01*
X0416563Y0194294D01*
X0416867Y0193840D01*
X0417253Y0193454D01*
X0417707Y0193150D01*
X0418211Y0192941D01*
X0418724Y0192839D01*
X0418724Y0195311D01*
X0418724Y0195902D01*
X0416252Y0195902D01*
X0416355Y0196415D01*
X0416563Y0196919D01*
X0416867Y0197373D01*
X0417253Y0197759D01*
X0417707Y0198063D01*
X0418211Y0198272D01*
X0418724Y0198374D01*
X0418724Y0195902D01*
X0419315Y0195902D01*
X0419315Y0198374D01*
X0419828Y0198272D01*
X0420333Y0198063D01*
X0420787Y0197759D01*
X0421173Y0197373D01*
X0421476Y0196919D01*
X0421685Y0196415D01*
X0421787Y0195902D01*
X0419315Y0195902D01*
X0419315Y0195311D01*
X0419315Y0192839D01*
X0419828Y0192941D01*
X0420333Y0193150D01*
X0420787Y0193454D01*
X0421173Y0193840D01*
X0421476Y0194294D01*
X0421685Y0194798D01*
X0421787Y0195311D01*
X0419315Y0195311D01*
X0418724Y0195311D01*
X0418724Y0194795D02*
X0419315Y0194795D01*
X0419315Y0195384D02*
X0428724Y0195384D01*
X0428724Y0195311D02*
X0426252Y0195311D01*
X0426355Y0194798D01*
X0426563Y0194294D01*
X0426867Y0193840D01*
X0427253Y0193454D01*
X0427707Y0193150D01*
X0428211Y0192941D01*
X0428724Y0192839D01*
X0428724Y0195311D01*
X0428724Y0195902D01*
X0426252Y0195902D01*
X0426355Y0196415D01*
X0426563Y0196919D01*
X0426867Y0197373D01*
X0427253Y0197759D01*
X0427707Y0198063D01*
X0428211Y0198272D01*
X0428724Y0198374D01*
X0428724Y0195902D01*
X0429315Y0195902D01*
X0429315Y0198374D01*
X0429828Y0198272D01*
X0430333Y0198063D01*
X0430787Y0197759D01*
X0431173Y0197373D01*
X0431476Y0196919D01*
X0431685Y0196415D01*
X0431787Y0195902D01*
X0429315Y0195902D01*
X0429315Y0195311D01*
X0429315Y0192839D01*
X0429828Y0192941D01*
X0430333Y0193150D01*
X0430787Y0193454D01*
X0431173Y0193840D01*
X0431476Y0194294D01*
X0431685Y0194798D01*
X0431787Y0195311D01*
X0429315Y0195311D01*
X0428724Y0195311D01*
X0428724Y0194795D02*
X0429315Y0194795D01*
X0429315Y0195384D02*
X0451870Y0195384D01*
X0451870Y0195973D02*
X0431773Y0195973D01*
X0431624Y0196562D02*
X0451870Y0196562D01*
X0451870Y0197151D02*
X0431321Y0197151D01*
X0430806Y0197740D02*
X0451870Y0197740D01*
X0451870Y0198329D02*
X0429540Y0198329D01*
X0429315Y0198329D02*
X0428724Y0198329D01*
X0428499Y0198329D02*
X0419540Y0198329D01*
X0419315Y0198329D02*
X0418724Y0198329D01*
X0418499Y0198329D02*
X0409540Y0198329D01*
X0409315Y0198329D02*
X0408724Y0198329D01*
X0408499Y0198329D02*
X0384540Y0198329D01*
X0384315Y0198329D02*
X0383724Y0198329D01*
X0383499Y0198329D02*
X0359201Y0198329D01*
X0359201Y0198918D02*
X0451870Y0198918D01*
X0451870Y0199507D02*
X0359201Y0199507D01*
X0359201Y0200096D02*
X0451870Y0200096D01*
X0451870Y0200685D02*
X0359201Y0200685D01*
X0359201Y0201274D02*
X0451870Y0201274D01*
X0451870Y0201863D02*
X0359201Y0201863D01*
X0359201Y0202452D02*
X0451870Y0202452D01*
X0451870Y0203041D02*
X0359201Y0203041D01*
X0359201Y0203630D02*
X0451870Y0203630D01*
X0451870Y0204220D02*
X0359201Y0204220D01*
X0359201Y0204809D02*
X0451870Y0204809D01*
X0451870Y0205398D02*
X0359201Y0205398D01*
X0359201Y0205987D02*
X0451870Y0205987D01*
X0451870Y0206576D02*
X0359201Y0206576D01*
X0359201Y0207165D02*
X0451870Y0207165D01*
X0451870Y0207754D02*
X0359201Y0207754D01*
X0359201Y0208343D02*
X0451870Y0208343D01*
X0451870Y0208932D02*
X0359201Y0208932D01*
X0359201Y0209521D02*
X0451870Y0209521D01*
X0451870Y0210110D02*
X0359201Y0210110D01*
X0359201Y0210699D02*
X0451870Y0210699D01*
X0451870Y0211288D02*
X0359201Y0211288D01*
X0359201Y0211877D02*
X0451870Y0211877D01*
X0451870Y0212466D02*
X0359201Y0212466D01*
X0359201Y0213055D02*
X0451870Y0213055D01*
X0451870Y0213645D02*
X0359201Y0213645D01*
X0359201Y0214234D02*
X0451870Y0214234D01*
X0451870Y0214823D02*
X0359201Y0214823D01*
X0359201Y0215412D02*
X0451870Y0215412D01*
X0451870Y0216001D02*
X0359201Y0216001D01*
X0359201Y0216590D02*
X0451870Y0216590D01*
X0451870Y0217179D02*
X0359201Y0217179D01*
X0359201Y0217768D02*
X0451870Y0217768D01*
X0451870Y0218357D02*
X0359201Y0218357D01*
X0359201Y0218946D02*
X0451870Y0218946D01*
X0429315Y0197740D02*
X0428724Y0197740D01*
X0428724Y0197151D02*
X0429315Y0197151D01*
X0429315Y0196562D02*
X0428724Y0196562D01*
X0428724Y0195973D02*
X0429315Y0195973D01*
X0429315Y0194205D02*
X0428724Y0194205D01*
X0428724Y0193616D02*
X0429315Y0193616D01*
X0429315Y0193027D02*
X0428724Y0193027D01*
X0428004Y0193027D02*
X0425386Y0193027D01*
X0426108Y0192438D02*
X0451870Y0192438D01*
X0451870Y0191849D02*
X0426505Y0191849D01*
X0426716Y0191260D02*
X0451870Y0191260D01*
X0451870Y0193027D02*
X0430036Y0193027D01*
X0430949Y0193616D02*
X0451870Y0193616D01*
X0451870Y0194205D02*
X0431417Y0194205D01*
X0431683Y0194795D02*
X0451870Y0194795D01*
X0427090Y0193616D02*
X0420949Y0193616D01*
X0421417Y0194205D02*
X0426622Y0194205D01*
X0426356Y0194795D02*
X0421683Y0194795D01*
X0421773Y0195973D02*
X0426267Y0195973D01*
X0426415Y0196562D02*
X0421624Y0196562D01*
X0421321Y0197151D02*
X0426718Y0197151D01*
X0427233Y0197740D02*
X0420806Y0197740D01*
X0419315Y0197740D02*
X0418724Y0197740D01*
X0418724Y0197151D02*
X0419315Y0197151D01*
X0419315Y0196562D02*
X0418724Y0196562D01*
X0418724Y0195973D02*
X0419315Y0195973D01*
X0419315Y0194205D02*
X0418724Y0194205D01*
X0418724Y0193616D02*
X0419315Y0193616D01*
X0419315Y0193027D02*
X0418724Y0193027D01*
X0418004Y0193027D02*
X0415386Y0193027D01*
X0416108Y0192438D02*
X0421932Y0192438D01*
X0421534Y0191849D02*
X0420055Y0191849D01*
X0420644Y0191260D02*
X0421324Y0191260D01*
X0420036Y0193027D02*
X0422654Y0193027D01*
X0423724Y0193027D02*
X0424315Y0193027D01*
X0424315Y0192438D02*
X0423724Y0192438D01*
X0423724Y0191849D02*
X0424315Y0191849D01*
X0417788Y0191849D02*
X0416505Y0191849D01*
X0416716Y0191260D02*
X0417198Y0191260D01*
X0417090Y0193616D02*
X0410949Y0193616D01*
X0411417Y0194205D02*
X0416622Y0194205D01*
X0416356Y0194795D02*
X0411683Y0194795D01*
X0411773Y0195973D02*
X0416267Y0195973D01*
X0416415Y0196562D02*
X0411624Y0196562D01*
X0411321Y0197151D02*
X0416718Y0197151D01*
X0417233Y0197740D02*
X0410806Y0197740D01*
X0409315Y0197740D02*
X0408724Y0197740D01*
X0408724Y0197151D02*
X0409315Y0197151D01*
X0409315Y0196562D02*
X0408724Y0196562D01*
X0408724Y0195973D02*
X0409315Y0195973D01*
X0409315Y0194205D02*
X0408724Y0194205D01*
X0408724Y0193616D02*
X0409315Y0193616D01*
X0407090Y0193616D02*
X0385949Y0193616D01*
X0386417Y0194205D02*
X0406622Y0194205D01*
X0406356Y0194795D02*
X0386683Y0194795D01*
X0386773Y0195973D02*
X0406267Y0195973D01*
X0406415Y0196562D02*
X0386624Y0196562D01*
X0386321Y0197151D02*
X0406718Y0197151D01*
X0407233Y0197740D02*
X0385806Y0197740D01*
X0384315Y0197740D02*
X0383724Y0197740D01*
X0383724Y0197151D02*
X0384315Y0197151D01*
X0384315Y0196562D02*
X0383724Y0196562D01*
X0383724Y0195973D02*
X0384315Y0195973D01*
X0383724Y0195384D02*
X0359201Y0195384D01*
X0359201Y0195973D02*
X0381267Y0195973D01*
X0381415Y0196562D02*
X0359201Y0196562D01*
X0359201Y0197151D02*
X0381718Y0197151D01*
X0382233Y0197740D02*
X0359201Y0197740D01*
X0359201Y0194795D02*
X0381356Y0194795D01*
X0381622Y0194205D02*
X0359201Y0194205D01*
X0359201Y0193616D02*
X0382090Y0193616D01*
X0382654Y0193027D02*
X0359201Y0193027D01*
X0359201Y0192438D02*
X0381932Y0192438D01*
X0381534Y0191849D02*
X0359201Y0191849D01*
X0359201Y0191260D02*
X0381324Y0191260D01*
X0385386Y0193027D02*
X0402654Y0193027D01*
X0401932Y0192438D02*
X0395542Y0192438D01*
X0396131Y0191849D02*
X0401534Y0191849D01*
X0392497Y0192438D02*
X0386108Y0192438D01*
X0386505Y0191849D02*
X0391908Y0191849D01*
X0391648Y0191260D02*
X0386716Y0191260D01*
X0387219Y0187726D02*
X0385820Y0187726D01*
X0386331Y0187137D02*
X0386709Y0187137D01*
X0391408Y0184191D02*
X0391632Y0184191D01*
X0392104Y0183602D02*
X0390935Y0183602D01*
X0390407Y0183013D02*
X0393038Y0183013D01*
X0391718Y0181246D02*
X0397731Y0181246D01*
X0397670Y0183602D02*
X0395935Y0183602D01*
X0396408Y0184191D02*
X0397081Y0184191D01*
X0405820Y0187726D02*
X0407219Y0187726D01*
X0406709Y0187137D02*
X0406331Y0187137D01*
X0405579Y0188315D02*
X0408428Y0188315D01*
X0423429Y0185607D02*
X0424020Y0185607D01*
X0425844Y0187137D02*
X0427196Y0187137D01*
X0426648Y0186548D02*
X0426391Y0186548D01*
X0426391Y0185959D02*
X0426648Y0185959D01*
X0426648Y0185370D02*
X0426391Y0185370D01*
X0425254Y0187726D02*
X0427785Y0187726D01*
X0414315Y0191849D02*
X0413724Y0191849D01*
X0413724Y0192438D02*
X0414315Y0192438D01*
X0414315Y0193027D02*
X0413724Y0193027D01*
X0381632Y0184191D02*
X0359201Y0184191D01*
X0359201Y0183602D02*
X0382104Y0183602D01*
X0382633Y0183013D02*
X0359201Y0183013D01*
X0359201Y0182424D02*
X0381918Y0182424D01*
X0381529Y0181835D02*
X0359201Y0181835D01*
X0359201Y0184780D02*
X0381362Y0184780D01*
X0391672Y0174766D02*
X0396239Y0174766D01*
X0395649Y0174177D02*
X0391398Y0174177D01*
X0390921Y0173588D02*
X0395060Y0173588D01*
X0394471Y0172999D02*
X0390428Y0172999D01*
X0391136Y0172410D02*
X0392469Y0172410D01*
X0391880Y0171821D02*
X0391517Y0171821D01*
X0389315Y0170054D02*
X0388724Y0170054D01*
X0388724Y0169465D02*
X0389315Y0169465D01*
X0389315Y0168876D02*
X0388724Y0168876D01*
X0388724Y0168287D02*
X0389315Y0168287D01*
X0389170Y0167698D02*
X0385848Y0167698D01*
X0385537Y0168287D02*
X0387503Y0168287D01*
X0386843Y0168876D02*
X0386197Y0168876D01*
X0386349Y0167109D02*
X0388581Y0167109D01*
X0387992Y0166520D02*
X0386642Y0166520D01*
X0386781Y0165930D02*
X0387403Y0165930D01*
X0389870Y0164752D02*
X0391373Y0164752D01*
X0391651Y0164163D02*
X0390261Y0164163D01*
X0390438Y0163574D02*
X0392132Y0163574D01*
X0393724Y0165341D02*
X0390459Y0165341D01*
X0391048Y0165930D02*
X0391258Y0165930D01*
X0395054Y0168287D02*
X0397503Y0168287D01*
X0396843Y0168876D02*
X0395643Y0168876D01*
X0396232Y0169465D02*
X0396493Y0169465D01*
X0398724Y0169465D02*
X0399315Y0169465D01*
X0399315Y0170054D02*
X0398724Y0170054D01*
X0398724Y0170902D02*
X0398724Y0173374D01*
X0398434Y0173316D01*
X0399020Y0173902D01*
X0399606Y0173316D01*
X0399315Y0173374D01*
X0399315Y0170902D01*
X0398724Y0170902D01*
X0398724Y0171232D02*
X0399315Y0171232D01*
X0399315Y0171821D02*
X0398724Y0171821D01*
X0398724Y0172410D02*
X0399315Y0172410D01*
X0399315Y0172999D02*
X0398724Y0172999D01*
X0398706Y0173588D02*
X0399333Y0173588D01*
X0399315Y0168876D02*
X0398724Y0168876D01*
X0398724Y0168287D02*
X0399315Y0168287D01*
X0451870Y0129998D02*
X0101327Y0129998D01*
X0101327Y0129409D02*
X0451870Y0129409D01*
X0451870Y0128820D02*
X0101327Y0128820D01*
X0101327Y0128230D02*
X0451870Y0128230D01*
X0451870Y0127641D02*
X0101327Y0127641D01*
X0101327Y0127052D02*
X0451870Y0127052D01*
X0451870Y0126463D02*
X0101327Y0126463D01*
X0101327Y0125874D02*
X0451870Y0125874D01*
X0451870Y0125285D02*
X0101327Y0125285D01*
X0101327Y0124696D02*
X0451870Y0124696D01*
X0451870Y0124107D02*
X0101327Y0124107D01*
X0101327Y0123518D02*
X0451870Y0123518D01*
X0451870Y0122929D02*
X0101327Y0122929D01*
X0101327Y0122340D02*
X0451870Y0122340D01*
X0451870Y0121751D02*
X0101327Y0121751D01*
X0101327Y0121162D02*
X0451870Y0121162D01*
X0451870Y0120573D02*
X0101327Y0120573D01*
X0101327Y0119984D02*
X0451870Y0119984D01*
X0451870Y0119395D02*
X0101327Y0119395D01*
X0101327Y0118805D02*
X0451870Y0118805D01*
X0451870Y0118216D02*
X0101327Y0118216D01*
X0101327Y0117627D02*
X0451870Y0117627D01*
X0451870Y0117038D02*
X0101327Y0117038D01*
X0101327Y0116449D02*
X0451870Y0116449D01*
X0451870Y0115860D02*
X0101327Y0115860D01*
X0101327Y0115271D02*
X0451870Y0115271D01*
X0451870Y0114682D02*
X0330608Y0114682D01*
X0329507Y0115138D02*
X0326052Y0115138D01*
X0322860Y0113816D01*
X0320417Y0111373D01*
X0319094Y0108181D01*
X0319094Y0104725D01*
X0320417Y0101533D01*
X0322860Y0099090D01*
X0326052Y0097768D01*
X0329507Y0097768D01*
X0332699Y0099090D01*
X0335142Y0101533D01*
X0336465Y0104725D01*
X0336465Y0108181D01*
X0335142Y0111373D01*
X0332699Y0113816D01*
X0329507Y0115138D01*
X0332030Y0114093D02*
X0451870Y0114093D01*
X0451870Y0113504D02*
X0333011Y0113504D01*
X0333600Y0112915D02*
X0451870Y0112915D01*
X0451870Y0112326D02*
X0334189Y0112326D01*
X0334778Y0111737D02*
X0451870Y0111737D01*
X0451870Y0111148D02*
X0335236Y0111148D01*
X0335480Y0110559D02*
X0451870Y0110559D01*
X0451870Y0109970D02*
X0335724Y0109970D01*
X0335968Y0109380D02*
X0451870Y0109380D01*
X0451870Y0108791D02*
X0336212Y0108791D01*
X0336456Y0108202D02*
X0451870Y0108202D01*
X0451870Y0107613D02*
X0336465Y0107613D01*
X0336465Y0107024D02*
X0451870Y0107024D01*
X0451870Y0106435D02*
X0336465Y0106435D01*
X0336465Y0105846D02*
X0451870Y0105846D01*
X0451870Y0105257D02*
X0336465Y0105257D01*
X0336441Y0104668D02*
X0451870Y0104668D01*
X0451870Y0104079D02*
X0336197Y0104079D01*
X0335953Y0103490D02*
X0451870Y0103490D01*
X0451870Y0102901D02*
X0335709Y0102901D01*
X0335465Y0102312D02*
X0451870Y0102312D01*
X0451870Y0101723D02*
X0335221Y0101723D01*
X0334743Y0101134D02*
X0451870Y0101134D01*
X0451870Y0100545D02*
X0334154Y0100545D01*
X0333564Y0099955D02*
X0451870Y0099955D01*
X0451870Y0099366D02*
X0332975Y0099366D01*
X0331944Y0098777D02*
X0451870Y0098777D01*
X0451870Y0098188D02*
X0330522Y0098188D01*
X0325037Y0098188D02*
X0135640Y0098188D01*
X0134625Y0097768D02*
X0137817Y0099090D01*
X0140260Y0101533D01*
X0141583Y0104725D01*
X0141583Y0108181D01*
X0140260Y0111373D01*
X0137817Y0113816D01*
X0134625Y0115138D01*
X0131170Y0115138D01*
X0127978Y0113816D01*
X0125535Y0111373D01*
X0124213Y0108181D01*
X0124213Y0104725D01*
X0125535Y0101533D01*
X0127978Y0099090D01*
X0131170Y0097768D01*
X0134625Y0097768D01*
X0137062Y0098777D02*
X0323615Y0098777D01*
X0322584Y0099366D02*
X0138094Y0099366D01*
X0138683Y0099955D02*
X0321995Y0099955D01*
X0321406Y0100545D02*
X0139272Y0100545D01*
X0139861Y0101134D02*
X0320816Y0101134D01*
X0320338Y0101723D02*
X0140339Y0101723D01*
X0140583Y0102312D02*
X0320094Y0102312D01*
X0319850Y0102901D02*
X0140827Y0102901D01*
X0141071Y0103490D02*
X0319606Y0103490D01*
X0319362Y0104079D02*
X0141315Y0104079D01*
X0141559Y0104668D02*
X0319118Y0104668D01*
X0319094Y0105257D02*
X0141583Y0105257D01*
X0141583Y0105846D02*
X0319094Y0105846D01*
X0319094Y0106435D02*
X0141583Y0106435D01*
X0141583Y0107024D02*
X0319094Y0107024D01*
X0319094Y0107613D02*
X0141583Y0107613D01*
X0141574Y0108202D02*
X0319104Y0108202D01*
X0319348Y0108791D02*
X0141330Y0108791D01*
X0141086Y0109380D02*
X0319592Y0109380D01*
X0319836Y0109970D02*
X0140842Y0109970D01*
X0140598Y0110559D02*
X0320080Y0110559D01*
X0320323Y0111148D02*
X0140354Y0111148D01*
X0139896Y0111737D02*
X0320781Y0111737D01*
X0321370Y0112326D02*
X0139307Y0112326D01*
X0138718Y0112915D02*
X0321959Y0112915D01*
X0322548Y0113504D02*
X0138129Y0113504D01*
X0137148Y0114093D02*
X0323529Y0114093D01*
X0324951Y0114682D02*
X0135726Y0114682D01*
X0130069Y0114682D02*
X0101327Y0114682D01*
X0101327Y0114093D02*
X0128647Y0114093D01*
X0127666Y0113504D02*
X0101327Y0113504D01*
X0101327Y0112915D02*
X0127077Y0112915D01*
X0126488Y0112326D02*
X0101327Y0112326D01*
X0101327Y0111737D02*
X0125899Y0111737D01*
X0125442Y0111148D02*
X0101327Y0111148D01*
X0101327Y0110559D02*
X0125198Y0110559D01*
X0124954Y0109970D02*
X0101327Y0109970D01*
X0101327Y0109380D02*
X0124710Y0109380D01*
X0124466Y0108791D02*
X0101327Y0108791D01*
X0101327Y0108202D02*
X0124222Y0108202D01*
X0124213Y0107613D02*
X0101327Y0107613D01*
X0101327Y0107024D02*
X0124213Y0107024D01*
X0124213Y0106435D02*
X0101327Y0106435D01*
X0101327Y0105846D02*
X0124213Y0105846D01*
X0124213Y0105257D02*
X0101327Y0105257D01*
X0101327Y0104668D02*
X0124236Y0104668D01*
X0124480Y0104079D02*
X0101327Y0104079D01*
X0101327Y0103490D02*
X0124724Y0103490D01*
X0124968Y0102901D02*
X0101327Y0102901D01*
X0101327Y0102312D02*
X0125212Y0102312D01*
X0125456Y0101723D02*
X0101327Y0101723D01*
X0101327Y0101134D02*
X0125935Y0101134D01*
X0126524Y0100545D02*
X0101327Y0100545D01*
X0101327Y0099955D02*
X0127113Y0099955D01*
X0127702Y0099366D02*
X0101327Y0099366D01*
X0101327Y0098777D02*
X0128733Y0098777D01*
X0130155Y0098188D02*
X0101327Y0098188D01*
X0101327Y0097599D02*
X0451870Y0097599D01*
X0451870Y0097010D02*
X0101327Y0097010D01*
X0101327Y0096421D02*
X0451870Y0096421D01*
X0451870Y0095832D02*
X0101327Y0095832D01*
X0101327Y0095243D02*
X0451870Y0095243D01*
X0451870Y0094654D02*
X0101327Y0094654D01*
X0101327Y0094065D02*
X0451870Y0094065D01*
X0451870Y0093476D02*
X0101327Y0093476D01*
M02*
