G75*
%MOIN*%
%OFA0B0*%
%FSLAX25Y25*%
%IPPOS*%
%LPD*%
%AMOC8*
5,1,8,0,0,1.08239X$1,22.5*
%
%ADD10C,0.00197*%
%ADD11C,0.00000*%
%ADD12C,0.00200*%
%ADD13R,0.02220X0.00185*%
%ADD14R,0.02035X0.00185*%
%ADD15R,0.02775X0.00185*%
%ADD16R,0.04810X0.00185*%
%ADD17R,0.02590X0.00185*%
%ADD18R,0.03700X0.00185*%
%ADD19R,0.02405X0.00185*%
%ADD20R,0.03330X0.00185*%
%ADD21R,0.02220X0.00185*%
%ADD22R,0.03145X0.00185*%
%ADD23R,0.05550X0.00185*%
%ADD24R,0.04625X0.00185*%
%ADD25R,0.04070X0.00185*%
%ADD26R,0.03885X0.00185*%
%ADD27R,0.06105X0.00185*%
%ADD28R,0.05180X0.00185*%
%ADD29R,0.04440X0.00185*%
%ADD30R,0.06290X0.00185*%
%ADD31R,0.05735X0.00185*%
%ADD32R,0.04995X0.00185*%
%ADD33R,0.02590X0.00185*%
%ADD34R,0.06475X0.00185*%
%ADD35R,0.05365X0.00185*%
%ADD36R,0.06660X0.00185*%
%ADD37R,0.06845X0.00185*%
%ADD38R,0.07030X0.00185*%
%ADD39R,0.05920X0.00185*%
%ADD40R,0.08140X0.00185*%
%ADD41R,0.07215X0.00185*%
%ADD42R,0.07955X0.00185*%
%ADD43R,0.07585X0.00185*%
%ADD44R,0.07770X0.00185*%
%ADD45R,0.07400X0.00185*%
%ADD46R,0.03145X0.00185*%
%ADD47R,0.02960X0.00185*%
%ADD48R,0.01480X0.00185*%
%ADD49R,0.06845X0.00185*%
%ADD50R,0.04440X0.00185*%
%ADD51R,0.04995X0.00185*%
%ADD52R,0.05920X0.00185*%
%ADD53R,0.00185X0.00185*%
%ADD54R,0.00740X0.00185*%
%ADD55R,0.01110X0.00185*%
%ADD56R,0.01850X0.00185*%
%ADD57R,0.01295X0.00185*%
%ADD58R,0.01665X0.00185*%
%ADD59R,0.04255X0.00185*%
%ADD60R,0.03515X0.00185*%
%ADD61R,0.02210X0.00170*%
%ADD62R,0.03570X0.00170*%
%ADD63R,0.02210X0.00170*%
%ADD64R,0.04250X0.00170*%
%ADD65R,0.04590X0.00170*%
%ADD66R,0.04930X0.00170*%
%ADD67R,0.05270X0.00170*%
%ADD68R,0.05610X0.00170*%
%ADD69R,0.05780X0.00170*%
%ADD70R,0.05780X0.00170*%
%ADD71R,0.02380X0.00170*%
%ADD72R,0.02380X0.00170*%
%ADD73R,0.01020X0.00170*%
%ADD74R,0.01700X0.00170*%
%ADD75R,0.01190X0.00170*%
%ADD76R,0.01190X0.00170*%
%ADD77R,0.01530X0.00170*%
%ADD78R,0.01870X0.00170*%
%ADD79R,0.02040X0.00170*%
%ADD80R,0.02040X0.00170*%
%ADD81R,0.02720X0.00170*%
%ADD82R,0.01020X0.00170*%
%ADD83R,0.01870X0.00170*%
%ADD84R,0.02550X0.00170*%
%ADD85R,0.01870X0.00170*%
%ADD86R,0.02890X0.00170*%
%ADD87R,0.03230X0.00170*%
%ADD88R,0.03400X0.00170*%
%ADD89R,0.02040X0.00170*%
%ADD90R,0.02890X0.00170*%
%ADD91R,0.01020X0.00170*%
%ADD92R,0.01020X0.00170*%
%ADD93R,0.03060X0.00170*%
%ADD94R,0.03910X0.00170*%
%ADD95R,0.04080X0.00170*%
%ADD96R,0.05440X0.00170*%
%ADD97R,0.03400X0.00170*%
%ADD98R,0.04250X0.00170*%
%ADD99R,0.04420X0.00170*%
%ADD100R,0.04760X0.00170*%
%ADD101R,0.03060X0.00170*%
%ADD102R,0.05610X0.00170*%
%ADD103R,0.01190X0.00170*%
%ADD104R,0.03740X0.00170*%
%ADD105R,0.04590X0.00170*%
%ADD106R,0.04760X0.00170*%
%ADD107R,0.01190X0.00170*%
%ADD108R,0.05100X0.00170*%
%ADD109R,0.03230X0.00170*%
%ADD110R,0.02550X0.00170*%
%ADD111R,0.04930X0.00170*%
%ADD112R,0.05100X0.00170*%
%ADD113R,0.06120X0.00170*%
%ADD114R,0.05270X0.00170*%
%ADD115R,0.05440X0.00170*%
%ADD116R,0.05440X0.00170*%
%ADD117R,0.05950X0.00170*%
%ADD118R,0.02720X0.00170*%
%ADD119R,0.06120X0.00170*%
%ADD120R,0.02890X0.00170*%
%ADD121R,0.06290X0.00170*%
%ADD122R,0.06290X0.00170*%
%ADD123R,0.05950X0.00170*%
%ADD124R,0.02040X0.00170*%
%ADD125R,0.01700X0.00170*%
%ADD126R,0.02720X0.00170*%
%ADD127R,0.03740X0.00170*%
%ADD128R,0.04590X0.00170*%
%ADD129R,0.03570X0.00170*%
%ADD130R,0.03910X0.00170*%
%ADD131R,0.02890X0.00170*%
%ADD132R,0.00170X0.00170*%
%ADD133R,0.01870X0.00170*%
%ADD134R,0.09520X0.00170*%
%ADD135R,0.00850X0.00170*%
%ADD136R,0.04080X0.00170*%
%ADD137R,0.09520X0.00170*%
%ADD138R,0.09350X0.00170*%
%ADD139R,0.03570X0.00170*%
%ADD140R,0.05270X0.00170*%
%ADD141R,0.09350X0.00170*%
%ADD142R,0.04590X0.00170*%
%ADD143R,0.04420X0.00170*%
%ADD144R,0.04420X0.00170*%
%ADD145R,0.04420X0.00170*%
%ADD146R,0.02720X0.00170*%
%ADD147R,0.03740X0.00170*%
%ADD148R,0.01360X0.00170*%
%ADD149R,0.01360X0.00170*%
%ADD150R,0.00850X0.00170*%
%ADD151R,0.00510X0.00170*%
%ADD152C,0.00400*%
%ADD153R,0.00680X0.00170*%
%ADD154R,0.00680X0.00170*%
%ADD155R,0.01530X0.00170*%
%ADD156R,0.00340X0.00170*%
%ADD157R,0.00510X0.00170*%
%ADD158R,0.00340X0.00170*%
%ADD159R,0.00340X0.00170*%
%ADD160R,0.00340X0.00170*%
%ADD161R,0.00170X0.00170*%
%ADD162R,0.22610X0.00170*%
%ADD163R,0.07650X0.00170*%
%ADD164R,0.07480X0.00170*%
%ADD165R,0.22610X0.00170*%
%ADD166R,0.07650X0.00170*%
%ADD167R,0.07480X0.00170*%
%ADD168R,0.06460X0.00170*%
%ADD169R,0.06800X0.00170*%
%ADD170R,0.06970X0.00170*%
%ADD171R,0.06630X0.00170*%
%ADD172R,0.07140X0.00170*%
%ADD173R,0.06630X0.00170*%
%ADD174R,0.06970X0.00170*%
%ADD175R,0.07310X0.00170*%
%ADD176R,0.07140X0.00170*%
%ADD177R,0.17680X0.00170*%
%ADD178R,0.17340X0.00170*%
%ADD179R,0.17000X0.00170*%
%ADD180R,0.16830X0.00170*%
%ADD181R,0.16490X0.00170*%
%ADD182R,0.16150X0.00170*%
%ADD183R,0.15980X0.00170*%
%ADD184R,0.15640X0.00170*%
%ADD185R,0.15300X0.00170*%
%ADD186R,0.14960X0.00170*%
%ADD187R,0.06970X0.00170*%
%ADD188R,0.14790X0.00170*%
%ADD189R,0.06970X0.00170*%
%ADD190R,0.14450X0.00170*%
%ADD191R,0.06120X0.00170*%
%ADD192R,0.14110X0.00170*%
%ADD193R,0.13940X0.00170*%
%ADD194R,0.13600X0.00170*%
%ADD195R,0.06290X0.00170*%
%ADD196R,0.13260X0.00170*%
%ADD197R,0.13090X0.00170*%
%ADD198R,0.12750X0.00170*%
%ADD199R,0.05270X0.00170*%
%ADD200R,0.12410X0.00170*%
%ADD201R,0.12070X0.00170*%
%ADD202R,0.11900X0.00170*%
%ADD203R,0.11560X0.00170*%
%ADD204R,0.11220X0.00170*%
%ADD205R,0.11050X0.00170*%
%ADD206R,0.10710X0.00170*%
%ADD207R,0.10370X0.00170*%
%ADD208R,0.10200X0.00170*%
%ADD209R,0.09860X0.00170*%
%ADD210R,0.09520X0.00170*%
%ADD211R,0.09180X0.00170*%
%ADD212R,0.09010X0.00170*%
%ADD213R,0.08670X0.00170*%
%ADD214R,0.08330X0.00170*%
%ADD215R,0.08160X0.00170*%
%ADD216R,0.07820X0.00170*%
%ADD217R,0.07310X0.00170*%
%ADD218R,0.06290X0.00170*%
%ADD219R,0.06460X0.00170*%
%ADD220R,0.07820X0.00170*%
%ADD221R,0.05440X0.00170*%
%ADD222R,0.08160X0.00170*%
%ADD223R,0.08500X0.00170*%
%ADD224R,0.07820X0.00170*%
%ADD225R,0.08840X0.00170*%
%ADD226R,0.07990X0.00170*%
%ADD227R,0.03570X0.00170*%
%ADD228R,0.09690X0.00170*%
%ADD229R,0.10030X0.00170*%
%ADD230R,0.10540X0.00170*%
%ADD231R,0.10880X0.00170*%
%ADD232R,0.11220X0.00170*%
%ADD233R,0.11560X0.00170*%
%ADD234R,0.07140X0.00170*%
%ADD235R,0.07140X0.00170*%
%ADD236R,0.12750X0.00170*%
%ADD237R,0.13090X0.00170*%
%ADD238R,0.14280X0.00170*%
%ADD239R,0.14620X0.00170*%
%ADD240R,0.15130X0.00170*%
%ADD241R,0.15470X0.00170*%
%ADD242R,0.15810X0.00170*%
%ADD243R,0.15980X0.00170*%
%ADD244R,0.16320X0.00170*%
%ADD245R,0.16660X0.00170*%
%ADD246R,0.17510X0.00170*%
%ADD247R,0.03740X0.00170*%
%ADD248C,0.00500*%
%ADD249R,0.00984X0.00984*%
D10*
X0099433Y0091492D02*
X0099433Y0132831D01*
X0357307Y0132831D01*
X0357307Y0221414D01*
X0453764Y0221414D01*
X0453764Y0091492D01*
X0099433Y0091492D01*
D11*
X0126008Y0106453D02*
X0126010Y0106622D01*
X0126016Y0106791D01*
X0126027Y0106960D01*
X0126041Y0107128D01*
X0126060Y0107296D01*
X0126083Y0107464D01*
X0126109Y0107631D01*
X0126140Y0107797D01*
X0126175Y0107963D01*
X0126214Y0108127D01*
X0126258Y0108291D01*
X0126305Y0108453D01*
X0126356Y0108614D01*
X0126411Y0108774D01*
X0126470Y0108933D01*
X0126532Y0109090D01*
X0126599Y0109245D01*
X0126670Y0109399D01*
X0126744Y0109551D01*
X0126822Y0109701D01*
X0126903Y0109849D01*
X0126988Y0109995D01*
X0127077Y0110139D01*
X0127169Y0110281D01*
X0127265Y0110420D01*
X0127364Y0110557D01*
X0127466Y0110692D01*
X0127572Y0110824D01*
X0127681Y0110953D01*
X0127793Y0111080D01*
X0127908Y0111204D01*
X0128026Y0111325D01*
X0128147Y0111443D01*
X0128271Y0111558D01*
X0128398Y0111670D01*
X0128527Y0111779D01*
X0128659Y0111885D01*
X0128794Y0111987D01*
X0128931Y0112086D01*
X0129070Y0112182D01*
X0129212Y0112274D01*
X0129356Y0112363D01*
X0129502Y0112448D01*
X0129650Y0112529D01*
X0129800Y0112607D01*
X0129952Y0112681D01*
X0130106Y0112752D01*
X0130261Y0112819D01*
X0130418Y0112881D01*
X0130577Y0112940D01*
X0130737Y0112995D01*
X0130898Y0113046D01*
X0131060Y0113093D01*
X0131224Y0113137D01*
X0131388Y0113176D01*
X0131554Y0113211D01*
X0131720Y0113242D01*
X0131887Y0113268D01*
X0132055Y0113291D01*
X0132223Y0113310D01*
X0132391Y0113324D01*
X0132560Y0113335D01*
X0132729Y0113341D01*
X0132898Y0113343D01*
X0133067Y0113341D01*
X0133236Y0113335D01*
X0133405Y0113324D01*
X0133573Y0113310D01*
X0133741Y0113291D01*
X0133909Y0113268D01*
X0134076Y0113242D01*
X0134242Y0113211D01*
X0134408Y0113176D01*
X0134572Y0113137D01*
X0134736Y0113093D01*
X0134898Y0113046D01*
X0135059Y0112995D01*
X0135219Y0112940D01*
X0135378Y0112881D01*
X0135535Y0112819D01*
X0135690Y0112752D01*
X0135844Y0112681D01*
X0135996Y0112607D01*
X0136146Y0112529D01*
X0136294Y0112448D01*
X0136440Y0112363D01*
X0136584Y0112274D01*
X0136726Y0112182D01*
X0136865Y0112086D01*
X0137002Y0111987D01*
X0137137Y0111885D01*
X0137269Y0111779D01*
X0137398Y0111670D01*
X0137525Y0111558D01*
X0137649Y0111443D01*
X0137770Y0111325D01*
X0137888Y0111204D01*
X0138003Y0111080D01*
X0138115Y0110953D01*
X0138224Y0110824D01*
X0138330Y0110692D01*
X0138432Y0110557D01*
X0138531Y0110420D01*
X0138627Y0110281D01*
X0138719Y0110139D01*
X0138808Y0109995D01*
X0138893Y0109849D01*
X0138974Y0109701D01*
X0139052Y0109551D01*
X0139126Y0109399D01*
X0139197Y0109245D01*
X0139264Y0109090D01*
X0139326Y0108933D01*
X0139385Y0108774D01*
X0139440Y0108614D01*
X0139491Y0108453D01*
X0139538Y0108291D01*
X0139582Y0108127D01*
X0139621Y0107963D01*
X0139656Y0107797D01*
X0139687Y0107631D01*
X0139713Y0107464D01*
X0139736Y0107296D01*
X0139755Y0107128D01*
X0139769Y0106960D01*
X0139780Y0106791D01*
X0139786Y0106622D01*
X0139788Y0106453D01*
X0139786Y0106284D01*
X0139780Y0106115D01*
X0139769Y0105946D01*
X0139755Y0105778D01*
X0139736Y0105610D01*
X0139713Y0105442D01*
X0139687Y0105275D01*
X0139656Y0105109D01*
X0139621Y0104943D01*
X0139582Y0104779D01*
X0139538Y0104615D01*
X0139491Y0104453D01*
X0139440Y0104292D01*
X0139385Y0104132D01*
X0139326Y0103973D01*
X0139264Y0103816D01*
X0139197Y0103661D01*
X0139126Y0103507D01*
X0139052Y0103355D01*
X0138974Y0103205D01*
X0138893Y0103057D01*
X0138808Y0102911D01*
X0138719Y0102767D01*
X0138627Y0102625D01*
X0138531Y0102486D01*
X0138432Y0102349D01*
X0138330Y0102214D01*
X0138224Y0102082D01*
X0138115Y0101953D01*
X0138003Y0101826D01*
X0137888Y0101702D01*
X0137770Y0101581D01*
X0137649Y0101463D01*
X0137525Y0101348D01*
X0137398Y0101236D01*
X0137269Y0101127D01*
X0137137Y0101021D01*
X0137002Y0100919D01*
X0136865Y0100820D01*
X0136726Y0100724D01*
X0136584Y0100632D01*
X0136440Y0100543D01*
X0136294Y0100458D01*
X0136146Y0100377D01*
X0135996Y0100299D01*
X0135844Y0100225D01*
X0135690Y0100154D01*
X0135535Y0100087D01*
X0135378Y0100025D01*
X0135219Y0099966D01*
X0135059Y0099911D01*
X0134898Y0099860D01*
X0134736Y0099813D01*
X0134572Y0099769D01*
X0134408Y0099730D01*
X0134242Y0099695D01*
X0134076Y0099664D01*
X0133909Y0099638D01*
X0133741Y0099615D01*
X0133573Y0099596D01*
X0133405Y0099582D01*
X0133236Y0099571D01*
X0133067Y0099565D01*
X0132898Y0099563D01*
X0132729Y0099565D01*
X0132560Y0099571D01*
X0132391Y0099582D01*
X0132223Y0099596D01*
X0132055Y0099615D01*
X0131887Y0099638D01*
X0131720Y0099664D01*
X0131554Y0099695D01*
X0131388Y0099730D01*
X0131224Y0099769D01*
X0131060Y0099813D01*
X0130898Y0099860D01*
X0130737Y0099911D01*
X0130577Y0099966D01*
X0130418Y0100025D01*
X0130261Y0100087D01*
X0130106Y0100154D01*
X0129952Y0100225D01*
X0129800Y0100299D01*
X0129650Y0100377D01*
X0129502Y0100458D01*
X0129356Y0100543D01*
X0129212Y0100632D01*
X0129070Y0100724D01*
X0128931Y0100820D01*
X0128794Y0100919D01*
X0128659Y0101021D01*
X0128527Y0101127D01*
X0128398Y0101236D01*
X0128271Y0101348D01*
X0128147Y0101463D01*
X0128026Y0101581D01*
X0127908Y0101702D01*
X0127793Y0101826D01*
X0127681Y0101953D01*
X0127572Y0102082D01*
X0127466Y0102214D01*
X0127364Y0102349D01*
X0127265Y0102486D01*
X0127169Y0102625D01*
X0127077Y0102767D01*
X0126988Y0102911D01*
X0126903Y0103057D01*
X0126822Y0103205D01*
X0126744Y0103355D01*
X0126670Y0103507D01*
X0126599Y0103661D01*
X0126532Y0103816D01*
X0126470Y0103973D01*
X0126411Y0104132D01*
X0126356Y0104292D01*
X0126305Y0104453D01*
X0126258Y0104615D01*
X0126214Y0104779D01*
X0126175Y0104943D01*
X0126140Y0105109D01*
X0126109Y0105275D01*
X0126083Y0105442D01*
X0126060Y0105610D01*
X0126041Y0105778D01*
X0126027Y0105946D01*
X0126016Y0106115D01*
X0126010Y0106284D01*
X0126008Y0106453D01*
X0320890Y0106453D02*
X0320892Y0106622D01*
X0320898Y0106791D01*
X0320909Y0106960D01*
X0320923Y0107128D01*
X0320942Y0107296D01*
X0320965Y0107464D01*
X0320991Y0107631D01*
X0321022Y0107797D01*
X0321057Y0107963D01*
X0321096Y0108127D01*
X0321140Y0108291D01*
X0321187Y0108453D01*
X0321238Y0108614D01*
X0321293Y0108774D01*
X0321352Y0108933D01*
X0321414Y0109090D01*
X0321481Y0109245D01*
X0321552Y0109399D01*
X0321626Y0109551D01*
X0321704Y0109701D01*
X0321785Y0109849D01*
X0321870Y0109995D01*
X0321959Y0110139D01*
X0322051Y0110281D01*
X0322147Y0110420D01*
X0322246Y0110557D01*
X0322348Y0110692D01*
X0322454Y0110824D01*
X0322563Y0110953D01*
X0322675Y0111080D01*
X0322790Y0111204D01*
X0322908Y0111325D01*
X0323029Y0111443D01*
X0323153Y0111558D01*
X0323280Y0111670D01*
X0323409Y0111779D01*
X0323541Y0111885D01*
X0323676Y0111987D01*
X0323813Y0112086D01*
X0323952Y0112182D01*
X0324094Y0112274D01*
X0324238Y0112363D01*
X0324384Y0112448D01*
X0324532Y0112529D01*
X0324682Y0112607D01*
X0324834Y0112681D01*
X0324988Y0112752D01*
X0325143Y0112819D01*
X0325300Y0112881D01*
X0325459Y0112940D01*
X0325619Y0112995D01*
X0325780Y0113046D01*
X0325942Y0113093D01*
X0326106Y0113137D01*
X0326270Y0113176D01*
X0326436Y0113211D01*
X0326602Y0113242D01*
X0326769Y0113268D01*
X0326937Y0113291D01*
X0327105Y0113310D01*
X0327273Y0113324D01*
X0327442Y0113335D01*
X0327611Y0113341D01*
X0327780Y0113343D01*
X0327949Y0113341D01*
X0328118Y0113335D01*
X0328287Y0113324D01*
X0328455Y0113310D01*
X0328623Y0113291D01*
X0328791Y0113268D01*
X0328958Y0113242D01*
X0329124Y0113211D01*
X0329290Y0113176D01*
X0329454Y0113137D01*
X0329618Y0113093D01*
X0329780Y0113046D01*
X0329941Y0112995D01*
X0330101Y0112940D01*
X0330260Y0112881D01*
X0330417Y0112819D01*
X0330572Y0112752D01*
X0330726Y0112681D01*
X0330878Y0112607D01*
X0331028Y0112529D01*
X0331176Y0112448D01*
X0331322Y0112363D01*
X0331466Y0112274D01*
X0331608Y0112182D01*
X0331747Y0112086D01*
X0331884Y0111987D01*
X0332019Y0111885D01*
X0332151Y0111779D01*
X0332280Y0111670D01*
X0332407Y0111558D01*
X0332531Y0111443D01*
X0332652Y0111325D01*
X0332770Y0111204D01*
X0332885Y0111080D01*
X0332997Y0110953D01*
X0333106Y0110824D01*
X0333212Y0110692D01*
X0333314Y0110557D01*
X0333413Y0110420D01*
X0333509Y0110281D01*
X0333601Y0110139D01*
X0333690Y0109995D01*
X0333775Y0109849D01*
X0333856Y0109701D01*
X0333934Y0109551D01*
X0334008Y0109399D01*
X0334079Y0109245D01*
X0334146Y0109090D01*
X0334208Y0108933D01*
X0334267Y0108774D01*
X0334322Y0108614D01*
X0334373Y0108453D01*
X0334420Y0108291D01*
X0334464Y0108127D01*
X0334503Y0107963D01*
X0334538Y0107797D01*
X0334569Y0107631D01*
X0334595Y0107464D01*
X0334618Y0107296D01*
X0334637Y0107128D01*
X0334651Y0106960D01*
X0334662Y0106791D01*
X0334668Y0106622D01*
X0334670Y0106453D01*
X0334668Y0106284D01*
X0334662Y0106115D01*
X0334651Y0105946D01*
X0334637Y0105778D01*
X0334618Y0105610D01*
X0334595Y0105442D01*
X0334569Y0105275D01*
X0334538Y0105109D01*
X0334503Y0104943D01*
X0334464Y0104779D01*
X0334420Y0104615D01*
X0334373Y0104453D01*
X0334322Y0104292D01*
X0334267Y0104132D01*
X0334208Y0103973D01*
X0334146Y0103816D01*
X0334079Y0103661D01*
X0334008Y0103507D01*
X0333934Y0103355D01*
X0333856Y0103205D01*
X0333775Y0103057D01*
X0333690Y0102911D01*
X0333601Y0102767D01*
X0333509Y0102625D01*
X0333413Y0102486D01*
X0333314Y0102349D01*
X0333212Y0102214D01*
X0333106Y0102082D01*
X0332997Y0101953D01*
X0332885Y0101826D01*
X0332770Y0101702D01*
X0332652Y0101581D01*
X0332531Y0101463D01*
X0332407Y0101348D01*
X0332280Y0101236D01*
X0332151Y0101127D01*
X0332019Y0101021D01*
X0331884Y0100919D01*
X0331747Y0100820D01*
X0331608Y0100724D01*
X0331466Y0100632D01*
X0331322Y0100543D01*
X0331176Y0100458D01*
X0331028Y0100377D01*
X0330878Y0100299D01*
X0330726Y0100225D01*
X0330572Y0100154D01*
X0330417Y0100087D01*
X0330260Y0100025D01*
X0330101Y0099966D01*
X0329941Y0099911D01*
X0329780Y0099860D01*
X0329618Y0099813D01*
X0329454Y0099769D01*
X0329290Y0099730D01*
X0329124Y0099695D01*
X0328958Y0099664D01*
X0328791Y0099638D01*
X0328623Y0099615D01*
X0328455Y0099596D01*
X0328287Y0099582D01*
X0328118Y0099571D01*
X0327949Y0099565D01*
X0327780Y0099563D01*
X0327611Y0099565D01*
X0327442Y0099571D01*
X0327273Y0099582D01*
X0327105Y0099596D01*
X0326937Y0099615D01*
X0326769Y0099638D01*
X0326602Y0099664D01*
X0326436Y0099695D01*
X0326270Y0099730D01*
X0326106Y0099769D01*
X0325942Y0099813D01*
X0325780Y0099860D01*
X0325619Y0099911D01*
X0325459Y0099966D01*
X0325300Y0100025D01*
X0325143Y0100087D01*
X0324988Y0100154D01*
X0324834Y0100225D01*
X0324682Y0100299D01*
X0324532Y0100377D01*
X0324384Y0100458D01*
X0324238Y0100543D01*
X0324094Y0100632D01*
X0323952Y0100724D01*
X0323813Y0100820D01*
X0323676Y0100919D01*
X0323541Y0101021D01*
X0323409Y0101127D01*
X0323280Y0101236D01*
X0323153Y0101348D01*
X0323029Y0101463D01*
X0322908Y0101581D01*
X0322790Y0101702D01*
X0322675Y0101826D01*
X0322563Y0101953D01*
X0322454Y0102082D01*
X0322348Y0102214D01*
X0322246Y0102349D01*
X0322147Y0102486D01*
X0322051Y0102625D01*
X0321959Y0102767D01*
X0321870Y0102911D01*
X0321785Y0103057D01*
X0321704Y0103205D01*
X0321626Y0103355D01*
X0321552Y0103507D01*
X0321481Y0103661D01*
X0321414Y0103816D01*
X0321352Y0103973D01*
X0321293Y0104132D01*
X0321238Y0104292D01*
X0321187Y0104453D01*
X0321140Y0104615D01*
X0321096Y0104779D01*
X0321057Y0104943D01*
X0321022Y0105109D01*
X0320991Y0105275D01*
X0320965Y0105442D01*
X0320942Y0105610D01*
X0320923Y0105778D01*
X0320909Y0105946D01*
X0320898Y0106115D01*
X0320892Y0106284D01*
X0320890Y0106453D01*
D12*
X0420655Y0095736D02*
X0420655Y0093966D01*
X0420655Y0094556D02*
X0421540Y0094556D01*
X0421835Y0094851D01*
X0421835Y0095441D01*
X0421540Y0095736D01*
X0420655Y0095736D01*
X0421245Y0094556D02*
X0421835Y0093966D01*
X0422468Y0094261D02*
X0422468Y0094851D01*
X0422763Y0095146D01*
X0423353Y0095146D01*
X0423648Y0094851D01*
X0423648Y0094556D01*
X0422468Y0094556D01*
X0422468Y0094261D02*
X0422763Y0093966D01*
X0423353Y0093966D01*
X0424280Y0095146D02*
X0424870Y0093966D01*
X0425460Y0095146D01*
X0426093Y0094851D02*
X0426978Y0094851D01*
X0427273Y0094556D01*
X0427273Y0094261D01*
X0426978Y0093966D01*
X0426093Y0093966D01*
X0426093Y0095736D01*
X0426978Y0095736D01*
X0427273Y0095441D01*
X0427273Y0095146D01*
X0426978Y0094851D01*
X0429718Y0094851D02*
X0430898Y0094851D01*
X0433343Y0094851D02*
X0434228Y0094851D01*
X0434523Y0094556D01*
X0434523Y0094261D01*
X0434228Y0093966D01*
X0433343Y0093966D01*
X0433343Y0095736D01*
X0434228Y0095736D01*
X0434523Y0095441D01*
X0434523Y0095146D01*
X0434228Y0094851D01*
X0435156Y0095146D02*
X0435156Y0094261D01*
X0435451Y0093966D01*
X0436336Y0093966D01*
X0436336Y0095146D01*
X0436968Y0095146D02*
X0437263Y0095146D01*
X0437263Y0093966D01*
X0436968Y0093966D02*
X0437558Y0093966D01*
X0438177Y0093966D02*
X0438767Y0093966D01*
X0438472Y0093966D02*
X0438472Y0095736D01*
X0438177Y0095736D01*
X0437263Y0095736D02*
X0437263Y0096031D01*
X0439385Y0094851D02*
X0439680Y0095146D01*
X0440565Y0095146D01*
X0440565Y0095736D02*
X0440565Y0093966D01*
X0439680Y0093966D01*
X0439385Y0094261D01*
X0439385Y0094851D01*
X0440384Y0097137D02*
X0440679Y0097137D01*
X0440974Y0097432D01*
X0440974Y0098907D01*
X0440679Y0098907D02*
X0441269Y0098907D01*
X0442808Y0098612D02*
X0442808Y0097432D01*
X0443103Y0097137D01*
X0443693Y0097137D01*
X0443988Y0097432D01*
X0444621Y0097137D02*
X0444621Y0098907D01*
X0444916Y0098317D02*
X0445506Y0098317D01*
X0445801Y0098022D01*
X0445801Y0097137D01*
X0446433Y0097432D02*
X0446728Y0097137D01*
X0447318Y0097137D01*
X0447613Y0097432D01*
X0447613Y0098022D01*
X0447318Y0098317D01*
X0446728Y0098317D01*
X0446433Y0098022D01*
X0446433Y0097432D01*
X0444916Y0098317D02*
X0444621Y0098022D01*
X0443988Y0098612D02*
X0443693Y0098907D01*
X0443103Y0098907D01*
X0442808Y0098612D01*
X0442197Y0097432D02*
X0442197Y0097137D01*
X0441902Y0097137D01*
X0441902Y0097432D01*
X0442197Y0097432D01*
X0440384Y0097137D02*
X0440089Y0097432D01*
X0443010Y0095146D02*
X0443600Y0095736D01*
X0443600Y0093966D01*
X0443010Y0093966D02*
X0444190Y0093966D01*
X0444823Y0094261D02*
X0446003Y0095441D01*
X0446003Y0094261D01*
X0445708Y0093966D01*
X0445118Y0093966D01*
X0444823Y0094261D01*
X0444823Y0095441D01*
X0445118Y0095736D01*
X0445708Y0095736D01*
X0446003Y0095441D01*
X0446635Y0093966D02*
X0447815Y0095736D01*
X0448448Y0095146D02*
X0449038Y0095736D01*
X0449038Y0093966D01*
X0448448Y0093966D02*
X0449628Y0093966D01*
X0450260Y0094261D02*
X0450260Y0094556D01*
X0450555Y0094851D01*
X0451145Y0094851D01*
X0451441Y0094556D01*
X0451441Y0094261D01*
X0451145Y0093966D01*
X0450555Y0093966D01*
X0450260Y0094261D01*
X0450555Y0094851D02*
X0450260Y0095146D01*
X0450260Y0095441D01*
X0450555Y0095736D01*
X0451145Y0095736D01*
X0451441Y0095441D01*
X0451441Y0095146D01*
X0451145Y0094851D01*
X0450943Y0096547D02*
X0451238Y0096842D01*
X0451238Y0098317D01*
X0450353Y0098317D01*
X0450058Y0098022D01*
X0450058Y0097432D01*
X0450353Y0097137D01*
X0451238Y0097137D01*
X0450943Y0096547D02*
X0450648Y0096547D01*
X0449426Y0097137D02*
X0449426Y0098022D01*
X0449131Y0098317D01*
X0448246Y0098317D01*
X0448246Y0097137D01*
X0430968Y0141066D02*
X0429900Y0141066D01*
X0430968Y0142134D01*
X0430968Y0142401D01*
X0430701Y0142668D01*
X0430167Y0142668D01*
X0429900Y0142401D01*
X0429311Y0142401D02*
X0429044Y0142668D01*
X0428243Y0142668D01*
X0428243Y0141066D01*
X0429044Y0141066D01*
X0429311Y0141333D01*
X0429311Y0142401D01*
X0414543Y0143852D02*
X0412942Y0143852D01*
X0412942Y0144652D01*
X0413209Y0144919D01*
X0413742Y0144919D01*
X0414009Y0144652D01*
X0414009Y0143852D01*
X0414009Y0144385D02*
X0414543Y0144919D01*
X0414543Y0145509D02*
X0413475Y0146577D01*
X0413209Y0146577D01*
X0412942Y0146310D01*
X0412942Y0145776D01*
X0413209Y0145509D01*
X0414543Y0145509D02*
X0414543Y0146577D01*
X0390848Y0141066D02*
X0389780Y0141066D01*
X0390314Y0141066D02*
X0390314Y0142668D01*
X0389780Y0142134D01*
X0389191Y0142401D02*
X0388924Y0142668D01*
X0388123Y0142668D01*
X0388123Y0141066D01*
X0388924Y0141066D01*
X0389191Y0141333D01*
X0389191Y0142401D01*
X0374423Y0143852D02*
X0372822Y0143852D01*
X0372822Y0144652D01*
X0373089Y0144919D01*
X0373622Y0144919D01*
X0373889Y0144652D01*
X0373889Y0143852D01*
X0373889Y0144385D02*
X0374423Y0144919D01*
X0374423Y0145509D02*
X0374423Y0146577D01*
X0374423Y0146043D02*
X0372822Y0146043D01*
X0373356Y0145509D01*
X0372982Y0158128D02*
X0373349Y0158495D01*
X0373349Y0159229D01*
X0372982Y0159596D01*
X0371147Y0159596D01*
X0371881Y0160338D02*
X0371147Y0161072D01*
X0373349Y0161072D01*
X0373349Y0160338D02*
X0373349Y0161806D01*
X0372982Y0158128D02*
X0371147Y0158128D01*
D13*
X0397513Y0206655D03*
X0411573Y0209060D03*
X0411573Y0209245D03*
X0411573Y0209430D03*
X0416013Y0209985D03*
X0416013Y0210170D03*
X0416198Y0209615D03*
X0416198Y0209430D03*
X0416198Y0209245D03*
X0416013Y0208875D03*
X0416013Y0208690D03*
X0418973Y0210355D03*
X0411573Y0212575D03*
X0397513Y0215350D03*
X0376423Y0211650D03*
X0376238Y0212020D03*
X0376238Y0212205D03*
X0373463Y0212575D03*
X0373463Y0212760D03*
X0373463Y0212945D03*
X0428963Y0208320D03*
X0428963Y0208135D03*
X0428963Y0207950D03*
X0428963Y0207765D03*
X0429148Y0208690D03*
X0429148Y0208875D03*
X0429148Y0209060D03*
X0429148Y0209245D03*
X0429888Y0210910D03*
X0429888Y0211095D03*
X0430073Y0211280D03*
X0430813Y0212575D03*
X0430998Y0212760D03*
X0435438Y0212760D03*
X0435438Y0212945D03*
X0435438Y0209245D03*
X0435438Y0209060D03*
D14*
X0437566Y0206655D03*
X0430166Y0211465D03*
X0430351Y0211835D03*
X0430721Y0212390D03*
X0423321Y0212390D03*
X0423321Y0212575D03*
X0423321Y0212760D03*
X0423321Y0212205D03*
X0423321Y0212020D03*
X0423321Y0211835D03*
X0423321Y0211650D03*
X0423321Y0211465D03*
X0423321Y0211280D03*
X0423321Y0211095D03*
X0423321Y0210910D03*
X0423321Y0210725D03*
X0423321Y0210540D03*
X0423321Y0210355D03*
X0423321Y0208320D03*
X0423321Y0208135D03*
X0423321Y0207950D03*
X0423321Y0207765D03*
X0423321Y0207580D03*
X0423321Y0207395D03*
X0423321Y0207210D03*
X0423321Y0207025D03*
X0423321Y0206840D03*
X0416106Y0209060D03*
X0413886Y0206655D03*
X0419621Y0211095D03*
X0419806Y0211280D03*
X0419991Y0211465D03*
X0420546Y0212205D03*
X0420731Y0212390D03*
X0420916Y0212575D03*
X0406671Y0215165D03*
X0406671Y0215350D03*
X0403896Y0212205D03*
D15*
X0406301Y0214240D03*
X0411666Y0210355D03*
X0414626Y0211835D03*
X0415736Y0210540D03*
X0422951Y0214610D03*
X0399641Y0213500D03*
X0399456Y0213685D03*
X0386691Y0212205D03*
X0386506Y0212575D03*
X0386506Y0212760D03*
X0386691Y0209615D03*
X0386506Y0209245D03*
X0395201Y0208690D03*
X0395386Y0208505D03*
X0399641Y0208320D03*
X0399826Y0208505D03*
X0400011Y0209615D03*
X0399826Y0209800D03*
X0377996Y0206840D03*
X0377811Y0207395D03*
X0377626Y0207950D03*
X0371521Y0206840D03*
D16*
X0382713Y0206840D03*
X0405283Y0212390D03*
X0405283Y0212575D03*
X0405283Y0212760D03*
X0405283Y0212945D03*
X0437658Y0207395D03*
D17*
X0439323Y0208320D03*
X0435808Y0208320D03*
X0435808Y0213685D03*
X0439323Y0213685D03*
X0412128Y0213685D03*
X0411573Y0210170D03*
X0411573Y0209985D03*
X0412128Y0208320D03*
X0400103Y0209430D03*
X0395108Y0208875D03*
X0394923Y0209245D03*
X0394923Y0209430D03*
X0390853Y0209430D03*
X0390853Y0209615D03*
X0390853Y0209800D03*
X0390853Y0209985D03*
X0390853Y0210170D03*
X0390853Y0210355D03*
X0390853Y0210540D03*
X0390853Y0210725D03*
X0390853Y0210910D03*
X0390853Y0211095D03*
X0390853Y0211280D03*
X0390853Y0211465D03*
X0390853Y0211650D03*
X0390853Y0211835D03*
X0390853Y0212020D03*
X0390853Y0212205D03*
X0390853Y0212390D03*
X0390853Y0212575D03*
X0390853Y0212760D03*
X0390853Y0212945D03*
X0390853Y0213130D03*
X0390853Y0213315D03*
X0390853Y0213500D03*
X0390853Y0213685D03*
X0390853Y0213870D03*
X0390853Y0214055D03*
X0390853Y0214240D03*
X0390853Y0214425D03*
X0390853Y0214610D03*
X0390853Y0214795D03*
X0390853Y0214980D03*
X0390853Y0215165D03*
X0399733Y0213315D03*
X0399733Y0213130D03*
X0386783Y0212020D03*
X0386783Y0211835D03*
X0386783Y0211650D03*
X0386783Y0211465D03*
X0386783Y0211280D03*
X0386783Y0211095D03*
X0386783Y0210910D03*
X0386783Y0210725D03*
X0386783Y0210540D03*
X0386783Y0210355D03*
X0386783Y0210170D03*
X0386783Y0209985D03*
X0386783Y0209800D03*
X0386598Y0209430D03*
X0386598Y0212390D03*
X0381603Y0212390D03*
X0381603Y0212575D03*
X0381603Y0212760D03*
X0381603Y0212945D03*
X0381603Y0213130D03*
X0381603Y0212205D03*
X0381603Y0212020D03*
X0381603Y0211835D03*
X0381603Y0211650D03*
X0381603Y0211465D03*
X0381603Y0211280D03*
X0381603Y0211095D03*
X0381603Y0210910D03*
X0381603Y0210725D03*
X0381603Y0210540D03*
X0381603Y0210355D03*
X0381603Y0210170D03*
X0381603Y0209985D03*
X0381603Y0209800D03*
X0381603Y0209615D03*
X0381603Y0209430D03*
X0381603Y0209245D03*
X0381603Y0209060D03*
X0381603Y0208875D03*
X0377903Y0207210D03*
X0377903Y0207025D03*
X0377533Y0208135D03*
X0371983Y0208135D03*
X0371798Y0207765D03*
X0371798Y0207580D03*
X0371613Y0207395D03*
X0371613Y0207210D03*
X0371613Y0207025D03*
X0390853Y0207025D03*
X0390853Y0207210D03*
X0390853Y0207395D03*
X0390853Y0207580D03*
X0390853Y0207765D03*
X0390853Y0207950D03*
X0390853Y0208135D03*
X0390853Y0208320D03*
X0390853Y0208505D03*
X0390853Y0208690D03*
X0390853Y0208875D03*
X0390853Y0209060D03*
X0390853Y0209245D03*
X0390853Y0206840D03*
D18*
X0397513Y0206840D03*
X0399363Y0210170D03*
X0397513Y0215165D03*
X0422488Y0213500D03*
X0374758Y0214055D03*
X0374758Y0214240D03*
X0374758Y0214425D03*
D19*
X0375961Y0212945D03*
X0376146Y0212390D03*
X0376331Y0211835D03*
X0376516Y0211465D03*
X0376516Y0211280D03*
X0376701Y0210910D03*
X0376701Y0210725D03*
X0376886Y0210355D03*
X0373186Y0211835D03*
X0373371Y0212390D03*
X0373001Y0211280D03*
X0372816Y0210910D03*
X0372816Y0210725D03*
X0372816Y0210540D03*
X0372631Y0210355D03*
X0371891Y0207950D03*
X0395016Y0209060D03*
X0400011Y0209060D03*
X0400011Y0209245D03*
X0400011Y0208875D03*
X0406486Y0208875D03*
X0406486Y0209060D03*
X0406486Y0209245D03*
X0406486Y0209430D03*
X0406486Y0209615D03*
X0406486Y0209800D03*
X0406486Y0209985D03*
X0406486Y0210170D03*
X0406486Y0210355D03*
X0406486Y0210540D03*
X0406486Y0210725D03*
X0406486Y0210910D03*
X0406486Y0211095D03*
X0406486Y0211280D03*
X0406486Y0211465D03*
X0406486Y0211650D03*
X0406486Y0211835D03*
X0406486Y0212020D03*
X0406486Y0212205D03*
X0406486Y0214610D03*
X0406486Y0214795D03*
X0411666Y0213130D03*
X0411666Y0212945D03*
X0411666Y0212760D03*
X0411481Y0212390D03*
X0411481Y0212205D03*
X0411481Y0212020D03*
X0411481Y0211835D03*
X0411481Y0211650D03*
X0411851Y0213315D03*
X0414626Y0212020D03*
X0415736Y0213315D03*
X0415736Y0213500D03*
X0415921Y0210355D03*
X0416106Y0209800D03*
X0415921Y0208505D03*
X0411851Y0208505D03*
X0411666Y0208875D03*
X0411481Y0209615D03*
X0411481Y0209800D03*
X0406486Y0208690D03*
X0406486Y0208505D03*
X0406486Y0208320D03*
X0406486Y0208135D03*
X0406486Y0207950D03*
X0406486Y0207765D03*
X0406486Y0207580D03*
X0406486Y0207395D03*
X0406486Y0207210D03*
X0406486Y0207025D03*
X0406486Y0206840D03*
X0428871Y0207395D03*
X0428871Y0207580D03*
X0429056Y0208505D03*
X0435346Y0209430D03*
X0435346Y0209615D03*
X0435346Y0209800D03*
X0435531Y0208875D03*
X0435531Y0208690D03*
X0435716Y0208505D03*
X0439416Y0208505D03*
X0439601Y0208690D03*
X0439601Y0208875D03*
X0439786Y0209430D03*
X0439786Y0209615D03*
X0439786Y0212205D03*
X0439786Y0212390D03*
X0439786Y0212575D03*
X0439601Y0213130D03*
X0439601Y0213315D03*
X0439416Y0213500D03*
X0435716Y0213500D03*
X0435531Y0213315D03*
X0435531Y0213130D03*
X0435346Y0212575D03*
X0435346Y0212390D03*
X0435346Y0212205D03*
X0431461Y0213315D03*
X0431276Y0213130D03*
X0423136Y0214980D03*
X0395386Y0213685D03*
X0395201Y0213500D03*
X0395201Y0213315D03*
X0395201Y0213130D03*
X0395201Y0212945D03*
D20*
X0386043Y0213130D03*
X0374758Y0214610D03*
X0374758Y0214795D03*
X0413978Y0206840D03*
X0414533Y0211650D03*
X0422673Y0213870D03*
X0422673Y0214055D03*
D21*
X0423228Y0215165D03*
X0423228Y0215350D03*
X0421008Y0212760D03*
X0420453Y0212020D03*
X0420268Y0211835D03*
X0420083Y0211650D03*
X0419528Y0210910D03*
X0419343Y0210725D03*
X0419158Y0210540D03*
X0415828Y0213130D03*
X0406578Y0214980D03*
X0429518Y0210170D03*
X0429518Y0209985D03*
X0429333Y0209800D03*
X0429333Y0209615D03*
X0429333Y0209430D03*
X0429703Y0210355D03*
X0429703Y0210540D03*
X0429703Y0210725D03*
X0430258Y0211650D03*
X0430443Y0212020D03*
X0430628Y0212205D03*
X0431183Y0212945D03*
X0435253Y0212020D03*
X0435253Y0211835D03*
X0435253Y0211650D03*
X0435253Y0211465D03*
X0435253Y0211280D03*
X0435253Y0211095D03*
X0435253Y0210910D03*
X0435253Y0210725D03*
X0435253Y0210540D03*
X0435253Y0210355D03*
X0435253Y0210170D03*
X0435253Y0209985D03*
X0439693Y0209245D03*
X0439693Y0209060D03*
X0439878Y0209800D03*
X0439878Y0209985D03*
X0439878Y0210170D03*
X0439878Y0210355D03*
X0439878Y0210540D03*
X0439878Y0210725D03*
X0439878Y0210910D03*
X0439878Y0211095D03*
X0439878Y0211280D03*
X0439878Y0211465D03*
X0439878Y0211650D03*
X0439878Y0211835D03*
X0439878Y0212020D03*
X0439693Y0212760D03*
X0439693Y0212945D03*
X0428778Y0207210D03*
X0428778Y0207025D03*
X0428778Y0206840D03*
X0411758Y0208690D03*
X0376793Y0210540D03*
X0376608Y0211095D03*
X0376053Y0212575D03*
X0376053Y0212760D03*
X0373278Y0212205D03*
X0373278Y0212020D03*
X0373093Y0211650D03*
X0373093Y0211465D03*
X0372908Y0211095D03*
D22*
X0386321Y0212945D03*
X0395571Y0212575D03*
X0406116Y0213870D03*
X0422766Y0214240D03*
X0437566Y0215165D03*
X0437566Y0206840D03*
X0399641Y0209985D03*
X0395571Y0208320D03*
D23*
X0398068Y0210910D03*
X0396958Y0211835D03*
X0397513Y0214610D03*
X0383083Y0207025D03*
D24*
X0397421Y0207025D03*
X0413886Y0207210D03*
X0405376Y0213130D03*
X0397606Y0214980D03*
D25*
X0422303Y0213130D03*
X0413978Y0207025D03*
X0374758Y0213685D03*
X0374758Y0213870D03*
D26*
X0395941Y0212390D03*
X0405746Y0213500D03*
X0413886Y0214980D03*
X0422396Y0213315D03*
X0437566Y0214980D03*
X0437566Y0207025D03*
D27*
X0413886Y0208135D03*
X0397421Y0207580D03*
X0383361Y0207210D03*
X0383361Y0214795D03*
D28*
X0397513Y0214795D03*
X0413793Y0214425D03*
X0397513Y0207210D03*
X0437658Y0207580D03*
X0437473Y0214425D03*
D29*
X0437473Y0214795D03*
X0437658Y0207210D03*
X0413978Y0214795D03*
X0396403Y0212205D03*
X0374758Y0213130D03*
X0374758Y0213315D03*
D30*
X0383453Y0214610D03*
X0397513Y0214240D03*
X0397513Y0214055D03*
X0413423Y0211465D03*
X0413423Y0211280D03*
X0397513Y0207765D03*
X0383453Y0207395D03*
D31*
X0397421Y0207395D03*
X0413886Y0207765D03*
X0413886Y0207950D03*
X0397791Y0211095D03*
X0397421Y0211465D03*
X0397236Y0211650D03*
X0413886Y0214055D03*
X0437566Y0214055D03*
X0437566Y0207950D03*
X0383176Y0214980D03*
D32*
X0413886Y0214610D03*
X0413886Y0207395D03*
D33*
X0415643Y0208320D03*
X0415643Y0213685D03*
X0411943Y0213500D03*
X0406393Y0214425D03*
X0395293Y0212760D03*
X0399918Y0208690D03*
X0377718Y0207765D03*
X0377718Y0207580D03*
X0423043Y0214795D03*
D34*
X0413516Y0211095D03*
X0383546Y0214425D03*
X0383546Y0207580D03*
D35*
X0398346Y0210725D03*
X0413886Y0214240D03*
X0413886Y0207580D03*
X0437566Y0207765D03*
X0437566Y0214240D03*
D36*
X0429518Y0213500D03*
X0413608Y0210910D03*
X0413608Y0210725D03*
X0397513Y0207950D03*
X0397513Y0213870D03*
X0383638Y0214240D03*
X0374758Y0210170D03*
X0383638Y0207765D03*
D37*
X0383731Y0207950D03*
X0383731Y0214055D03*
D38*
X0383823Y0213870D03*
X0383823Y0208135D03*
X0374758Y0209615D03*
X0374758Y0209800D03*
X0397513Y0208135D03*
D39*
X0413793Y0213870D03*
X0437658Y0208135D03*
D40*
X0374758Y0208320D03*
D41*
X0374851Y0209430D03*
X0383916Y0208505D03*
X0383916Y0208320D03*
X0383916Y0213500D03*
X0383916Y0213685D03*
D42*
X0374851Y0208505D03*
D43*
X0421656Y0208505D03*
X0421656Y0208690D03*
X0421656Y0208875D03*
X0421656Y0209060D03*
X0421656Y0209245D03*
X0421656Y0209430D03*
X0421656Y0209615D03*
X0421656Y0209800D03*
X0421656Y0209985D03*
X0421656Y0210170D03*
D44*
X0374758Y0208875D03*
X0374758Y0208690D03*
D45*
X0374758Y0209060D03*
X0374758Y0209245D03*
X0384008Y0208690D03*
X0384008Y0213315D03*
D46*
X0374851Y0214980D03*
X0386136Y0208875D03*
X0411851Y0210540D03*
X0413886Y0215165D03*
D47*
X0406208Y0214055D03*
X0422858Y0214425D03*
X0386413Y0209060D03*
X0374758Y0215165D03*
D48*
X0395478Y0209615D03*
X0403618Y0211835D03*
D49*
X0429611Y0213685D03*
X0429611Y0213870D03*
X0429611Y0214055D03*
X0429611Y0214240D03*
X0429611Y0214425D03*
X0429611Y0214610D03*
X0429611Y0214795D03*
X0429611Y0214980D03*
X0429611Y0215165D03*
X0374851Y0209985D03*
D50*
X0398993Y0210355D03*
D51*
X0398531Y0210540D03*
X0396681Y0212020D03*
X0382806Y0215165D03*
X0437566Y0214610D03*
D52*
X0437473Y0213870D03*
X0397698Y0211280D03*
X0397513Y0214425D03*
D53*
X0402971Y0211280D03*
D54*
X0403248Y0211465D03*
X0415088Y0212945D03*
D55*
X0403433Y0211650D03*
D56*
X0403803Y0212020D03*
X0413978Y0215350D03*
X0437658Y0215350D03*
D57*
X0414626Y0212205D03*
D58*
X0399456Y0212945D03*
D59*
X0405561Y0213315D03*
X0422211Y0212945D03*
X0374851Y0213500D03*
D60*
X0405931Y0213685D03*
X0422581Y0213685D03*
D61*
X0414443Y0137446D03*
X0408493Y0137446D03*
X0408493Y0137106D03*
X0408493Y0136936D03*
X0408493Y0136596D03*
X0408493Y0136256D03*
X0408493Y0136086D03*
X0408493Y0135746D03*
X0408493Y0135406D03*
X0408493Y0135236D03*
X0408493Y0134896D03*
X0408493Y0134556D03*
X0408493Y0134386D03*
X0408493Y0134046D03*
X0408493Y0133706D03*
X0408493Y0133536D03*
X0408493Y0133196D03*
X0408493Y0132856D03*
X0408493Y0132686D03*
X0408493Y0132346D03*
X0408493Y0132006D03*
X0408493Y0131836D03*
X0408493Y0131496D03*
X0405943Y0131496D03*
X0405773Y0131836D03*
X0405433Y0132346D03*
X0405263Y0132686D03*
X0405093Y0132856D03*
X0404923Y0133196D03*
X0404583Y0133706D03*
X0402203Y0133706D03*
X0402203Y0133536D03*
X0402203Y0133196D03*
X0402203Y0132856D03*
X0402203Y0132686D03*
X0402203Y0132346D03*
X0402203Y0132006D03*
X0402203Y0131836D03*
X0402203Y0131496D03*
X0402203Y0131156D03*
X0402203Y0130986D03*
X0402203Y0130646D03*
X0402203Y0130306D03*
X0402203Y0130136D03*
X0402203Y0129796D03*
X0402203Y0129456D03*
X0402203Y0129286D03*
X0402203Y0128946D03*
X0402203Y0128606D03*
X0402203Y0128436D03*
X0402203Y0128096D03*
X0402203Y0127756D03*
X0402203Y0127586D03*
X0399653Y0127586D03*
X0399653Y0127756D03*
X0399483Y0128096D03*
X0399313Y0128436D03*
X0399313Y0128606D03*
X0399143Y0128946D03*
X0399143Y0129286D03*
X0398973Y0129456D03*
X0398293Y0131156D03*
X0398293Y0131496D03*
X0393193Y0129286D03*
X0393023Y0128606D03*
X0392853Y0128096D03*
X0392683Y0127756D03*
X0392683Y0127586D03*
X0392513Y0122996D03*
X0392513Y0122656D03*
X0392513Y0122486D03*
X0392513Y0122146D03*
X0392513Y0121806D03*
X0392513Y0121636D03*
X0392513Y0121296D03*
X0392513Y0120956D03*
X0392513Y0120786D03*
X0392513Y0120446D03*
X0392513Y0120106D03*
X0392513Y0119936D03*
X0392513Y0119596D03*
X0392513Y0119256D03*
X0392513Y0119086D03*
X0392513Y0118746D03*
X0392513Y0118406D03*
X0392513Y0118236D03*
X0392513Y0117896D03*
X0392513Y0117556D03*
X0392513Y0117386D03*
X0392513Y0117046D03*
X0392513Y0116706D03*
X0398803Y0118746D03*
X0398803Y0119086D03*
X0398803Y0119256D03*
X0398803Y0120446D03*
X0398803Y0120786D03*
X0398803Y0120956D03*
X0401693Y0121636D03*
X0401693Y0121806D03*
X0401693Y0122146D03*
X0401693Y0122486D03*
X0401693Y0122656D03*
X0401693Y0122996D03*
X0409853Y0124696D03*
X0410023Y0123846D03*
X0410193Y0123506D03*
X0410193Y0123336D03*
X0410363Y0122996D03*
X0410533Y0122486D03*
X0410703Y0121806D03*
X0410703Y0121636D03*
X0410873Y0121296D03*
X0411043Y0120956D03*
X0411043Y0120786D03*
X0411213Y0120446D03*
X0411213Y0120106D03*
X0411383Y0119936D03*
X0411553Y0119256D03*
X0411723Y0118746D03*
X0411893Y0118236D03*
X0414273Y0118746D03*
X0414443Y0119256D03*
X0414783Y0120446D03*
X0414953Y0120786D03*
X0414953Y0120956D03*
X0415123Y0121296D03*
X0415293Y0121806D03*
X0415293Y0122146D03*
X0415463Y0122486D03*
X0415463Y0122656D03*
X0415633Y0122996D03*
X0415803Y0123336D03*
X0415803Y0123506D03*
X0416143Y0124696D03*
X0418863Y0124696D03*
X0418863Y0124356D03*
X0418863Y0124186D03*
X0418863Y0123846D03*
X0418863Y0123506D03*
X0418863Y0123336D03*
X0418863Y0122996D03*
X0418863Y0122656D03*
X0418863Y0122486D03*
X0418863Y0122146D03*
X0418863Y0121806D03*
X0418863Y0121636D03*
X0418863Y0121296D03*
X0418863Y0120956D03*
X0418863Y0120786D03*
X0418863Y0120446D03*
X0418863Y0120106D03*
X0418863Y0119936D03*
X0418863Y0119596D03*
X0418863Y0119256D03*
X0418863Y0119086D03*
X0418863Y0118746D03*
X0418863Y0118406D03*
X0418863Y0118236D03*
X0418863Y0117896D03*
X0418863Y0117556D03*
X0418863Y0117386D03*
X0418863Y0117046D03*
X0418863Y0116706D03*
X0418863Y0116536D03*
X0418863Y0116196D03*
X0418863Y0115856D03*
X0418863Y0115686D03*
X0418863Y0115346D03*
X0418863Y0115006D03*
X0422263Y0117896D03*
X0422093Y0118236D03*
X0422093Y0118406D03*
X0421923Y0118746D03*
X0421923Y0119086D03*
X0421923Y0119256D03*
X0421923Y0119596D03*
X0421753Y0119936D03*
X0421753Y0120106D03*
X0421923Y0120786D03*
X0421923Y0120956D03*
X0421923Y0121296D03*
X0428553Y0117896D03*
X0428723Y0118236D03*
X0438583Y0117556D03*
X0438583Y0117386D03*
X0438753Y0117046D03*
X0444533Y0117046D03*
X0444703Y0117386D03*
X0444703Y0117556D03*
X0444703Y0117896D03*
X0444363Y0122656D03*
X0444193Y0122996D03*
X0438753Y0122146D03*
X0440623Y0127246D03*
X0437393Y0130306D03*
X0434333Y0130986D03*
X0434333Y0131156D03*
X0434163Y0130646D03*
X0434503Y0131836D03*
X0434503Y0132006D03*
X0434503Y0132346D03*
X0434503Y0132686D03*
X0434503Y0132856D03*
X0434333Y0133706D03*
X0434163Y0134386D03*
X0437223Y0133706D03*
X0437393Y0134386D03*
X0437563Y0134556D03*
X0437733Y0134896D03*
X0443853Y0134896D03*
X0444193Y0130136D03*
X0427533Y0130136D03*
X0427363Y0130646D03*
X0427193Y0130986D03*
X0427193Y0131156D03*
X0427023Y0132006D03*
X0427023Y0132346D03*
X0427023Y0132686D03*
X0427193Y0133536D03*
X0427193Y0133706D03*
X0427363Y0134046D03*
X0427533Y0134556D03*
X0416823Y0131156D03*
X0417503Y0129456D03*
X0417503Y0129286D03*
X0417673Y0128946D03*
X0417843Y0128436D03*
X0418013Y0128096D03*
X0418013Y0127756D03*
X0418183Y0127586D03*
X0418863Y0125036D03*
X0411383Y0128436D03*
X0411383Y0128606D03*
X0411553Y0128946D03*
X0411213Y0128096D03*
X0411043Y0127586D03*
X0408493Y0127586D03*
X0401693Y0119256D03*
X0401693Y0119086D03*
X0401693Y0118746D03*
X0401693Y0118406D03*
X0401693Y0118236D03*
X0401693Y0117896D03*
X0401693Y0117556D03*
X0401693Y0117386D03*
X0401693Y0117046D03*
X0381803Y0108036D03*
X0391833Y0105996D03*
X0391833Y0105656D03*
X0391833Y0105486D03*
X0447423Y0108036D03*
X0402203Y0137446D03*
X0395913Y0137446D03*
X0312005Y0115436D03*
X0312005Y0115266D03*
X0312005Y0114926D03*
X0312005Y0112886D03*
X0312005Y0112716D03*
X0312005Y0112376D03*
X0312005Y0112036D03*
X0312005Y0111866D03*
X0312005Y0111526D03*
X0312005Y0111186D03*
X0312005Y0111016D03*
X0312005Y0110676D03*
X0308265Y0110166D03*
X0306565Y0108976D03*
X0300275Y0109316D03*
X0300275Y0109486D03*
X0300275Y0109826D03*
X0300275Y0110166D03*
X0300275Y0110336D03*
X0300275Y0110676D03*
X0300275Y0111016D03*
X0300275Y0111186D03*
X0300275Y0111526D03*
X0300275Y0111866D03*
X0300275Y0112036D03*
X0300275Y0112376D03*
X0296705Y0112376D03*
X0296705Y0112716D03*
X0296705Y0112886D03*
X0296705Y0113226D03*
X0296705Y0113566D03*
X0296705Y0113736D03*
X0296705Y0114076D03*
X0296705Y0114416D03*
X0296705Y0114586D03*
X0296705Y0115436D03*
X0296705Y0115776D03*
X0296705Y0116116D03*
X0296705Y0116286D03*
X0296705Y0116626D03*
X0292795Y0115436D03*
X0292625Y0115266D03*
X0292625Y0114926D03*
X0292625Y0112886D03*
X0292625Y0112716D03*
X0292625Y0112376D03*
X0292625Y0112036D03*
X0292625Y0111866D03*
X0292625Y0111526D03*
X0292625Y0111186D03*
X0292625Y0111016D03*
X0292625Y0110676D03*
X0292625Y0110336D03*
X0292625Y0110166D03*
X0292625Y0109826D03*
X0292625Y0109486D03*
X0292625Y0109316D03*
X0296705Y0109316D03*
X0296705Y0109486D03*
X0296705Y0109826D03*
X0296705Y0110166D03*
X0296705Y0110336D03*
X0296705Y0110676D03*
X0296705Y0111016D03*
X0296705Y0111186D03*
X0296705Y0111526D03*
X0296705Y0111866D03*
X0296705Y0112036D03*
X0304865Y0112886D03*
X0285825Y0112886D03*
X0285825Y0112716D03*
X0284975Y0114586D03*
X0282255Y0112376D03*
X0281405Y0114586D03*
X0278515Y0112716D03*
X0278515Y0112376D03*
X0278515Y0112036D03*
X0278515Y0111866D03*
X0278515Y0111526D03*
X0278515Y0111186D03*
X0278515Y0111016D03*
X0278515Y0110676D03*
X0278515Y0110336D03*
X0278515Y0110166D03*
X0278515Y0109826D03*
X0278515Y0109486D03*
X0278515Y0109316D03*
X0275115Y0111016D03*
X0274945Y0110676D03*
X0275285Y0111526D03*
X0275285Y0111866D03*
X0275285Y0112036D03*
X0275115Y0112716D03*
X0275115Y0112886D03*
X0271035Y0112716D03*
X0270865Y0112036D03*
X0270865Y0111866D03*
X0271035Y0111186D03*
X0271035Y0111016D03*
X0271205Y0110676D03*
X0267975Y0111016D03*
X0267805Y0110676D03*
X0263725Y0111016D03*
X0263725Y0111186D03*
X0263555Y0111866D03*
X0263555Y0112036D03*
X0263725Y0112716D03*
X0260325Y0111186D03*
X0260325Y0111016D03*
X0260325Y0110676D03*
X0260325Y0110336D03*
X0260325Y0110166D03*
X0260325Y0109826D03*
X0260325Y0109486D03*
X0260325Y0109316D03*
X0256755Y0109316D03*
X0256755Y0109486D03*
X0256755Y0109826D03*
X0256755Y0108976D03*
X0256755Y0108636D03*
X0254715Y0106766D03*
X0252845Y0108466D03*
X0252845Y0108636D03*
X0252845Y0111186D03*
X0252675Y0111866D03*
X0252675Y0112036D03*
X0252675Y0112376D03*
X0252845Y0112716D03*
X0252845Y0112886D03*
X0254035Y0114586D03*
X0256755Y0112716D03*
X0256755Y0112376D03*
X0256755Y0111526D03*
X0249785Y0111526D03*
X0249785Y0111866D03*
X0249785Y0112036D03*
X0249615Y0112716D03*
X0249615Y0112886D03*
X0249615Y0111016D03*
X0249445Y0110676D03*
X0245705Y0110676D03*
X0245535Y0111016D03*
X0245535Y0111186D03*
X0245365Y0111866D03*
X0245365Y0112036D03*
X0245535Y0112716D03*
X0242135Y0112716D03*
X0242135Y0112886D03*
X0242135Y0113226D03*
X0242135Y0113566D03*
X0242135Y0113736D03*
X0242135Y0114076D03*
X0242135Y0114416D03*
X0242135Y0114586D03*
X0242135Y0114926D03*
X0242135Y0115266D03*
X0242135Y0115436D03*
X0242135Y0115776D03*
X0242135Y0116116D03*
X0242135Y0116286D03*
X0242135Y0116626D03*
X0242135Y0112376D03*
X0242135Y0112036D03*
X0242135Y0111866D03*
X0242135Y0111526D03*
X0242135Y0111186D03*
X0242135Y0111016D03*
X0242135Y0110676D03*
X0242135Y0110336D03*
X0242135Y0110166D03*
X0242135Y0109826D03*
X0242135Y0109486D03*
X0242135Y0109316D03*
X0238565Y0111016D03*
X0231255Y0112376D03*
X0231255Y0112716D03*
X0231255Y0112886D03*
X0230405Y0114586D03*
X0227515Y0112376D03*
X0227515Y0112036D03*
X0227515Y0111866D03*
X0227515Y0111526D03*
X0227515Y0111186D03*
X0227515Y0111016D03*
X0227515Y0110676D03*
X0227515Y0110336D03*
X0227515Y0110166D03*
X0227515Y0109826D03*
X0227515Y0109486D03*
X0227515Y0109316D03*
X0223945Y0111016D03*
X0216635Y0111016D03*
X0216635Y0111186D03*
X0216635Y0110676D03*
X0216635Y0110336D03*
X0216635Y0110166D03*
X0216635Y0109826D03*
X0216635Y0109486D03*
X0216635Y0109316D03*
X0211875Y0109316D03*
X0211875Y0109486D03*
X0207625Y0109486D03*
X0201675Y0109486D03*
X0201675Y0109316D03*
X0197425Y0109486D03*
X0191475Y0109486D03*
X0191475Y0109316D03*
X0187225Y0109486D03*
X0176345Y0109486D03*
X0176345Y0109316D03*
X0176345Y0109826D03*
X0176345Y0110166D03*
X0176345Y0110336D03*
X0176345Y0110676D03*
X0176345Y0111016D03*
X0176345Y0111186D03*
X0176345Y0112716D03*
X0176345Y0112886D03*
X0176345Y0113226D03*
X0176345Y0113566D03*
X0176345Y0113736D03*
X0176345Y0114076D03*
X0176345Y0114416D03*
X0176345Y0114586D03*
X0172945Y0112886D03*
X0172945Y0112716D03*
X0173115Y0112036D03*
X0173115Y0111866D03*
X0173115Y0111526D03*
X0172945Y0111016D03*
X0171755Y0114586D03*
X0169035Y0112376D03*
X0169035Y0112036D03*
X0169035Y0111866D03*
X0169035Y0111526D03*
X0169035Y0111186D03*
X0169035Y0109316D03*
X0169035Y0108976D03*
X0169035Y0108636D03*
X0169035Y0108466D03*
X0169035Y0108126D03*
X0169035Y0107786D03*
X0169035Y0107616D03*
X0169035Y0107276D03*
X0169035Y0106936D03*
X0164615Y0110676D03*
X0164615Y0111016D03*
X0164615Y0111186D03*
X0164615Y0111526D03*
X0164615Y0111866D03*
X0164615Y0112036D03*
X0164615Y0112376D03*
X0164615Y0112716D03*
X0164615Y0112886D03*
X0164615Y0114926D03*
X0164615Y0115266D03*
X0164615Y0115436D03*
X0159855Y0115436D03*
X0159855Y0115266D03*
X0159855Y0114926D03*
X0159855Y0112886D03*
X0159855Y0112716D03*
X0159855Y0112376D03*
X0159855Y0112036D03*
X0159855Y0111866D03*
X0159855Y0111526D03*
X0159855Y0111186D03*
X0159855Y0111016D03*
X0159855Y0110676D03*
X0155945Y0112376D03*
X0155945Y0112716D03*
X0155945Y0112886D03*
X0155095Y0114586D03*
X0152205Y0114586D03*
X0152205Y0114416D03*
X0152205Y0114926D03*
X0152205Y0115266D03*
X0152205Y0115436D03*
X0152205Y0115776D03*
X0152205Y0116116D03*
X0152205Y0116286D03*
X0152205Y0116626D03*
X0152205Y0112376D03*
X0152205Y0112036D03*
X0152205Y0111866D03*
X0152205Y0111526D03*
X0152205Y0111186D03*
X0152205Y0111016D03*
X0152205Y0110676D03*
X0152205Y0110336D03*
X0152205Y0110166D03*
X0152205Y0109826D03*
X0152205Y0109486D03*
X0152205Y0109316D03*
D62*
X0247575Y0109316D03*
X0254715Y0106936D03*
X0273075Y0109316D03*
X0273075Y0114416D03*
X0247575Y0114416D03*
X0402883Y0135406D03*
X0414443Y0135406D03*
X0432803Y0128946D03*
D63*
X0434163Y0130476D03*
X0434333Y0130816D03*
X0434503Y0131666D03*
X0434503Y0132176D03*
X0434503Y0132516D03*
X0434503Y0133026D03*
X0434333Y0133876D03*
X0434163Y0134216D03*
X0437223Y0133876D03*
X0437393Y0134216D03*
X0437563Y0134726D03*
X0437053Y0133026D03*
X0437223Y0130816D03*
X0437393Y0130476D03*
X0437563Y0129966D03*
X0427363Y0130476D03*
X0427193Y0130816D03*
X0427023Y0132176D03*
X0427023Y0132516D03*
X0427193Y0133366D03*
X0427363Y0134216D03*
X0416653Y0131666D03*
X0416483Y0132176D03*
X0417503Y0129116D03*
X0417673Y0128776D03*
X0417843Y0128266D03*
X0418013Y0127926D03*
X0418183Y0127416D03*
X0418863Y0124866D03*
X0418863Y0124526D03*
X0418863Y0124016D03*
X0418863Y0123676D03*
X0418863Y0123166D03*
X0418863Y0122826D03*
X0418863Y0122316D03*
X0418863Y0121976D03*
X0418863Y0121466D03*
X0418863Y0121126D03*
X0418863Y0120616D03*
X0418863Y0120276D03*
X0418863Y0119766D03*
X0418863Y0119426D03*
X0418863Y0118916D03*
X0418863Y0118576D03*
X0418863Y0118066D03*
X0418863Y0117726D03*
X0418863Y0117216D03*
X0418863Y0116876D03*
X0418863Y0116366D03*
X0418863Y0116026D03*
X0418863Y0115516D03*
X0418863Y0115176D03*
X0422093Y0118576D03*
X0421923Y0118916D03*
X0421923Y0119426D03*
X0421923Y0119766D03*
X0421753Y0120276D03*
X0421923Y0121126D03*
X0415633Y0122826D03*
X0415633Y0123166D03*
X0415803Y0123676D03*
X0415973Y0124016D03*
X0416143Y0124526D03*
X0416143Y0124866D03*
X0415463Y0122316D03*
X0415293Y0121976D03*
X0415123Y0121466D03*
X0414783Y0120276D03*
X0414613Y0119766D03*
X0411383Y0119766D03*
X0411213Y0120276D03*
X0411043Y0120616D03*
X0410873Y0121126D03*
X0410873Y0121466D03*
X0410703Y0121976D03*
X0410533Y0122316D03*
X0410363Y0122826D03*
X0409853Y0124526D03*
X0409853Y0124866D03*
X0411043Y0127416D03*
X0411213Y0127926D03*
X0411553Y0129116D03*
X0408493Y0131326D03*
X0408493Y0131666D03*
X0408493Y0132176D03*
X0408493Y0132516D03*
X0408493Y0133026D03*
X0408493Y0133366D03*
X0408493Y0133876D03*
X0408493Y0134216D03*
X0408493Y0134726D03*
X0408493Y0135066D03*
X0408493Y0135576D03*
X0408493Y0135916D03*
X0408493Y0136426D03*
X0408493Y0136766D03*
X0408493Y0137276D03*
X0414443Y0137276D03*
X0402203Y0133366D03*
X0402203Y0133026D03*
X0402203Y0132516D03*
X0402203Y0132176D03*
X0402203Y0131666D03*
X0402203Y0131326D03*
X0402203Y0130816D03*
X0402203Y0130476D03*
X0402203Y0129966D03*
X0402203Y0129626D03*
X0402203Y0129116D03*
X0402203Y0128776D03*
X0402203Y0128266D03*
X0402203Y0127926D03*
X0402203Y0127416D03*
X0399823Y0127416D03*
X0399483Y0128266D03*
X0399313Y0128776D03*
X0399143Y0129116D03*
X0398293Y0131326D03*
X0393873Y0131326D03*
X0393023Y0128776D03*
X0392853Y0128266D03*
X0392513Y0123166D03*
X0392513Y0122826D03*
X0392513Y0122316D03*
X0392513Y0121976D03*
X0392513Y0121466D03*
X0392513Y0121126D03*
X0392513Y0120616D03*
X0392513Y0120276D03*
X0392513Y0119766D03*
X0392513Y0119426D03*
X0392513Y0118916D03*
X0392513Y0118576D03*
X0392513Y0118066D03*
X0392513Y0117726D03*
X0392513Y0117216D03*
X0392513Y0116876D03*
X0398633Y0118066D03*
X0398803Y0118576D03*
X0398803Y0118916D03*
X0398803Y0120616D03*
X0401693Y0121466D03*
X0401693Y0121976D03*
X0401693Y0122316D03*
X0401693Y0122826D03*
X0401693Y0123166D03*
X0401693Y0118916D03*
X0401693Y0118576D03*
X0401693Y0118066D03*
X0401693Y0117726D03*
X0401693Y0117216D03*
X0401693Y0116876D03*
X0414783Y0107866D03*
X0428213Y0107866D03*
X0432123Y0107866D03*
X0432123Y0103616D03*
X0428213Y0103616D03*
X0414783Y0103616D03*
X0391833Y0105826D03*
X0428553Y0117726D03*
X0428723Y0118066D03*
X0428553Y0121976D03*
X0438753Y0121976D03*
X0438753Y0122826D03*
X0438923Y0123166D03*
X0444703Y0118066D03*
X0444703Y0117726D03*
X0406113Y0131326D03*
X0443683Y0135066D03*
X0312005Y0115606D03*
X0312005Y0115096D03*
X0312005Y0114756D03*
X0312005Y0113056D03*
X0312005Y0112546D03*
X0312005Y0112206D03*
X0312005Y0111696D03*
X0312005Y0111356D03*
X0312005Y0110846D03*
X0304695Y0110506D03*
X0300275Y0110506D03*
X0300275Y0110846D03*
X0300275Y0111356D03*
X0300275Y0111696D03*
X0300275Y0112206D03*
X0300275Y0109996D03*
X0300275Y0109656D03*
X0300275Y0109146D03*
X0296705Y0109146D03*
X0296705Y0109656D03*
X0296705Y0109996D03*
X0296705Y0110506D03*
X0296705Y0110846D03*
X0296705Y0111356D03*
X0296705Y0111696D03*
X0296705Y0112206D03*
X0296705Y0112546D03*
X0296705Y0113056D03*
X0296705Y0113396D03*
X0296705Y0113906D03*
X0296705Y0114246D03*
X0296705Y0115606D03*
X0296705Y0115946D03*
X0296705Y0116456D03*
X0296705Y0116796D03*
X0292625Y0115096D03*
X0292625Y0114756D03*
X0292625Y0113056D03*
X0292625Y0112546D03*
X0292625Y0112206D03*
X0292625Y0111696D03*
X0292625Y0111356D03*
X0292625Y0110846D03*
X0292625Y0110506D03*
X0292625Y0109996D03*
X0292625Y0109656D03*
X0292625Y0109146D03*
X0282255Y0112546D03*
X0278515Y0112546D03*
X0278515Y0112206D03*
X0278515Y0111696D03*
X0278515Y0111356D03*
X0278515Y0110846D03*
X0278515Y0110506D03*
X0278515Y0109996D03*
X0278515Y0109656D03*
X0278515Y0109146D03*
X0275115Y0110846D03*
X0275285Y0111696D03*
X0275285Y0112206D03*
X0274945Y0113056D03*
X0271205Y0113056D03*
X0271035Y0112546D03*
X0270865Y0111696D03*
X0267805Y0113056D03*
X0263725Y0112546D03*
X0263555Y0111696D03*
X0260325Y0110846D03*
X0260325Y0110506D03*
X0260325Y0109996D03*
X0260325Y0109656D03*
X0260325Y0109146D03*
X0256755Y0109146D03*
X0256755Y0108806D03*
X0256755Y0109656D03*
X0256755Y0111356D03*
X0256755Y0111696D03*
X0256755Y0112206D03*
X0256755Y0112546D03*
X0252845Y0111356D03*
X0252675Y0112206D03*
X0249785Y0112206D03*
X0249785Y0111696D03*
X0249615Y0110846D03*
X0249445Y0113056D03*
X0245705Y0113056D03*
X0245535Y0112546D03*
X0245365Y0111696D03*
X0242135Y0111696D03*
X0242135Y0111356D03*
X0242135Y0110846D03*
X0242135Y0110506D03*
X0242135Y0109996D03*
X0242135Y0109656D03*
X0242135Y0109146D03*
X0242135Y0112206D03*
X0242135Y0112546D03*
X0242135Y0113056D03*
X0242135Y0113396D03*
X0242135Y0113906D03*
X0242135Y0114246D03*
X0242135Y0114756D03*
X0242135Y0115096D03*
X0242135Y0115606D03*
X0242135Y0115946D03*
X0242135Y0116456D03*
X0242135Y0116796D03*
X0238565Y0113056D03*
X0238565Y0112546D03*
X0238565Y0110846D03*
X0234825Y0113056D03*
X0231255Y0112546D03*
X0227515Y0112546D03*
X0227515Y0112206D03*
X0227515Y0111696D03*
X0227515Y0111356D03*
X0227515Y0110846D03*
X0227515Y0110506D03*
X0227515Y0109996D03*
X0227515Y0109656D03*
X0227515Y0109146D03*
X0223945Y0110846D03*
X0223945Y0112546D03*
X0223945Y0113056D03*
X0220205Y0113056D03*
X0216635Y0110846D03*
X0216635Y0110506D03*
X0216635Y0109996D03*
X0216635Y0109656D03*
X0216635Y0109146D03*
X0211875Y0109656D03*
X0201675Y0109656D03*
X0191475Y0109656D03*
X0176345Y0109656D03*
X0176345Y0109996D03*
X0176345Y0110506D03*
X0176345Y0110846D03*
X0176345Y0112546D03*
X0176345Y0113056D03*
X0176345Y0113396D03*
X0176345Y0113906D03*
X0176345Y0114246D03*
X0173115Y0112206D03*
X0173115Y0111696D03*
X0172945Y0110846D03*
X0171755Y0109146D03*
X0169035Y0109146D03*
X0169035Y0108806D03*
X0169035Y0108296D03*
X0169035Y0107956D03*
X0169035Y0107446D03*
X0169035Y0107106D03*
X0176345Y0109146D03*
X0169035Y0111356D03*
X0169035Y0111696D03*
X0169035Y0112206D03*
X0169035Y0112546D03*
X0164615Y0112546D03*
X0164615Y0112206D03*
X0164615Y0111696D03*
X0164615Y0111356D03*
X0164615Y0110846D03*
X0164615Y0113056D03*
X0164615Y0114756D03*
X0164615Y0115096D03*
X0164615Y0115606D03*
X0159855Y0115606D03*
X0159855Y0115096D03*
X0159855Y0114756D03*
X0159855Y0113056D03*
X0159855Y0112546D03*
X0159855Y0112206D03*
X0159855Y0111696D03*
X0159855Y0111356D03*
X0159855Y0110846D03*
X0155945Y0112546D03*
X0152205Y0112546D03*
X0152205Y0112206D03*
X0152205Y0111696D03*
X0152205Y0111356D03*
X0152205Y0110846D03*
X0152205Y0110506D03*
X0152205Y0109996D03*
X0152205Y0109656D03*
X0152205Y0109146D03*
X0152205Y0114246D03*
X0152205Y0114756D03*
X0152205Y0115096D03*
X0152205Y0115606D03*
X0152205Y0115946D03*
X0152205Y0116456D03*
X0152205Y0116796D03*
X0306565Y0114756D03*
D64*
X0273075Y0114246D03*
X0254715Y0107106D03*
X0247575Y0114246D03*
X0385713Y0125716D03*
X0407473Y0130816D03*
X0403223Y0134216D03*
X0425323Y0124866D03*
X0441643Y0124866D03*
X0443173Y0131326D03*
X0443173Y0131666D03*
X0443173Y0132176D03*
X0443173Y0132516D03*
D65*
X0440623Y0127756D03*
X0407303Y0131156D03*
X0430763Y0137106D03*
X0254715Y0107276D03*
D66*
X0254715Y0107446D03*
X0247575Y0113906D03*
X0273075Y0113906D03*
X0385373Y0125376D03*
D67*
X0385203Y0125206D03*
X0441643Y0115346D03*
X0306565Y0113736D03*
X0306565Y0109826D03*
X0273075Y0113736D03*
X0254715Y0107616D03*
X0247575Y0113736D03*
D68*
X0247575Y0113566D03*
X0247575Y0110336D03*
X0247575Y0110166D03*
X0255055Y0110166D03*
X0254715Y0107786D03*
X0265765Y0113566D03*
X0273075Y0113566D03*
X0273075Y0110336D03*
X0273075Y0110166D03*
X0236695Y0113566D03*
X0236695Y0113736D03*
X0222075Y0113736D03*
X0222075Y0113566D03*
X0153905Y0114076D03*
X0442493Y0119596D03*
D69*
X0440538Y0128266D03*
X0384948Y0124866D03*
X0265850Y0113396D03*
X0254970Y0113906D03*
X0254800Y0107956D03*
X0170820Y0109996D03*
X0153990Y0113906D03*
D70*
X0153990Y0113736D03*
X0153990Y0113566D03*
X0170820Y0113566D03*
X0170820Y0113736D03*
X0170820Y0109826D03*
X0229300Y0113566D03*
X0229300Y0113736D03*
X0254970Y0113736D03*
X0254970Y0110336D03*
X0254800Y0108126D03*
X0265850Y0110166D03*
X0384948Y0126906D03*
D71*
X0399568Y0127926D03*
X0408408Y0127926D03*
X0409938Y0124016D03*
X0410108Y0123676D03*
X0410278Y0123166D03*
X0398718Y0121466D03*
X0398718Y0121126D03*
X0398888Y0120276D03*
X0398888Y0119766D03*
X0398888Y0119426D03*
X0398548Y0117726D03*
X0412998Y0115516D03*
X0422178Y0118066D03*
X0422348Y0117726D03*
X0421838Y0120616D03*
X0422008Y0121466D03*
X0422178Y0121976D03*
X0428468Y0122316D03*
X0428298Y0117216D03*
X0438838Y0116876D03*
X0444448Y0116876D03*
X0444108Y0123166D03*
X0444108Y0129966D03*
X0437818Y0129626D03*
X0433908Y0129966D03*
X0427618Y0129966D03*
X0427618Y0134726D03*
X0433738Y0135066D03*
X0433908Y0134726D03*
X0437818Y0135066D03*
X0405858Y0131666D03*
X0405518Y0132176D03*
X0405348Y0132516D03*
X0405008Y0133026D03*
X0404838Y0133366D03*
X0402288Y0137276D03*
X0395998Y0137276D03*
X0300360Y0112546D03*
X0312090Y0110506D03*
X0271120Y0110846D03*
X0263810Y0110846D03*
X0263980Y0113056D03*
X0252930Y0113056D03*
X0253100Y0110846D03*
X0253100Y0108296D03*
X0256500Y0108296D03*
X0245620Y0110846D03*
X0234570Y0110506D03*
X0236780Y0114756D03*
X0222160Y0114756D03*
X0219950Y0110506D03*
X0209750Y0113906D03*
X0209750Y0114246D03*
X0199550Y0114246D03*
X0199550Y0113906D03*
X0189350Y0113906D03*
X0189350Y0114246D03*
X0187310Y0109656D03*
X0197510Y0109656D03*
X0207710Y0109656D03*
X0172860Y0113056D03*
X0169120Y0110846D03*
X0164700Y0110506D03*
X0159940Y0110506D03*
X0374578Y0105826D03*
X0388178Y0107866D03*
X0424218Y0107866D03*
X0431698Y0106166D03*
X0424218Y0103616D03*
X0444108Y0105826D03*
X0447508Y0107866D03*
D72*
X0447508Y0107696D03*
X0444108Y0105996D03*
X0444108Y0105656D03*
X0444108Y0105486D03*
X0437138Y0108036D03*
X0419968Y0105146D03*
X0425408Y0114836D03*
X0422518Y0117386D03*
X0422518Y0117556D03*
X0421838Y0120446D03*
X0422008Y0121636D03*
X0422008Y0121806D03*
X0422178Y0122146D03*
X0422348Y0122486D03*
X0428298Y0122486D03*
X0428468Y0122146D03*
X0438838Y0121806D03*
X0443938Y0123336D03*
X0444618Y0118406D03*
X0444618Y0118236D03*
X0439008Y0116706D03*
X0428468Y0117386D03*
X0428468Y0117556D03*
X0415888Y0123846D03*
X0416058Y0124186D03*
X0416058Y0124356D03*
X0410448Y0122656D03*
X0410618Y0122146D03*
X0409938Y0124186D03*
X0409938Y0124356D03*
X0408408Y0127756D03*
X0405688Y0132006D03*
X0404668Y0133536D03*
X0395998Y0137106D03*
X0427448Y0134386D03*
X0427788Y0134896D03*
X0433908Y0134896D03*
X0434078Y0134556D03*
X0437988Y0135236D03*
X0440878Y0137446D03*
X0443428Y0135406D03*
X0443598Y0135236D03*
X0437478Y0130136D03*
X0437648Y0129796D03*
X0434078Y0130136D03*
X0434078Y0130306D03*
X0430848Y0127246D03*
X0427448Y0130306D03*
X0398548Y0121806D03*
X0398548Y0121636D03*
X0398718Y0121296D03*
X0398378Y0122146D03*
X0398888Y0120106D03*
X0398888Y0119936D03*
X0398888Y0119596D03*
X0398718Y0118406D03*
X0398718Y0118236D03*
X0398548Y0117896D03*
X0398378Y0117556D03*
X0412998Y0115346D03*
X0374578Y0105996D03*
X0374578Y0105656D03*
X0374578Y0105486D03*
X0381888Y0103446D03*
X0308350Y0111016D03*
X0308010Y0113566D03*
X0304780Y0110336D03*
X0304950Y0110166D03*
X0300360Y0112716D03*
X0282170Y0112716D03*
X0278600Y0112886D03*
X0271120Y0112886D03*
X0267550Y0113226D03*
X0263810Y0112886D03*
X0256670Y0112886D03*
X0256670Y0111186D03*
X0256670Y0111016D03*
X0256670Y0108466D03*
X0252930Y0111016D03*
X0245620Y0112886D03*
X0238480Y0113226D03*
X0238480Y0110676D03*
X0234740Y0111186D03*
X0227600Y0112716D03*
X0227600Y0112886D03*
X0223860Y0113226D03*
X0223860Y0110676D03*
X0220120Y0111186D03*
X0209750Y0114076D03*
X0199550Y0114076D03*
X0189350Y0114076D03*
X0187310Y0109826D03*
X0197510Y0109826D03*
X0207710Y0109826D03*
X0172860Y0110676D03*
X0172690Y0113226D03*
X0169120Y0112886D03*
X0169120Y0112716D03*
X0169120Y0111016D03*
X0152290Y0112716D03*
X0152290Y0112886D03*
D73*
X0178810Y0109146D03*
X0179150Y0110846D03*
X0179490Y0112206D03*
X0179660Y0113056D03*
X0180000Y0114246D03*
X0180340Y0115606D03*
X0180340Y0115946D03*
X0180510Y0116456D03*
X0183400Y0115946D03*
X0183400Y0115606D03*
X0183060Y0114246D03*
X0182890Y0113906D03*
X0182550Y0112206D03*
X0182210Y0110846D03*
X0182040Y0109996D03*
X0252250Y0108806D03*
X0288290Y0109146D03*
X0288460Y0109996D03*
X0288800Y0111356D03*
X0288800Y0111696D03*
X0289140Y0113056D03*
X0289310Y0113906D03*
X0289650Y0115096D03*
X0289990Y0116456D03*
X0366928Y0107866D03*
X0367608Y0106166D03*
X0368118Y0104466D03*
X0377468Y0105316D03*
X0379678Y0104126D03*
X0399228Y0103616D03*
X0405518Y0103616D03*
X0405858Y0104466D03*
X0427278Y0104126D03*
X0429318Y0105316D03*
X0433228Y0104466D03*
X0438668Y0105316D03*
X0448528Y0107016D03*
D74*
X0428978Y0105486D03*
X0424218Y0103446D03*
X0415548Y0105486D03*
X0407048Y0106846D03*
X0399228Y0104806D03*
X0399228Y0104636D03*
X0366928Y0106846D03*
X0312940Y0108976D03*
X0302570Y0114586D03*
X0213150Y0112376D03*
X0212980Y0112036D03*
X0212980Y0111866D03*
X0212810Y0111526D03*
X0210940Y0111526D03*
X0210770Y0111866D03*
X0210770Y0112036D03*
X0208730Y0112036D03*
X0208730Y0111866D03*
X0208560Y0111526D03*
X0206690Y0111526D03*
X0206520Y0111866D03*
X0206520Y0112036D03*
X0202950Y0112376D03*
X0202780Y0112036D03*
X0202780Y0111866D03*
X0202610Y0111526D03*
X0200740Y0111526D03*
X0200570Y0111866D03*
X0200570Y0112036D03*
X0198530Y0112036D03*
X0198530Y0111866D03*
X0198360Y0111526D03*
X0196490Y0111526D03*
X0196320Y0111866D03*
X0196320Y0112036D03*
X0192750Y0112376D03*
X0192580Y0112036D03*
X0192580Y0111866D03*
X0192410Y0111526D03*
X0190540Y0111526D03*
X0190370Y0111866D03*
X0190370Y0112036D03*
X0188330Y0112036D03*
X0188330Y0111866D03*
X0188160Y0111526D03*
X0186290Y0111526D03*
X0186120Y0111866D03*
X0186120Y0112036D03*
X0165550Y0108976D03*
X0160790Y0108976D03*
X0444448Y0127586D03*
X0444448Y0127756D03*
X0444448Y0128096D03*
D75*
X0378403Y0107696D03*
X0367013Y0107696D03*
X0396933Y0103956D03*
X0396933Y0103786D03*
X0398123Y0106506D03*
X0413933Y0107356D03*
X0425153Y0107356D03*
X0427363Y0107356D03*
X0432973Y0107356D03*
X0312515Y0116286D03*
X0289905Y0116116D03*
X0289735Y0115436D03*
X0289395Y0114076D03*
X0288885Y0111866D03*
X0288715Y0111186D03*
X0288205Y0108976D03*
X0254035Y0109316D03*
X0183655Y0116966D03*
X0183485Y0116116D03*
X0183315Y0115436D03*
X0182805Y0113226D03*
X0182465Y0111866D03*
X0182295Y0111186D03*
X0181955Y0109826D03*
X0181785Y0108976D03*
X0178895Y0109826D03*
X0179235Y0111186D03*
X0179405Y0111866D03*
X0179745Y0113226D03*
X0179915Y0114076D03*
X0180255Y0115436D03*
X0180595Y0116966D03*
X0160365Y0116286D03*
X0171755Y0108976D03*
D76*
X0178725Y0108976D03*
X0182975Y0114076D03*
X0180425Y0116116D03*
X0165125Y0116286D03*
X0288375Y0109826D03*
X0289225Y0113226D03*
X0290075Y0116966D03*
X0399143Y0103956D03*
D77*
X0398123Y0105996D03*
X0396933Y0104636D03*
X0413933Y0106336D03*
X0414783Y0103446D03*
X0427363Y0106336D03*
X0428213Y0103446D03*
X0432123Y0103446D03*
X0431103Y0106336D03*
X0388093Y0108036D03*
X0378403Y0107186D03*
X0378403Y0106846D03*
X0367013Y0107186D03*
X0235505Y0108976D03*
X0220885Y0108976D03*
D78*
X0224115Y0109826D03*
X0238735Y0109826D03*
X0247575Y0108976D03*
X0273075Y0108976D03*
X0308435Y0110336D03*
X0388093Y0103446D03*
X0432803Y0105486D03*
X0412233Y0131496D03*
X0412403Y0131836D03*
X0412403Y0132006D03*
X0412743Y0132856D03*
X0413083Y0134046D03*
X0413253Y0134386D03*
X0413253Y0134556D03*
X0415633Y0134556D03*
X0415803Y0134046D03*
X0394893Y0134556D03*
X0394553Y0133536D03*
X0213575Y0113736D03*
X0213235Y0112886D03*
X0213235Y0112716D03*
X0206435Y0112376D03*
X0206265Y0112716D03*
X0206265Y0112886D03*
X0203375Y0113736D03*
X0203035Y0112886D03*
X0203035Y0112716D03*
X0196235Y0112376D03*
X0196065Y0112716D03*
X0196065Y0112886D03*
X0193175Y0113736D03*
X0192835Y0112886D03*
X0192835Y0112716D03*
X0186035Y0112376D03*
X0185865Y0112716D03*
X0185865Y0112886D03*
D79*
X0189350Y0114416D03*
X0189350Y0114586D03*
X0199550Y0114586D03*
X0199550Y0114416D03*
X0209750Y0114416D03*
X0209750Y0114586D03*
X0219950Y0111016D03*
X0219950Y0110676D03*
X0224200Y0109486D03*
X0224200Y0109316D03*
X0238650Y0111186D03*
X0238650Y0111526D03*
X0238650Y0112716D03*
X0238650Y0112886D03*
X0245450Y0112376D03*
X0245450Y0111526D03*
X0249700Y0111186D03*
X0249700Y0112376D03*
X0253950Y0109486D03*
X0265850Y0108976D03*
X0270950Y0111526D03*
X0270950Y0112376D03*
X0275200Y0112376D03*
X0275200Y0111186D03*
X0302400Y0114076D03*
X0304950Y0113566D03*
X0394468Y0133196D03*
X0397868Y0132856D03*
X0397868Y0132686D03*
X0415718Y0134386D03*
X0416568Y0132006D03*
X0416568Y0131836D03*
X0434418Y0131496D03*
X0434418Y0133196D03*
X0434418Y0133536D03*
X0436968Y0132856D03*
X0436968Y0132686D03*
X0436968Y0132346D03*
X0436968Y0132006D03*
X0436968Y0131836D03*
X0409768Y0125036D03*
X0411468Y0119596D03*
X0431018Y0119256D03*
X0431018Y0119086D03*
X0431018Y0118746D03*
X0431018Y0118406D03*
X0431018Y0118236D03*
X0431018Y0117896D03*
X0431018Y0117556D03*
X0431018Y0117386D03*
X0431018Y0117046D03*
X0431018Y0121296D03*
X0431018Y0121636D03*
X0431018Y0121806D03*
X0431018Y0122146D03*
X0431018Y0122486D03*
X0431018Y0122656D03*
X0431018Y0122996D03*
X0438668Y0122656D03*
X0438668Y0122486D03*
X0168950Y0114586D03*
X0168950Y0114416D03*
X0168950Y0114076D03*
X0164700Y0115776D03*
D80*
X0173030Y0112546D03*
X0173030Y0111356D03*
X0156030Y0111356D03*
X0156030Y0111696D03*
X0156030Y0112206D03*
X0156030Y0110846D03*
X0156030Y0110506D03*
X0156030Y0109996D03*
X0156030Y0109656D03*
X0156030Y0109146D03*
X0185440Y0114246D03*
X0193260Y0114246D03*
X0195640Y0114246D03*
X0203460Y0114246D03*
X0205840Y0114246D03*
X0213660Y0114246D03*
X0224030Y0111356D03*
X0227430Y0113906D03*
X0227430Y0114246D03*
X0231340Y0112206D03*
X0231340Y0111696D03*
X0231340Y0111356D03*
X0231340Y0110846D03*
X0231340Y0110506D03*
X0231340Y0109996D03*
X0231340Y0109656D03*
X0231340Y0109146D03*
X0234570Y0110846D03*
X0252760Y0111696D03*
X0252760Y0112546D03*
X0256840Y0114246D03*
X0263640Y0112206D03*
X0263640Y0111356D03*
X0267890Y0110846D03*
X0278430Y0114246D03*
X0282170Y0112206D03*
X0282170Y0111696D03*
X0282170Y0111356D03*
X0282170Y0110846D03*
X0282170Y0110506D03*
X0282170Y0109996D03*
X0282170Y0109656D03*
X0282170Y0109146D03*
X0285910Y0109146D03*
X0285910Y0109656D03*
X0285910Y0109996D03*
X0285910Y0110506D03*
X0285910Y0110846D03*
X0285910Y0111356D03*
X0285910Y0111696D03*
X0285910Y0112206D03*
X0285910Y0112546D03*
X0300190Y0114246D03*
X0304780Y0113396D03*
X0308180Y0113396D03*
X0308520Y0110846D03*
X0308520Y0110506D03*
X0392598Y0127416D03*
X0393108Y0129116D03*
X0393958Y0131666D03*
X0394128Y0132176D03*
X0394638Y0133876D03*
X0394808Y0134216D03*
X0397358Y0134216D03*
X0397358Y0133876D03*
X0397528Y0133366D03*
X0397698Y0133026D03*
X0398038Y0132176D03*
X0398208Y0131666D03*
X0412488Y0132176D03*
X0413338Y0134726D03*
X0415548Y0134726D03*
X0415888Y0133876D03*
X0416058Y0133366D03*
X0416228Y0133026D03*
X0416398Y0132516D03*
X0416738Y0131326D03*
X0420648Y0131326D03*
X0420648Y0131666D03*
X0420648Y0132176D03*
X0420648Y0132516D03*
X0420648Y0133026D03*
X0420648Y0133366D03*
X0420648Y0133876D03*
X0420648Y0134216D03*
X0420648Y0134726D03*
X0420648Y0135066D03*
X0420648Y0135576D03*
X0420648Y0135916D03*
X0420648Y0136426D03*
X0420648Y0136766D03*
X0420648Y0137276D03*
X0427278Y0133876D03*
X0427108Y0133026D03*
X0427108Y0131666D03*
X0427108Y0131326D03*
X0420648Y0130816D03*
X0420648Y0130476D03*
X0420648Y0129966D03*
X0420648Y0129626D03*
X0411298Y0128266D03*
X0408578Y0127416D03*
X0415038Y0121126D03*
X0414528Y0119426D03*
X0414358Y0118916D03*
X0414188Y0118576D03*
X0411808Y0118576D03*
X0411638Y0118916D03*
X0412998Y0115176D03*
X0438498Y0117726D03*
X0438498Y0118066D03*
X0444448Y0122316D03*
X0444278Y0122826D03*
X0444278Y0130476D03*
X0437138Y0131326D03*
X0437138Y0133366D03*
X0443938Y0134726D03*
X0207710Y0109146D03*
X0197510Y0109146D03*
X0187310Y0109146D03*
D81*
X0189350Y0113396D03*
X0199550Y0113396D03*
X0209750Y0113396D03*
X0220460Y0111356D03*
X0223690Y0110506D03*
X0238310Y0110506D03*
X0256500Y0110846D03*
X0312940Y0109146D03*
X0382058Y0107866D03*
X0414868Y0105826D03*
X0437308Y0107866D03*
X0441218Y0103616D03*
X0439008Y0121466D03*
X0422518Y0122826D03*
X0438328Y0129116D03*
X0438328Y0135576D03*
X0443258Y0135576D03*
X0402458Y0136766D03*
X0169290Y0110506D03*
X0165550Y0109146D03*
X0160790Y0109146D03*
X0152460Y0113056D03*
D82*
X0178980Y0109996D03*
X0179320Y0111356D03*
X0179320Y0111696D03*
X0179830Y0113906D03*
X0180170Y0115096D03*
X0183230Y0115096D03*
X0183570Y0116456D03*
X0182720Y0113056D03*
X0182380Y0111696D03*
X0182380Y0111356D03*
X0181870Y0109146D03*
X0288630Y0110846D03*
X0288970Y0112206D03*
X0289480Y0114246D03*
X0289820Y0115606D03*
X0289820Y0115946D03*
X0302570Y0114756D03*
X0378488Y0107866D03*
X0379848Y0103616D03*
X0396848Y0103616D03*
X0413848Y0104126D03*
X0415888Y0105316D03*
X0421498Y0106676D03*
X0429488Y0104976D03*
X0430848Y0104466D03*
X0438838Y0104466D03*
X0407048Y0107866D03*
X0430848Y0137616D03*
D83*
X0413083Y0133876D03*
X0412743Y0133026D03*
X0412233Y0131326D03*
X0397103Y0134726D03*
X0394893Y0134726D03*
X0394383Y0133026D03*
X0238735Y0109656D03*
X0224285Y0109146D03*
X0224115Y0109656D03*
X0213065Y0112206D03*
X0213235Y0112546D03*
X0213575Y0113906D03*
X0206265Y0113056D03*
X0205925Y0113906D03*
X0203375Y0113906D03*
X0203035Y0112546D03*
X0202865Y0112206D03*
X0201675Y0109146D03*
X0192665Y0112206D03*
X0192835Y0112546D03*
X0193175Y0113906D03*
X0195725Y0113906D03*
X0196065Y0113056D03*
X0185865Y0113056D03*
X0185525Y0113906D03*
X0191475Y0109146D03*
X0211875Y0109146D03*
D84*
X0211875Y0109996D03*
X0207625Y0109996D03*
X0201675Y0109996D03*
X0197425Y0109996D03*
X0191475Y0109996D03*
X0187225Y0109996D03*
X0172775Y0110506D03*
X0169205Y0113056D03*
X0155775Y0113056D03*
X0220885Y0109146D03*
X0231085Y0113056D03*
X0235505Y0109146D03*
X0245875Y0110506D03*
X0249275Y0110506D03*
X0254035Y0109656D03*
X0264065Y0110506D03*
X0267635Y0110506D03*
X0271375Y0110506D03*
X0274775Y0110506D03*
X0278685Y0113056D03*
X0285655Y0113056D03*
X0256585Y0113056D03*
X0388093Y0103616D03*
X0414443Y0106166D03*
X0420053Y0107866D03*
X0427873Y0106166D03*
X0428043Y0116876D03*
X0422943Y0116876D03*
X0422603Y0117216D03*
X0422263Y0122316D03*
X0428043Y0122826D03*
X0444533Y0118576D03*
X0433653Y0129626D03*
X0427873Y0129626D03*
X0427873Y0135066D03*
X0414443Y0136766D03*
X0398293Y0122316D03*
X0398463Y0121976D03*
X0398123Y0117216D03*
D85*
X0444363Y0130816D03*
X0415463Y0135066D03*
X0413423Y0135066D03*
X0412913Y0133366D03*
X0412573Y0132516D03*
X0394213Y0132516D03*
X0304695Y0113056D03*
X0238905Y0109146D03*
X0213405Y0113056D03*
X0213405Y0113396D03*
X0206095Y0113396D03*
X0203205Y0113396D03*
X0203205Y0113056D03*
X0195895Y0113396D03*
X0193005Y0113396D03*
X0193005Y0113056D03*
X0185695Y0113396D03*
D86*
X0187225Y0110506D03*
X0191475Y0110506D03*
X0197425Y0110506D03*
X0201675Y0110506D03*
X0207625Y0110506D03*
X0211875Y0110506D03*
X0247575Y0109146D03*
X0273075Y0109146D03*
X0382143Y0103616D03*
X0437393Y0103616D03*
X0437393Y0105826D03*
X0414443Y0136426D03*
X0402543Y0136426D03*
D87*
X0402713Y0135916D03*
X0407983Y0129116D03*
X0414443Y0135916D03*
X0440623Y0127416D03*
X0444023Y0118916D03*
X0397443Y0123166D03*
X0312685Y0109996D03*
X0293305Y0115606D03*
X0265765Y0109146D03*
X0211875Y0110846D03*
X0201675Y0110846D03*
X0191475Y0110846D03*
X0165295Y0109996D03*
X0160535Y0109996D03*
D88*
X0189350Y0112546D03*
X0199550Y0112546D03*
X0209750Y0112546D03*
X0293390Y0115946D03*
X0306480Y0109146D03*
X0371008Y0105826D03*
X0402968Y0105826D03*
X0412998Y0116876D03*
X0439688Y0116366D03*
X0443598Y0116366D03*
X0443598Y0129116D03*
X0402798Y0135576D03*
X0395998Y0135916D03*
D89*
X0397188Y0134556D03*
X0397188Y0134386D03*
X0397358Y0134046D03*
X0397528Y0133706D03*
X0397528Y0133536D03*
X0397698Y0133196D03*
X0398038Y0132346D03*
X0398038Y0132006D03*
X0398208Y0131836D03*
X0394298Y0132686D03*
X0394298Y0132856D03*
X0394128Y0132346D03*
X0394128Y0132006D03*
X0393958Y0131836D03*
X0393958Y0131496D03*
X0393788Y0131156D03*
X0393278Y0129456D03*
X0393108Y0128946D03*
X0392938Y0128436D03*
X0394638Y0133706D03*
X0394808Y0134386D03*
X0411638Y0129456D03*
X0411638Y0129286D03*
X0411128Y0127756D03*
X0412148Y0131156D03*
X0412658Y0132686D03*
X0412828Y0133196D03*
X0412998Y0133706D03*
X0415888Y0133706D03*
X0416058Y0133196D03*
X0416228Y0132856D03*
X0416228Y0132686D03*
X0416398Y0132346D03*
X0416738Y0131496D03*
X0420648Y0131496D03*
X0420648Y0131156D03*
X0420648Y0130986D03*
X0420648Y0130646D03*
X0420648Y0130306D03*
X0420648Y0130136D03*
X0420648Y0129796D03*
X0420648Y0129456D03*
X0420648Y0129286D03*
X0420648Y0131836D03*
X0420648Y0132006D03*
X0420648Y0132346D03*
X0420648Y0132686D03*
X0420648Y0132856D03*
X0420648Y0133196D03*
X0420648Y0133536D03*
X0420648Y0133706D03*
X0420648Y0134046D03*
X0420648Y0134386D03*
X0420648Y0134556D03*
X0420648Y0134896D03*
X0420648Y0135236D03*
X0420648Y0135406D03*
X0420648Y0135746D03*
X0420648Y0136086D03*
X0420648Y0136256D03*
X0420648Y0136596D03*
X0420648Y0136936D03*
X0420648Y0137106D03*
X0420648Y0137446D03*
X0427108Y0133196D03*
X0427108Y0132856D03*
X0427108Y0131836D03*
X0427108Y0131496D03*
X0434248Y0134046D03*
X0437138Y0133536D03*
X0437138Y0133196D03*
X0437308Y0134046D03*
X0437138Y0131496D03*
X0437138Y0131156D03*
X0437138Y0130986D03*
X0437308Y0130646D03*
X0444278Y0130306D03*
X0443938Y0134556D03*
X0417758Y0128606D03*
X0416228Y0125036D03*
X0428638Y0121806D03*
X0438838Y0122996D03*
X0441728Y0125206D03*
X0444448Y0122486D03*
X0438498Y0117896D03*
X0415208Y0121636D03*
X0414698Y0120106D03*
X0414698Y0119936D03*
X0414528Y0119596D03*
X0414358Y0119086D03*
X0414188Y0118406D03*
X0414188Y0118236D03*
X0411808Y0118406D03*
X0411638Y0119086D03*
X0412998Y0115006D03*
X0419798Y0108036D03*
X0312090Y0115776D03*
X0302570Y0114416D03*
X0300190Y0114416D03*
X0300190Y0114586D03*
X0300190Y0114076D03*
X0293730Y0116966D03*
X0285910Y0112376D03*
X0285910Y0112036D03*
X0285910Y0111866D03*
X0285910Y0111526D03*
X0285910Y0111186D03*
X0285910Y0111016D03*
X0285910Y0110676D03*
X0285910Y0110336D03*
X0285910Y0110166D03*
X0285910Y0109826D03*
X0285910Y0109486D03*
X0285910Y0109316D03*
X0282170Y0109316D03*
X0282170Y0109486D03*
X0282170Y0109826D03*
X0282170Y0110166D03*
X0282170Y0110336D03*
X0282170Y0110676D03*
X0282170Y0111016D03*
X0282170Y0111186D03*
X0282170Y0111526D03*
X0282170Y0111866D03*
X0282170Y0112036D03*
X0278430Y0114076D03*
X0278430Y0114416D03*
X0278430Y0114586D03*
X0267890Y0112886D03*
X0263640Y0112376D03*
X0263640Y0111526D03*
X0256840Y0111866D03*
X0256840Y0112036D03*
X0256840Y0114076D03*
X0256840Y0114416D03*
X0256840Y0114586D03*
X0252760Y0111526D03*
X0238820Y0109486D03*
X0238820Y0109316D03*
X0234570Y0110676D03*
X0234570Y0111016D03*
X0234740Y0112886D03*
X0231340Y0112036D03*
X0231340Y0111866D03*
X0231340Y0111526D03*
X0231340Y0111186D03*
X0231340Y0111016D03*
X0231340Y0110676D03*
X0231340Y0110336D03*
X0231340Y0110166D03*
X0231340Y0109826D03*
X0231340Y0109486D03*
X0231340Y0109316D03*
X0224030Y0111186D03*
X0224030Y0111526D03*
X0224030Y0112716D03*
X0224030Y0112886D03*
X0227430Y0114076D03*
X0227430Y0114416D03*
X0227430Y0114586D03*
X0220120Y0112886D03*
X0213830Y0114416D03*
X0213830Y0114586D03*
X0213660Y0114076D03*
X0213490Y0113566D03*
X0206010Y0113736D03*
X0205840Y0114076D03*
X0205840Y0114416D03*
X0203630Y0114416D03*
X0203460Y0114076D03*
X0203290Y0113566D03*
X0195810Y0113736D03*
X0195640Y0114076D03*
X0195640Y0114416D03*
X0193430Y0114416D03*
X0193260Y0114076D03*
X0193090Y0113566D03*
X0185610Y0113736D03*
X0185440Y0114076D03*
X0185440Y0114416D03*
X0185270Y0114586D03*
X0187310Y0109316D03*
X0197510Y0109316D03*
X0207710Y0109316D03*
X0173030Y0111186D03*
X0173030Y0112376D03*
X0159940Y0115776D03*
X0156030Y0112036D03*
X0156030Y0111866D03*
X0156030Y0111526D03*
X0156030Y0111186D03*
X0156030Y0111016D03*
X0156030Y0110676D03*
X0156030Y0110336D03*
X0156030Y0110166D03*
X0156030Y0109826D03*
X0156030Y0109486D03*
X0156030Y0109316D03*
X0308520Y0110676D03*
D90*
X0305205Y0112716D03*
X0312855Y0109316D03*
X0374833Y0108036D03*
X0374833Y0107696D03*
X0374833Y0107356D03*
X0374833Y0103956D03*
X0374833Y0103786D03*
X0374833Y0103446D03*
X0378403Y0105146D03*
X0392173Y0107356D03*
X0392173Y0107696D03*
X0392173Y0108036D03*
X0413083Y0116196D03*
X0423113Y0116706D03*
X0427703Y0116536D03*
X0444023Y0116536D03*
X0444363Y0118746D03*
X0443683Y0123506D03*
X0439433Y0123506D03*
X0427703Y0123336D03*
X0408153Y0128606D03*
X0397783Y0122996D03*
X0443853Y0129456D03*
X0443003Y0135746D03*
X0430763Y0137446D03*
X0444363Y0108036D03*
X0444363Y0107696D03*
X0444363Y0107356D03*
X0444363Y0103956D03*
X0444363Y0103786D03*
X0444363Y0103446D03*
X0432123Y0103956D03*
X0428213Y0103956D03*
X0424133Y0103786D03*
X0420223Y0105486D03*
X0420223Y0105656D03*
X0414783Y0103956D03*
X0223605Y0112376D03*
X0209835Y0113226D03*
X0199635Y0113226D03*
X0189435Y0113226D03*
X0171755Y0109316D03*
X0165465Y0109316D03*
X0160705Y0109316D03*
D91*
X0178810Y0109316D03*
X0178810Y0109486D03*
X0179150Y0110676D03*
X0179150Y0111016D03*
X0179490Y0112036D03*
X0179490Y0112376D03*
X0179660Y0112716D03*
X0179660Y0112886D03*
X0180000Y0114416D03*
X0180000Y0114586D03*
X0180340Y0115776D03*
X0180510Y0116286D03*
X0180510Y0116626D03*
X0183400Y0115776D03*
X0183060Y0114586D03*
X0183060Y0114416D03*
X0182890Y0113736D03*
X0182890Y0113566D03*
X0182550Y0112376D03*
X0182550Y0112036D03*
X0182210Y0111016D03*
X0182210Y0110676D03*
X0182040Y0110336D03*
X0182040Y0110166D03*
X0235250Y0112716D03*
X0267550Y0111186D03*
X0288290Y0109486D03*
X0288290Y0109316D03*
X0288460Y0110166D03*
X0288460Y0110336D03*
X0288800Y0111526D03*
X0289140Y0112716D03*
X0289140Y0112886D03*
X0289310Y0113566D03*
X0289310Y0113736D03*
X0289650Y0114926D03*
X0289650Y0115266D03*
X0289990Y0116286D03*
X0289990Y0116626D03*
X0365568Y0103786D03*
X0376958Y0103786D03*
X0377128Y0104296D03*
X0386818Y0104636D03*
X0386818Y0106846D03*
X0389368Y0107186D03*
X0389368Y0104296D03*
X0399228Y0103786D03*
X0399228Y0103446D03*
X0405518Y0103446D03*
X0408408Y0103786D03*
X0407558Y0106506D03*
X0413678Y0106506D03*
X0413678Y0107186D03*
X0413678Y0104296D03*
X0416058Y0104636D03*
X0416058Y0105146D03*
X0421328Y0105996D03*
X0421328Y0107186D03*
X0423028Y0107186D03*
X0425408Y0107186D03*
X0427108Y0107186D03*
X0427108Y0106506D03*
X0427108Y0104296D03*
X0425408Y0104296D03*
X0423028Y0104296D03*
X0429318Y0104296D03*
X0429318Y0107186D03*
X0433228Y0104296D03*
X0438668Y0107186D03*
X0448528Y0107186D03*
X0400418Y0107696D03*
D92*
X0398038Y0106846D03*
X0396848Y0103446D03*
X0386988Y0104296D03*
X0386988Y0107186D03*
X0379848Y0103446D03*
X0368288Y0103956D03*
X0365738Y0104296D03*
X0407048Y0107696D03*
X0407048Y0108036D03*
X0415888Y0107186D03*
X0415888Y0104296D03*
X0421498Y0106336D03*
X0429488Y0105146D03*
X0429488Y0104636D03*
X0430848Y0106506D03*
X0438838Y0105146D03*
X0438838Y0104296D03*
X0408238Y0104296D03*
X0305120Y0110676D03*
X0289480Y0114416D03*
X0289480Y0114586D03*
X0289820Y0115776D03*
X0288970Y0112376D03*
X0288970Y0112036D03*
X0288630Y0111016D03*
X0288630Y0110676D03*
X0267380Y0112716D03*
X0220630Y0112716D03*
X0183570Y0116286D03*
X0183570Y0116626D03*
X0183230Y0115266D03*
X0183230Y0114926D03*
X0182720Y0112886D03*
X0182720Y0112716D03*
X0182380Y0111526D03*
X0181870Y0109486D03*
X0181870Y0109316D03*
X0178980Y0110166D03*
X0178980Y0110336D03*
X0179320Y0111526D03*
X0179830Y0113566D03*
X0179830Y0113736D03*
X0180170Y0114926D03*
X0180170Y0115266D03*
D93*
X0189350Y0112886D03*
X0187310Y0110676D03*
X0197510Y0110676D03*
X0199550Y0112886D03*
X0207710Y0110676D03*
X0209750Y0112886D03*
X0220970Y0109316D03*
X0235590Y0109316D03*
X0253950Y0109826D03*
X0308010Y0111186D03*
X0312770Y0109486D03*
X0366928Y0104806D03*
X0366928Y0104636D03*
X0378318Y0104806D03*
X0382228Y0103956D03*
X0382228Y0103786D03*
X0388178Y0103956D03*
X0407048Y0104636D03*
X0407048Y0104806D03*
X0410108Y0107356D03*
X0410108Y0107696D03*
X0410108Y0108036D03*
X0420308Y0107356D03*
X0424218Y0103956D03*
X0437478Y0103786D03*
X0437478Y0105656D03*
X0437478Y0105996D03*
X0437478Y0107696D03*
X0423368Y0116536D03*
X0412998Y0116536D03*
X0427448Y0123506D03*
X0408068Y0128946D03*
X0402628Y0136086D03*
X0402628Y0136256D03*
X0395998Y0136256D03*
X0395998Y0136086D03*
X0438668Y0135746D03*
X0443768Y0129286D03*
X0165380Y0109486D03*
X0160620Y0109486D03*
D94*
X0265765Y0109316D03*
X0265765Y0114416D03*
X0292795Y0114416D03*
X0292795Y0114586D03*
X0292795Y0114076D03*
X0292795Y0113736D03*
X0292795Y0113566D03*
X0292795Y0113226D03*
X0301125Y0113226D03*
X0301125Y0113566D03*
X0306565Y0114416D03*
X0403053Y0134896D03*
X0407643Y0130306D03*
X0407643Y0130136D03*
X0414443Y0135236D03*
X0440623Y0127586D03*
X0441643Y0115006D03*
D95*
X0443598Y0119086D03*
X0412998Y0117896D03*
X0385798Y0125886D03*
X0395998Y0134896D03*
X0403138Y0134556D03*
X0312260Y0114586D03*
X0312260Y0114416D03*
X0312260Y0114076D03*
X0312260Y0113736D03*
X0312260Y0113566D03*
X0312260Y0113226D03*
X0301210Y0113736D03*
X0306480Y0109316D03*
X0235590Y0109826D03*
X0220970Y0109826D03*
X0204650Y0114586D03*
X0194450Y0114586D03*
X0164870Y0114586D03*
X0164870Y0114416D03*
X0164870Y0114076D03*
X0164870Y0113736D03*
X0164870Y0113566D03*
X0164870Y0113226D03*
X0160110Y0113226D03*
X0160110Y0113566D03*
X0160110Y0113736D03*
X0160110Y0114076D03*
X0160110Y0114416D03*
X0160110Y0114586D03*
D96*
X0170650Y0109486D03*
X0265850Y0113736D03*
X0385118Y0125036D03*
X0385118Y0126736D03*
D97*
X0395998Y0135746D03*
X0402798Y0135746D03*
X0407898Y0129456D03*
X0414528Y0135746D03*
X0428638Y0135746D03*
X0441728Y0125036D03*
X0412998Y0117046D03*
X0412998Y0116706D03*
X0397528Y0116706D03*
X0425408Y0115006D03*
X0402968Y0105996D03*
X0402968Y0105656D03*
X0402968Y0105486D03*
X0371008Y0105486D03*
X0371008Y0105656D03*
X0371008Y0105996D03*
X0306480Y0114586D03*
X0293390Y0115776D03*
X0293390Y0116116D03*
X0281320Y0114076D03*
X0253950Y0114076D03*
X0235590Y0109486D03*
X0230320Y0114076D03*
X0211960Y0111186D03*
X0209750Y0112376D03*
X0207710Y0111186D03*
X0201760Y0111186D03*
X0199550Y0112376D03*
X0197510Y0111186D03*
X0191560Y0111186D03*
X0189350Y0112376D03*
X0187310Y0111186D03*
X0220970Y0109486D03*
D98*
X0247575Y0109486D03*
X0273075Y0109486D03*
X0385713Y0126056D03*
X0407473Y0130646D03*
X0403223Y0134386D03*
X0440793Y0137106D03*
X0443173Y0132686D03*
X0443173Y0132346D03*
X0443173Y0132006D03*
X0443173Y0131836D03*
X0443173Y0131496D03*
X0443173Y0131156D03*
D99*
X0403308Y0134046D03*
X0307160Y0111526D03*
X0306140Y0112376D03*
X0265850Y0109486D03*
X0237460Y0112036D03*
X0222840Y0112036D03*
X0222160Y0114416D03*
D100*
X0265850Y0114076D03*
X0306480Y0114076D03*
X0306480Y0109486D03*
X0367608Y0117896D03*
X0367608Y0118236D03*
X0367608Y0118406D03*
X0367608Y0118746D03*
X0367608Y0119086D03*
X0367608Y0119256D03*
X0367608Y0119596D03*
X0367608Y0119936D03*
X0367608Y0120106D03*
X0367608Y0120446D03*
X0367608Y0120786D03*
X0367608Y0120956D03*
X0367608Y0121296D03*
X0367608Y0121636D03*
X0367608Y0121806D03*
X0367608Y0122146D03*
X0367608Y0122486D03*
X0367608Y0122656D03*
X0367608Y0122996D03*
X0367608Y0123336D03*
X0367608Y0123506D03*
X0367608Y0123846D03*
X0367608Y0124186D03*
X0367608Y0124356D03*
X0367608Y0124696D03*
X0367608Y0125036D03*
X0367608Y0125206D03*
X0367608Y0125546D03*
X0367608Y0125886D03*
X0367608Y0126056D03*
X0367608Y0126396D03*
X0367608Y0126736D03*
X0367608Y0126906D03*
X0367608Y0127246D03*
X0367608Y0127586D03*
X0367608Y0127756D03*
X0367608Y0128096D03*
X0367608Y0128436D03*
X0367608Y0128606D03*
X0367608Y0128946D03*
X0367608Y0129286D03*
X0367608Y0129456D03*
X0367608Y0129796D03*
X0367608Y0130136D03*
X0367608Y0130306D03*
X0367608Y0130646D03*
X0367608Y0130986D03*
X0367608Y0131156D03*
X0367608Y0131496D03*
X0367608Y0131836D03*
X0367608Y0132006D03*
X0367608Y0132346D03*
X0367608Y0132686D03*
X0367608Y0132856D03*
X0367608Y0133196D03*
X0367608Y0133536D03*
X0393788Y0115006D03*
X0440198Y0120956D03*
X0443258Y0119256D03*
D101*
X0437478Y0107526D03*
X0424218Y0107526D03*
X0410108Y0107526D03*
X0410108Y0107866D03*
X0388178Y0107526D03*
X0382228Y0107526D03*
X0412998Y0116366D03*
X0408068Y0128776D03*
X0433228Y0129116D03*
X0433228Y0135576D03*
X0395998Y0136426D03*
X0293560Y0116456D03*
X0285060Y0114246D03*
X0281320Y0114246D03*
X0253950Y0114246D03*
X0230320Y0114246D03*
X0209750Y0113056D03*
X0207710Y0110846D03*
X0199550Y0113056D03*
X0197510Y0110846D03*
X0189350Y0113056D03*
X0187310Y0110846D03*
X0171840Y0114246D03*
X0155010Y0114246D03*
X0160620Y0109656D03*
X0165380Y0109656D03*
X0312770Y0109656D03*
D102*
X0273075Y0113396D03*
X0255055Y0109996D03*
X0247575Y0113396D03*
X0236865Y0111696D03*
X0222245Y0111696D03*
X0170735Y0109656D03*
X0170735Y0113906D03*
X0394213Y0115176D03*
X0394213Y0124866D03*
X0430763Y0127926D03*
X0430763Y0136766D03*
D103*
X0378403Y0107526D03*
X0367013Y0107526D03*
X0383333Y0104126D03*
X0387073Y0104126D03*
X0389113Y0104126D03*
X0398123Y0106676D03*
X0415803Y0104126D03*
X0423113Y0104126D03*
X0425323Y0104126D03*
X0429233Y0104126D03*
X0431103Y0104126D03*
X0432973Y0104126D03*
X0438583Y0104126D03*
X0438583Y0106166D03*
X0289565Y0114756D03*
X0289055Y0112546D03*
X0288545Y0110506D03*
X0230405Y0114756D03*
X0183655Y0116796D03*
X0183145Y0114756D03*
X0182805Y0113396D03*
X0182635Y0112546D03*
X0179745Y0113396D03*
X0180085Y0114756D03*
X0180595Y0116796D03*
X0171755Y0114756D03*
X0179065Y0110506D03*
X0178895Y0109656D03*
X0181955Y0109656D03*
D104*
X0220970Y0109656D03*
X0235590Y0109656D03*
X0407728Y0129966D03*
X0430848Y0137276D03*
X0439688Y0121126D03*
X0412998Y0117216D03*
D105*
X0441643Y0115176D03*
X0385543Y0126226D03*
X0403393Y0133876D03*
X0273075Y0109656D03*
X0247575Y0109656D03*
D106*
X0236780Y0114246D03*
X0222160Y0114246D03*
X0265850Y0109656D03*
X0367608Y0118066D03*
X0367608Y0118576D03*
X0367608Y0118916D03*
X0367608Y0119426D03*
X0367608Y0119766D03*
X0367608Y0120276D03*
X0367608Y0120616D03*
X0367608Y0121126D03*
X0367608Y0121466D03*
X0367608Y0121976D03*
X0367608Y0122316D03*
X0367608Y0122826D03*
X0367608Y0123166D03*
X0367608Y0123676D03*
X0367608Y0124016D03*
X0367608Y0124526D03*
X0367608Y0124866D03*
X0367608Y0125376D03*
X0367608Y0125716D03*
X0367608Y0126226D03*
X0367608Y0126566D03*
X0367608Y0127076D03*
X0367608Y0127416D03*
X0367608Y0127926D03*
X0367608Y0128266D03*
X0367608Y0128776D03*
X0367608Y0129116D03*
X0367608Y0129626D03*
X0367608Y0129966D03*
X0367608Y0130476D03*
X0367608Y0130816D03*
X0367608Y0131326D03*
X0367608Y0131666D03*
X0367608Y0132176D03*
X0367608Y0132516D03*
X0367608Y0133026D03*
X0367608Y0133366D03*
D107*
X0290075Y0116796D03*
X0289225Y0113396D03*
X0288375Y0109656D03*
X0182125Y0110506D03*
X0179575Y0112546D03*
X0421243Y0105826D03*
X0433143Y0105316D03*
D108*
X0440538Y0127926D03*
X0385288Y0126566D03*
X0306480Y0113906D03*
X0306480Y0109656D03*
X0265850Y0113906D03*
D109*
X0265765Y0114586D03*
X0284975Y0114076D03*
X0293475Y0116286D03*
X0293645Y0116626D03*
X0312685Y0110336D03*
X0312685Y0110166D03*
X0312685Y0109826D03*
X0378403Y0104636D03*
X0382313Y0107356D03*
X0437563Y0107356D03*
X0437563Y0105486D03*
X0437563Y0103956D03*
X0439263Y0121296D03*
X0425323Y0125036D03*
X0423283Y0123506D03*
X0438583Y0128946D03*
X0432973Y0135746D03*
X0414443Y0136086D03*
X0407983Y0129286D03*
X0235505Y0111526D03*
X0220885Y0111526D03*
X0211875Y0111016D03*
X0209835Y0112716D03*
X0207625Y0111016D03*
X0201675Y0111016D03*
X0199635Y0112716D03*
X0197425Y0111016D03*
X0191475Y0111016D03*
X0189435Y0112716D03*
X0187225Y0111016D03*
X0171755Y0114076D03*
X0165295Y0110336D03*
X0165295Y0110166D03*
X0165295Y0109826D03*
X0160535Y0109826D03*
X0160535Y0110166D03*
X0160535Y0110336D03*
D110*
X0155095Y0114416D03*
X0169205Y0110676D03*
X0171755Y0114416D03*
X0189435Y0113736D03*
X0191475Y0110166D03*
X0191475Y0109826D03*
X0201675Y0109826D03*
X0201675Y0110166D03*
X0199635Y0113736D03*
X0209835Y0113736D03*
X0211875Y0110166D03*
X0211875Y0109826D03*
X0220375Y0113226D03*
X0230405Y0114416D03*
X0234995Y0113226D03*
X0245875Y0113226D03*
X0249275Y0113226D03*
X0253015Y0113226D03*
X0264065Y0113226D03*
X0263895Y0110676D03*
X0271375Y0113226D03*
X0274775Y0113226D03*
X0282255Y0112886D03*
X0300445Y0112886D03*
X0398293Y0117386D03*
X0413083Y0115686D03*
X0422773Y0117046D03*
X0428213Y0117046D03*
X0438923Y0121636D03*
X0439093Y0123336D03*
X0428213Y0122656D03*
X0422433Y0122656D03*
X0408323Y0128096D03*
X0427703Y0129796D03*
X0433823Y0129796D03*
X0437903Y0129456D03*
X0444023Y0129796D03*
X0438073Y0135406D03*
X0433653Y0135236D03*
X0428043Y0135236D03*
X0414443Y0136936D03*
X0414443Y0137106D03*
X0402373Y0137106D03*
X0402373Y0136936D03*
X0444193Y0116706D03*
X0428213Y0107696D03*
X0428553Y0105656D03*
X0428213Y0103786D03*
X0432293Y0105656D03*
X0437223Y0103446D03*
X0415123Y0105656D03*
X0414783Y0103786D03*
X0414783Y0107696D03*
D111*
X0425493Y0115346D03*
X0425323Y0124696D03*
X0430763Y0127756D03*
X0441643Y0124696D03*
X0440793Y0136936D03*
X0393873Y0125036D03*
X0385373Y0126396D03*
X0306735Y0111866D03*
X0306565Y0112036D03*
X0273075Y0109826D03*
X0247575Y0109826D03*
D112*
X0237120Y0111866D03*
X0236780Y0114076D03*
X0222500Y0111866D03*
X0222160Y0114076D03*
X0265850Y0109826D03*
X0430848Y0136936D03*
D113*
X0384778Y0127076D03*
X0236610Y0109996D03*
X0221990Y0109996D03*
D114*
X0222075Y0113906D03*
X0247575Y0109996D03*
X0273075Y0109996D03*
X0440793Y0136766D03*
X0442833Y0119426D03*
D115*
X0265850Y0109996D03*
D116*
X0306480Y0109996D03*
X0425408Y0115516D03*
X0441558Y0124526D03*
D117*
X0441643Y0124356D03*
X0430763Y0128096D03*
X0425323Y0124356D03*
X0425493Y0115686D03*
X0394383Y0124696D03*
X0430763Y0136596D03*
X0440793Y0136596D03*
X0265765Y0110336D03*
X0254885Y0110676D03*
X0254885Y0113566D03*
X0229385Y0113226D03*
X0170905Y0110336D03*
X0170905Y0110166D03*
X0154075Y0113226D03*
D118*
X0169290Y0113226D03*
X0187310Y0110336D03*
X0187310Y0110166D03*
X0189350Y0113566D03*
X0197510Y0110336D03*
X0197510Y0110166D03*
X0199550Y0113566D03*
X0207710Y0110336D03*
X0207710Y0110166D03*
X0209750Y0113566D03*
X0253950Y0114416D03*
X0256500Y0113226D03*
X0285060Y0114416D03*
X0366928Y0105146D03*
X0388178Y0107696D03*
X0424218Y0107696D03*
X0428128Y0105996D03*
X0431868Y0105996D03*
X0441218Y0103956D03*
X0441218Y0103786D03*
X0441218Y0103446D03*
X0439178Y0116536D03*
X0427958Y0116706D03*
X0427958Y0122996D03*
X0428128Y0129286D03*
X0427958Y0129456D03*
X0433568Y0129456D03*
X0438158Y0129286D03*
X0428128Y0135406D03*
X0402458Y0136596D03*
X0398208Y0122486D03*
D119*
X0384778Y0124696D03*
X0394468Y0115346D03*
X0441218Y0120446D03*
X0236610Y0110166D03*
X0221990Y0110166D03*
D120*
X0211875Y0110336D03*
X0211875Y0110676D03*
X0201675Y0110676D03*
X0201675Y0110336D03*
X0191475Y0110336D03*
X0191475Y0110676D03*
X0238225Y0112376D03*
X0247575Y0114586D03*
X0273075Y0114586D03*
X0382143Y0107696D03*
X0388093Y0103786D03*
X0441643Y0114836D03*
X0422943Y0123336D03*
X0414443Y0136256D03*
X0414443Y0136596D03*
D121*
X0425323Y0124186D03*
X0441813Y0120106D03*
X0441983Y0119936D03*
X0221905Y0110336D03*
D122*
X0236525Y0110336D03*
X0425493Y0115856D03*
X0441643Y0115686D03*
X0441643Y0124186D03*
D123*
X0440963Y0120616D03*
X0441643Y0115516D03*
X0254885Y0113396D03*
X0254885Y0110506D03*
X0236695Y0113396D03*
X0229385Y0113396D03*
X0222075Y0113396D03*
X0170905Y0113396D03*
X0154075Y0113396D03*
D124*
X0168950Y0114246D03*
X0219950Y0110846D03*
X0238650Y0111356D03*
X0245450Y0111356D03*
X0245450Y0112206D03*
X0249700Y0112546D03*
X0249700Y0111356D03*
X0265850Y0114756D03*
X0275200Y0112546D03*
X0275200Y0111356D03*
X0270950Y0111356D03*
X0270950Y0112206D03*
X0302400Y0114246D03*
X0392768Y0127926D03*
X0394468Y0133366D03*
X0397868Y0132516D03*
X0412318Y0131666D03*
X0413168Y0134216D03*
X0415718Y0134216D03*
X0434418Y0133366D03*
X0434418Y0131326D03*
X0436968Y0131666D03*
X0436968Y0132176D03*
X0436968Y0132516D03*
X0411468Y0128776D03*
X0431018Y0123166D03*
X0431018Y0122826D03*
X0431018Y0122316D03*
X0431018Y0121976D03*
X0431018Y0121466D03*
X0431018Y0118916D03*
X0431018Y0118576D03*
X0431018Y0118066D03*
X0431018Y0117726D03*
X0431018Y0117216D03*
X0431018Y0116876D03*
X0438668Y0117216D03*
X0444618Y0117216D03*
X0438668Y0122316D03*
X0414868Y0120616D03*
X0411468Y0119426D03*
D125*
X0444448Y0127926D03*
X0444448Y0128266D03*
X0444108Y0134216D03*
X0407048Y0107016D03*
X0407048Y0106676D03*
X0399228Y0104976D03*
X0398038Y0105826D03*
X0312260Y0115946D03*
X0273160Y0114756D03*
X0247660Y0114756D03*
X0212980Y0111696D03*
X0212810Y0111356D03*
X0210940Y0111356D03*
X0210940Y0111696D03*
X0210770Y0112206D03*
X0208900Y0112206D03*
X0208730Y0111696D03*
X0208560Y0111356D03*
X0206690Y0111356D03*
X0206690Y0111696D03*
X0206520Y0112206D03*
X0206350Y0112546D03*
X0202780Y0111696D03*
X0202610Y0111356D03*
X0200740Y0111356D03*
X0200740Y0111696D03*
X0200570Y0112206D03*
X0198700Y0112206D03*
X0198530Y0111696D03*
X0198360Y0111356D03*
X0196490Y0111356D03*
X0196490Y0111696D03*
X0196320Y0112206D03*
X0196150Y0112546D03*
X0192580Y0111696D03*
X0192410Y0111356D03*
X0190540Y0111356D03*
X0190540Y0111696D03*
X0190370Y0112206D03*
X0188500Y0112206D03*
X0188330Y0111696D03*
X0188160Y0111356D03*
X0186290Y0111356D03*
X0186290Y0111696D03*
X0186120Y0112206D03*
X0185950Y0112546D03*
X0164870Y0115946D03*
X0160110Y0115946D03*
D126*
X0227770Y0113056D03*
X0235080Y0111356D03*
X0300530Y0113056D03*
X0395998Y0136766D03*
X0408238Y0128266D03*
X0427788Y0123166D03*
X0412998Y0116026D03*
X0420138Y0105316D03*
X0428298Y0105826D03*
X0432038Y0105826D03*
X0443938Y0129626D03*
D127*
X0402968Y0135066D03*
X0307500Y0111356D03*
D128*
X0306905Y0111696D03*
X0306395Y0112206D03*
D129*
X0237885Y0112206D03*
X0223265Y0112206D03*
X0396083Y0135576D03*
X0414443Y0135576D03*
X0440793Y0137276D03*
D130*
X0403053Y0134726D03*
X0396083Y0135066D03*
X0305885Y0112546D03*
X0301125Y0113396D03*
X0292795Y0113396D03*
X0292795Y0113906D03*
X0292795Y0114246D03*
D131*
X0293815Y0116796D03*
X0282255Y0113056D03*
X0367013Y0104976D03*
X0374833Y0103616D03*
X0378403Y0104976D03*
X0374833Y0107526D03*
X0374833Y0107866D03*
X0392173Y0107866D03*
X0392173Y0107526D03*
X0406963Y0104976D03*
X0414783Y0107526D03*
X0420223Y0107526D03*
X0428213Y0107526D03*
X0432123Y0107526D03*
X0444363Y0107526D03*
X0444363Y0107866D03*
X0444363Y0103616D03*
X0397783Y0116876D03*
X0397953Y0122826D03*
X0422773Y0123166D03*
X0428383Y0129116D03*
X0428383Y0135576D03*
D132*
X0313025Y0116796D03*
X0302825Y0113056D03*
X0165635Y0116796D03*
X0160875Y0116796D03*
D133*
X0185695Y0113566D03*
X0185695Y0113226D03*
X0193005Y0113226D03*
X0195895Y0113226D03*
X0195895Y0113566D03*
X0203205Y0113226D03*
X0206095Y0113226D03*
X0206095Y0113566D03*
X0213405Y0113226D03*
X0304695Y0113226D03*
X0394723Y0134046D03*
X0412573Y0132346D03*
X0412913Y0133536D03*
X0413423Y0134896D03*
X0415463Y0134896D03*
X0415973Y0133536D03*
X0425323Y0125206D03*
X0444363Y0130646D03*
X0444363Y0130986D03*
X0444023Y0134386D03*
D134*
X0282170Y0113566D03*
X0282170Y0113226D03*
D135*
X0307755Y0113226D03*
X0365483Y0103446D03*
X0365653Y0103956D03*
X0366163Y0105486D03*
X0366163Y0105656D03*
X0366333Y0105996D03*
X0366333Y0106336D03*
X0366503Y0106506D03*
X0367523Y0106506D03*
X0367523Y0106336D03*
X0367693Y0105996D03*
X0367693Y0105656D03*
X0367863Y0105486D03*
X0368203Y0104296D03*
X0368373Y0103786D03*
X0368373Y0103446D03*
X0372283Y0103446D03*
X0372283Y0103786D03*
X0372283Y0103956D03*
X0372283Y0104296D03*
X0372283Y0104636D03*
X0372283Y0104806D03*
X0372283Y0105146D03*
X0372283Y0106336D03*
X0372283Y0106506D03*
X0372283Y0106846D03*
X0372283Y0107186D03*
X0372283Y0107356D03*
X0372283Y0107696D03*
X0372283Y0108036D03*
X0373813Y0107186D03*
X0373813Y0106846D03*
X0373813Y0106506D03*
X0373813Y0106336D03*
X0373813Y0105146D03*
X0373813Y0104806D03*
X0373813Y0104636D03*
X0373813Y0104296D03*
X0376873Y0103446D03*
X0377043Y0103956D03*
X0377553Y0105486D03*
X0377553Y0105656D03*
X0377723Y0105996D03*
X0377893Y0106336D03*
X0377893Y0106506D03*
X0378913Y0106506D03*
X0378913Y0106336D03*
X0379083Y0105996D03*
X0379253Y0105656D03*
X0379253Y0105486D03*
X0379593Y0104296D03*
X0379763Y0103956D03*
X0379763Y0103786D03*
X0381123Y0104296D03*
X0381123Y0104636D03*
X0381123Y0104806D03*
X0381123Y0105146D03*
X0381123Y0105486D03*
X0381123Y0105656D03*
X0381123Y0105996D03*
X0381123Y0106336D03*
X0381123Y0106506D03*
X0381123Y0106846D03*
X0381123Y0107186D03*
X0383503Y0107186D03*
X0383673Y0106846D03*
X0383673Y0106506D03*
X0383673Y0106336D03*
X0383673Y0105996D03*
X0383673Y0105656D03*
X0383673Y0105486D03*
X0383673Y0105146D03*
X0383673Y0104806D03*
X0383673Y0104636D03*
X0383503Y0104296D03*
X0386733Y0104806D03*
X0386733Y0105146D03*
X0386733Y0105486D03*
X0386733Y0105656D03*
X0386733Y0105996D03*
X0386733Y0106336D03*
X0386733Y0106506D03*
X0389453Y0106506D03*
X0389453Y0106336D03*
X0389453Y0105996D03*
X0389453Y0105656D03*
X0389453Y0105486D03*
X0389453Y0105146D03*
X0389453Y0104806D03*
X0389453Y0104636D03*
X0389453Y0106846D03*
X0395743Y0107696D03*
X0395743Y0108036D03*
X0395913Y0107356D03*
X0395913Y0107186D03*
X0395913Y0106846D03*
X0396083Y0106506D03*
X0396083Y0106336D03*
X0396253Y0105996D03*
X0396253Y0105656D03*
X0396253Y0105486D03*
X0396423Y0105146D03*
X0396423Y0104806D03*
X0397443Y0105146D03*
X0397613Y0105486D03*
X0397613Y0105656D03*
X0398633Y0105486D03*
X0398633Y0105146D03*
X0399823Y0105486D03*
X0399823Y0105656D03*
X0399993Y0105996D03*
X0399993Y0106336D03*
X0400163Y0106506D03*
X0400163Y0106846D03*
X0400333Y0107186D03*
X0400333Y0107356D03*
X0400503Y0108036D03*
X0401693Y0108036D03*
X0401693Y0107696D03*
X0401693Y0107356D03*
X0401693Y0107186D03*
X0401693Y0106846D03*
X0401693Y0106506D03*
X0401693Y0106336D03*
X0401693Y0105146D03*
X0401693Y0104806D03*
X0401693Y0104636D03*
X0401693Y0104296D03*
X0401693Y0103956D03*
X0401693Y0103786D03*
X0401693Y0103446D03*
X0404243Y0103446D03*
X0404243Y0103786D03*
X0404243Y0103956D03*
X0404243Y0104296D03*
X0404243Y0104636D03*
X0404243Y0104806D03*
X0404243Y0105146D03*
X0404243Y0106336D03*
X0404243Y0106506D03*
X0404243Y0106846D03*
X0404243Y0107186D03*
X0404243Y0107356D03*
X0404243Y0107696D03*
X0404243Y0108036D03*
X0406453Y0106506D03*
X0406453Y0106336D03*
X0406283Y0105996D03*
X0406283Y0105656D03*
X0406113Y0105486D03*
X0405773Y0104296D03*
X0405603Y0103956D03*
X0405603Y0103786D03*
X0408323Y0103956D03*
X0408493Y0103446D03*
X0410193Y0103446D03*
X0410193Y0103786D03*
X0410193Y0103956D03*
X0410193Y0104296D03*
X0410193Y0104636D03*
X0410193Y0104806D03*
X0410193Y0105146D03*
X0410193Y0105486D03*
X0410193Y0105656D03*
X0410193Y0105996D03*
X0410193Y0106336D03*
X0410193Y0106506D03*
X0410193Y0106846D03*
X0410193Y0107186D03*
X0412403Y0107356D03*
X0412403Y0107696D03*
X0412403Y0108036D03*
X0413593Y0106846D03*
X0413593Y0104806D03*
X0413593Y0104636D03*
X0416143Y0104806D03*
X0415973Y0106846D03*
X0421413Y0106846D03*
X0421583Y0106506D03*
X0422773Y0106506D03*
X0422773Y0106336D03*
X0422773Y0105996D03*
X0422773Y0105656D03*
X0422773Y0105486D03*
X0422773Y0105146D03*
X0422943Y0104806D03*
X0422943Y0104636D03*
X0422943Y0106846D03*
X0425493Y0106846D03*
X0425493Y0106506D03*
X0425493Y0106336D03*
X0425663Y0105996D03*
X0425663Y0105656D03*
X0425663Y0105486D03*
X0425493Y0105146D03*
X0425493Y0104806D03*
X0425493Y0104636D03*
X0427023Y0104636D03*
X0427023Y0104806D03*
X0427023Y0106846D03*
X0429403Y0106846D03*
X0430763Y0106846D03*
X0430933Y0107186D03*
X0433143Y0107186D03*
X0434843Y0107186D03*
X0434843Y0107356D03*
X0434843Y0107696D03*
X0434843Y0108036D03*
X0434843Y0106846D03*
X0434843Y0106506D03*
X0434843Y0106336D03*
X0434843Y0105996D03*
X0434843Y0105656D03*
X0434843Y0105486D03*
X0434843Y0105146D03*
X0434843Y0104806D03*
X0434843Y0104636D03*
X0434843Y0104296D03*
X0434843Y0103956D03*
X0434843Y0103786D03*
X0434843Y0103446D03*
X0436373Y0104296D03*
X0436373Y0104636D03*
X0436373Y0104806D03*
X0436373Y0105146D03*
X0436373Y0106336D03*
X0436373Y0106506D03*
X0436373Y0106846D03*
X0436373Y0107186D03*
X0438753Y0106846D03*
X0438753Y0106506D03*
X0438753Y0106336D03*
X0440283Y0106336D03*
X0440283Y0106506D03*
X0440283Y0106846D03*
X0440283Y0107186D03*
X0440283Y0107356D03*
X0440283Y0107696D03*
X0440283Y0108036D03*
X0440283Y0105996D03*
X0440283Y0105656D03*
X0440283Y0105486D03*
X0440283Y0105146D03*
X0440283Y0104806D03*
X0440283Y0104636D03*
X0440283Y0104296D03*
X0438923Y0104636D03*
X0438923Y0104806D03*
X0443343Y0104806D03*
X0443343Y0104636D03*
X0443343Y0104296D03*
X0443343Y0105146D03*
X0443343Y0106336D03*
X0443343Y0106506D03*
X0443343Y0106846D03*
X0443343Y0107186D03*
X0448443Y0107356D03*
X0449123Y0106846D03*
X0449633Y0107186D03*
X0433313Y0105146D03*
X0433313Y0104806D03*
X0433313Y0104636D03*
X0430933Y0104296D03*
X0430763Y0104636D03*
X0430763Y0104806D03*
X0429573Y0104806D03*
X0407813Y0105486D03*
X0407813Y0105656D03*
X0407643Y0105996D03*
X0407643Y0106336D03*
X0398123Y0107186D03*
X0378403Y0108036D03*
X0367013Y0108036D03*
D136*
X0412998Y0117726D03*
X0412998Y0118066D03*
X0407558Y0130476D03*
X0312260Y0114246D03*
X0312260Y0113906D03*
X0312260Y0113396D03*
X0301210Y0113906D03*
X0164870Y0113906D03*
X0164870Y0114246D03*
X0164870Y0113396D03*
X0160110Y0113396D03*
X0160110Y0113906D03*
X0160110Y0114246D03*
D137*
X0282170Y0113396D03*
D138*
X0282085Y0113736D03*
X0383163Y0128946D03*
D139*
X0407813Y0129626D03*
X0430763Y0127416D03*
X0230405Y0113906D03*
D140*
X0236695Y0113906D03*
X0425323Y0124526D03*
D141*
X0282085Y0113906D03*
D142*
X0273075Y0114076D03*
X0247575Y0114076D03*
X0385543Y0125546D03*
D143*
X0425408Y0115176D03*
X0265850Y0114246D03*
D144*
X0306480Y0114246D03*
D145*
X0236780Y0114416D03*
X0407388Y0130986D03*
X0430848Y0127586D03*
D146*
X0433398Y0129286D03*
X0433398Y0135406D03*
X0408238Y0128436D03*
X0398038Y0122656D03*
X0398038Y0117046D03*
X0412998Y0115856D03*
X0420138Y0107696D03*
X0414698Y0105996D03*
X0407048Y0105146D03*
X0432038Y0103786D03*
X0432038Y0107696D03*
X0422688Y0122996D03*
X0395998Y0136596D03*
X0395998Y0136936D03*
X0281320Y0114416D03*
D147*
X0236780Y0114586D03*
X0222160Y0114586D03*
X0395998Y0135236D03*
X0395998Y0135406D03*
X0443428Y0128946D03*
X0412998Y0117556D03*
X0412998Y0117386D03*
D148*
X0407048Y0107526D03*
X0399228Y0104466D03*
X0399228Y0104126D03*
X0396848Y0104126D03*
X0285060Y0114756D03*
X0281320Y0114756D03*
X0253950Y0114756D03*
X0155180Y0114756D03*
D149*
X0160280Y0116116D03*
X0165040Y0116116D03*
X0312430Y0116116D03*
X0366928Y0107356D03*
X0378488Y0107356D03*
X0387158Y0107356D03*
X0389028Y0107356D03*
X0396848Y0104296D03*
X0398038Y0106336D03*
X0399228Y0104296D03*
X0407048Y0107186D03*
X0407048Y0107356D03*
X0414868Y0108036D03*
X0415718Y0107356D03*
X0423198Y0107356D03*
X0424218Y0108036D03*
X0428298Y0108036D03*
X0429148Y0107356D03*
X0431188Y0107356D03*
X0432038Y0108036D03*
D150*
X0430763Y0107016D03*
X0430763Y0106676D03*
X0429403Y0107016D03*
X0427023Y0107016D03*
X0427023Y0106676D03*
X0425663Y0106166D03*
X0425663Y0105826D03*
X0425663Y0105316D03*
X0425493Y0104976D03*
X0425493Y0104466D03*
X0427023Y0104466D03*
X0429403Y0104466D03*
X0433313Y0104976D03*
X0434843Y0104976D03*
X0434843Y0105316D03*
X0434843Y0105826D03*
X0434843Y0106166D03*
X0434843Y0106676D03*
X0434843Y0107016D03*
X0434843Y0107526D03*
X0434843Y0107866D03*
X0436373Y0107016D03*
X0436373Y0106676D03*
X0436373Y0106166D03*
X0436373Y0105316D03*
X0436373Y0104976D03*
X0436373Y0104466D03*
X0436373Y0104126D03*
X0434843Y0104126D03*
X0434843Y0104466D03*
X0434843Y0103616D03*
X0438923Y0104976D03*
X0440283Y0104976D03*
X0440283Y0105316D03*
X0440283Y0105826D03*
X0440283Y0106166D03*
X0440283Y0106676D03*
X0440283Y0107016D03*
X0440283Y0107526D03*
X0440283Y0107866D03*
X0438753Y0107016D03*
X0438753Y0106676D03*
X0440283Y0104466D03*
X0440283Y0104126D03*
X0443343Y0104126D03*
X0443343Y0104466D03*
X0443343Y0104976D03*
X0443343Y0105316D03*
X0443343Y0106166D03*
X0443343Y0106676D03*
X0443343Y0107016D03*
X0448443Y0107526D03*
X0449123Y0106676D03*
X0449633Y0107016D03*
X0425493Y0107016D03*
X0425493Y0106676D03*
X0422943Y0106676D03*
X0422943Y0107016D03*
X0422773Y0106166D03*
X0422773Y0105826D03*
X0422773Y0105316D03*
X0422773Y0104976D03*
X0422943Y0104466D03*
X0421413Y0106166D03*
X0421413Y0107016D03*
X0415973Y0107016D03*
X0416143Y0104976D03*
X0415973Y0104466D03*
X0413593Y0104466D03*
X0413593Y0106676D03*
X0413593Y0107016D03*
X0412403Y0107526D03*
X0412403Y0107866D03*
X0410193Y0107016D03*
X0410193Y0106676D03*
X0410193Y0106166D03*
X0410193Y0105826D03*
X0410193Y0105316D03*
X0410193Y0104976D03*
X0410193Y0104466D03*
X0410193Y0104126D03*
X0410193Y0103616D03*
X0408493Y0103616D03*
X0408323Y0104126D03*
X0408153Y0104466D03*
X0407983Y0105316D03*
X0407813Y0105826D03*
X0407643Y0106166D03*
X0406453Y0106166D03*
X0406283Y0105826D03*
X0406113Y0105316D03*
X0405773Y0104126D03*
X0404243Y0104126D03*
X0404243Y0104466D03*
X0404243Y0104976D03*
X0404243Y0105316D03*
X0404243Y0106166D03*
X0404243Y0106676D03*
X0404243Y0107016D03*
X0404243Y0107526D03*
X0404243Y0107866D03*
X0401693Y0107866D03*
X0401693Y0107526D03*
X0401693Y0107016D03*
X0401693Y0106676D03*
X0401693Y0106166D03*
X0401693Y0105316D03*
X0401693Y0104976D03*
X0401693Y0104466D03*
X0401693Y0104126D03*
X0401693Y0103616D03*
X0399823Y0105316D03*
X0399993Y0106166D03*
X0400163Y0106676D03*
X0400163Y0107016D03*
X0400333Y0107526D03*
X0400503Y0107866D03*
X0398123Y0107016D03*
X0398633Y0105316D03*
X0397443Y0105316D03*
X0397443Y0104976D03*
X0396423Y0104976D03*
X0396253Y0105826D03*
X0396083Y0106166D03*
X0396083Y0106676D03*
X0395913Y0107016D03*
X0395743Y0107526D03*
X0395743Y0107866D03*
X0389453Y0107016D03*
X0389453Y0106676D03*
X0389453Y0106166D03*
X0389453Y0105826D03*
X0389453Y0105316D03*
X0389453Y0104976D03*
X0389453Y0104466D03*
X0386903Y0104466D03*
X0386733Y0104976D03*
X0386733Y0105316D03*
X0386733Y0105826D03*
X0386733Y0106166D03*
X0386733Y0106676D03*
X0386903Y0107016D03*
X0383673Y0106676D03*
X0383503Y0107016D03*
X0383673Y0106166D03*
X0383673Y0105826D03*
X0383673Y0105316D03*
X0383673Y0104976D03*
X0383503Y0104466D03*
X0381123Y0104466D03*
X0381123Y0104126D03*
X0381123Y0104976D03*
X0381123Y0105316D03*
X0381123Y0105826D03*
X0381123Y0106166D03*
X0381123Y0106676D03*
X0381123Y0107016D03*
X0379083Y0106166D03*
X0379083Y0105826D03*
X0379253Y0105316D03*
X0379593Y0104466D03*
X0377723Y0105826D03*
X0377723Y0106166D03*
X0377893Y0106676D03*
X0378913Y0106676D03*
X0377213Y0104466D03*
X0377043Y0104126D03*
X0376873Y0103616D03*
X0373813Y0104126D03*
X0373813Y0104466D03*
X0373813Y0104976D03*
X0373813Y0105316D03*
X0373813Y0106166D03*
X0373813Y0106676D03*
X0373813Y0107016D03*
X0372283Y0107016D03*
X0372283Y0106676D03*
X0372283Y0106166D03*
X0372283Y0105316D03*
X0372283Y0104976D03*
X0372283Y0104466D03*
X0372283Y0104126D03*
X0372283Y0103616D03*
X0368373Y0103616D03*
X0368203Y0104126D03*
X0367863Y0105316D03*
X0367693Y0105826D03*
X0367523Y0106676D03*
X0366503Y0106676D03*
X0366333Y0106166D03*
X0366163Y0105826D03*
X0365993Y0105316D03*
X0365823Y0104466D03*
X0365653Y0104126D03*
X0365483Y0103616D03*
X0372283Y0107526D03*
X0372283Y0107866D03*
X0404243Y0103616D03*
X0312685Y0116456D03*
X0165295Y0116456D03*
X0160535Y0116456D03*
D151*
X0160705Y0116626D03*
X0165465Y0116626D03*
X0312855Y0116626D03*
X0412573Y0107186D03*
X0448273Y0106846D03*
X0448273Y0106506D03*
X0448273Y0106336D03*
X0448273Y0105996D03*
X0449123Y0106336D03*
X0449803Y0107696D03*
D152*
X0439670Y0148779D02*
X0439670Y0149205D01*
X0439670Y0149631D02*
X0440521Y0150482D01*
X0440521Y0150908D01*
X0440095Y0151334D01*
X0439244Y0151334D01*
X0438818Y0150908D01*
X0437802Y0150908D02*
X0437802Y0151334D01*
X0437802Y0150908D02*
X0436951Y0150056D01*
X0436951Y0148779D01*
X0436951Y0150056D02*
X0436099Y0150908D01*
X0436099Y0151334D01*
X0435083Y0150908D02*
X0434658Y0151334D01*
X0433380Y0151334D01*
X0433380Y0148779D01*
X0434658Y0148779D01*
X0435083Y0149205D01*
X0435083Y0150908D01*
X0432365Y0150482D02*
X0432365Y0148779D01*
X0432365Y0150056D02*
X0430661Y0150056D01*
X0430661Y0150482D02*
X0430661Y0148779D01*
X0429646Y0148779D02*
X0427942Y0148779D01*
X0427942Y0151334D01*
X0429646Y0151334D01*
X0430661Y0150482D02*
X0431513Y0151334D01*
X0432365Y0150482D01*
X0428794Y0150056D02*
X0427942Y0150056D01*
X0426927Y0150056D02*
X0426501Y0149631D01*
X0425224Y0149631D01*
X0426075Y0149631D02*
X0426927Y0148779D01*
X0426927Y0150056D02*
X0426927Y0150908D01*
X0426501Y0151334D01*
X0425224Y0151334D01*
X0425224Y0148779D01*
X0399023Y0148779D02*
X0398171Y0149631D01*
X0398597Y0149631D02*
X0397319Y0149631D01*
X0397319Y0148779D02*
X0397319Y0151334D01*
X0398597Y0151334D01*
X0399023Y0150908D01*
X0399023Y0150056D01*
X0398597Y0149631D01*
X0396304Y0148779D02*
X0394601Y0148779D01*
X0394601Y0151334D01*
X0396304Y0151334D01*
X0395452Y0150056D02*
X0394601Y0150056D01*
X0393585Y0148779D02*
X0393585Y0151334D01*
X0391882Y0151334D02*
X0391882Y0148779D01*
X0392733Y0149631D01*
X0393585Y0148779D01*
X0390866Y0149205D02*
X0390866Y0150908D01*
X0390440Y0151334D01*
X0389589Y0151334D01*
X0389163Y0150908D01*
X0389163Y0149205D01*
X0389589Y0148779D01*
X0390440Y0148779D01*
X0390866Y0149205D01*
X0388147Y0150056D02*
X0387722Y0149631D01*
X0386444Y0149631D01*
X0386444Y0148779D02*
X0386444Y0151334D01*
X0387722Y0151334D01*
X0388147Y0150908D01*
X0388147Y0150056D01*
D153*
X0369648Y0108036D03*
X0369648Y0107696D03*
X0369648Y0107356D03*
X0369648Y0107186D03*
X0369648Y0106846D03*
X0369648Y0106506D03*
X0369648Y0106336D03*
X0369648Y0105146D03*
X0369648Y0104806D03*
X0369648Y0104636D03*
X0369648Y0104296D03*
X0369648Y0103956D03*
X0369648Y0103786D03*
X0369648Y0103446D03*
X0391068Y0103446D03*
X0391068Y0103786D03*
X0391068Y0103956D03*
X0391068Y0104296D03*
X0391068Y0104636D03*
X0391068Y0104806D03*
X0391068Y0105146D03*
X0391068Y0106336D03*
X0391068Y0106506D03*
X0391068Y0106846D03*
X0391068Y0107186D03*
X0397358Y0104806D03*
X0398548Y0105656D03*
X0399738Y0105146D03*
X0412318Y0106846D03*
X0419118Y0106846D03*
X0419118Y0106506D03*
X0419118Y0106336D03*
X0419118Y0105996D03*
X0419118Y0104806D03*
X0419118Y0104636D03*
X0419118Y0104296D03*
X0419118Y0103956D03*
X0419118Y0103786D03*
X0419118Y0103446D03*
X0419118Y0107186D03*
X0433228Y0106846D03*
X0449208Y0106506D03*
X0449718Y0107356D03*
D154*
X0449718Y0107526D03*
X0433228Y0107016D03*
X0419118Y0107016D03*
X0419118Y0106676D03*
X0419118Y0106166D03*
X0419118Y0105826D03*
X0419118Y0104976D03*
X0419118Y0104466D03*
X0419118Y0104126D03*
X0419118Y0103616D03*
X0412318Y0106676D03*
X0399908Y0105826D03*
X0396338Y0105316D03*
X0391068Y0105316D03*
X0391068Y0104976D03*
X0391068Y0104466D03*
X0391068Y0104126D03*
X0391068Y0103616D03*
X0391068Y0106166D03*
X0391068Y0106676D03*
X0391068Y0107016D03*
X0369648Y0107016D03*
X0369648Y0106676D03*
X0369648Y0106166D03*
X0369648Y0105316D03*
X0369648Y0104976D03*
X0369648Y0104466D03*
X0369648Y0104126D03*
X0369648Y0103616D03*
X0369648Y0107526D03*
X0369648Y0107866D03*
D155*
X0367013Y0107016D03*
X0378403Y0107016D03*
X0396933Y0104466D03*
X0398123Y0106166D03*
D156*
X0447168Y0106166D03*
X0447168Y0105826D03*
X0447168Y0106676D03*
X0447168Y0107016D03*
X0447168Y0107526D03*
D157*
X0448273Y0106676D03*
X0448273Y0106166D03*
X0448273Y0105826D03*
X0449803Y0107866D03*
X0412573Y0107016D03*
D158*
X0449888Y0106676D03*
X0449888Y0106166D03*
X0449888Y0105826D03*
D159*
X0447168Y0105996D03*
X0447168Y0106336D03*
X0447168Y0106506D03*
X0447168Y0106846D03*
X0447168Y0107186D03*
X0447168Y0107356D03*
D160*
X0449888Y0106846D03*
X0449888Y0106506D03*
X0449888Y0106336D03*
X0449888Y0105996D03*
X0449888Y0108036D03*
D161*
X0412233Y0106506D03*
D162*
X0376533Y0114836D03*
X0376533Y0115006D03*
X0376533Y0115346D03*
X0376533Y0115686D03*
X0376533Y0115856D03*
X0376533Y0116196D03*
X0376533Y0116536D03*
X0376533Y0116706D03*
X0376533Y0117046D03*
X0376533Y0117386D03*
X0376533Y0117556D03*
X0376533Y0133706D03*
X0376533Y0134046D03*
X0376533Y0134386D03*
X0376533Y0134556D03*
X0376533Y0134896D03*
X0376533Y0135236D03*
X0376533Y0135406D03*
X0376533Y0135746D03*
X0376533Y0136086D03*
X0376533Y0136256D03*
X0376533Y0136596D03*
X0376533Y0136936D03*
X0376533Y0137106D03*
D163*
X0396083Y0129796D03*
X0414613Y0129796D03*
X0395233Y0123336D03*
X0395233Y0116536D03*
X0404413Y0116536D03*
X0404413Y0116706D03*
X0404413Y0116196D03*
X0404413Y0115856D03*
X0404413Y0115686D03*
X0404413Y0115346D03*
X0404413Y0115006D03*
D164*
X0404328Y0123336D03*
X0404328Y0123506D03*
X0404328Y0123846D03*
X0404328Y0124186D03*
X0404328Y0124356D03*
X0404328Y0124696D03*
X0404328Y0125036D03*
X0395148Y0123506D03*
X0384098Y0123846D03*
X0396168Y0130136D03*
X0414528Y0130136D03*
X0433738Y0116706D03*
X0433738Y0116536D03*
X0433738Y0116196D03*
X0433738Y0115856D03*
X0433738Y0115686D03*
X0433738Y0115346D03*
X0433738Y0115006D03*
D165*
X0376533Y0115176D03*
X0376533Y0115516D03*
X0376533Y0116026D03*
X0376533Y0116366D03*
X0376533Y0116876D03*
X0376533Y0117216D03*
X0376533Y0117726D03*
X0376533Y0133876D03*
X0376533Y0134216D03*
X0376533Y0134726D03*
X0376533Y0135066D03*
X0376533Y0135576D03*
X0376533Y0135916D03*
X0376533Y0136426D03*
X0376533Y0136766D03*
X0376533Y0137276D03*
D166*
X0384013Y0127926D03*
X0404413Y0116366D03*
X0404413Y0116026D03*
X0404413Y0115516D03*
X0404413Y0115176D03*
D167*
X0395148Y0116366D03*
X0404328Y0123676D03*
X0404328Y0124016D03*
X0404328Y0124526D03*
X0404328Y0124866D03*
X0396168Y0129966D03*
X0414528Y0129966D03*
X0433738Y0116366D03*
X0433738Y0116026D03*
X0433738Y0115516D03*
X0433738Y0115176D03*
D168*
X0441558Y0124016D03*
X0394638Y0115516D03*
X0430848Y0136426D03*
D169*
X0430848Y0136256D03*
X0414528Y0130986D03*
X0396168Y0130986D03*
X0394808Y0124186D03*
X0394808Y0115686D03*
X0441558Y0123846D03*
D170*
X0425493Y0116196D03*
X0394893Y0115856D03*
X0384353Y0124186D03*
X0384353Y0127586D03*
X0440793Y0136086D03*
D171*
X0440793Y0136256D03*
X0430763Y0128436D03*
X0422943Y0128436D03*
X0422943Y0128606D03*
X0422943Y0128946D03*
X0422943Y0128096D03*
X0422943Y0127756D03*
X0422943Y0127586D03*
X0433313Y0120956D03*
X0433313Y0120786D03*
X0433313Y0120446D03*
X0433313Y0120106D03*
X0433313Y0119936D03*
X0433313Y0119596D03*
X0441643Y0115856D03*
X0394723Y0124356D03*
X0384523Y0124356D03*
D172*
X0394978Y0116026D03*
X0425238Y0123676D03*
X0441558Y0123676D03*
X0414528Y0130476D03*
D173*
X0422943Y0129116D03*
X0422943Y0128776D03*
X0422943Y0128266D03*
X0422943Y0127926D03*
X0422943Y0127416D03*
X0425323Y0124016D03*
X0433313Y0121126D03*
X0433313Y0120616D03*
X0433313Y0120276D03*
X0433313Y0119766D03*
X0433313Y0119426D03*
X0425493Y0116026D03*
X0384523Y0127416D03*
D174*
X0394893Y0124016D03*
X0396083Y0130816D03*
X0425493Y0116366D03*
X0441643Y0116026D03*
D175*
X0433653Y0123336D03*
X0433653Y0123506D03*
X0433653Y0123846D03*
X0433653Y0124186D03*
X0433653Y0124356D03*
X0433653Y0124696D03*
X0433653Y0125036D03*
X0414613Y0130306D03*
X0396083Y0130306D03*
X0384183Y0127756D03*
X0395063Y0116196D03*
D176*
X0394978Y0123846D03*
X0414528Y0130646D03*
X0441728Y0116196D03*
D177*
X0378998Y0117896D03*
D178*
X0379168Y0118066D03*
X0379168Y0133366D03*
D179*
X0379338Y0133196D03*
X0379338Y0118236D03*
D180*
X0379423Y0118406D03*
D181*
X0379593Y0118576D03*
D182*
X0379763Y0118746D03*
D183*
X0379848Y0118916D03*
D184*
X0380018Y0119086D03*
D185*
X0380188Y0119256D03*
D186*
X0380358Y0119426D03*
D187*
X0404073Y0119426D03*
X0404073Y0119766D03*
X0404073Y0120276D03*
X0404073Y0120616D03*
X0404073Y0121126D03*
X0414613Y0130816D03*
D188*
X0380443Y0132006D03*
X0380443Y0119596D03*
D189*
X0404073Y0119596D03*
X0404073Y0119936D03*
X0404073Y0120106D03*
X0404073Y0120446D03*
X0404073Y0120786D03*
X0404073Y0120956D03*
X0404073Y0121296D03*
X0425323Y0123846D03*
X0430763Y0128606D03*
X0430763Y0136086D03*
D190*
X0380613Y0119766D03*
D191*
X0442238Y0119766D03*
D192*
X0380783Y0119936D03*
D193*
X0380868Y0120106D03*
X0380868Y0131496D03*
D194*
X0381038Y0131326D03*
X0381038Y0120276D03*
D195*
X0394553Y0124526D03*
X0430763Y0128266D03*
X0441473Y0120276D03*
D196*
X0381208Y0120446D03*
X0381208Y0131156D03*
D197*
X0381293Y0120616D03*
D198*
X0381463Y0120786D03*
D199*
X0440623Y0120786D03*
D200*
X0381633Y0120956D03*
X0381633Y0130646D03*
D201*
X0381803Y0130476D03*
X0381803Y0121126D03*
D202*
X0381888Y0121296D03*
X0381888Y0130306D03*
D203*
X0382058Y0121466D03*
D204*
X0382228Y0121636D03*
D205*
X0382313Y0121806D03*
D206*
X0382483Y0121976D03*
D207*
X0382653Y0122146D03*
X0382653Y0129456D03*
D208*
X0382738Y0122316D03*
D209*
X0382908Y0122486D03*
D210*
X0383078Y0122656D03*
D211*
X0383248Y0122826D03*
X0383248Y0128776D03*
D212*
X0383333Y0122996D03*
D213*
X0383503Y0123166D03*
D214*
X0383673Y0123336D03*
D215*
X0383758Y0123506D03*
D216*
X0383928Y0123676D03*
X0396168Y0129626D03*
X0414528Y0129626D03*
D217*
X0430763Y0128776D03*
X0433653Y0124866D03*
X0433653Y0124526D03*
X0433653Y0124016D03*
X0433653Y0123676D03*
X0395063Y0123676D03*
X0384183Y0124016D03*
X0430763Y0135916D03*
X0440793Y0135916D03*
D218*
X0440793Y0136426D03*
X0384693Y0124526D03*
D219*
X0384608Y0127246D03*
D220*
X0383928Y0128096D03*
D221*
X0440538Y0128096D03*
D222*
X0441218Y0128776D03*
X0383758Y0128266D03*
D223*
X0383588Y0128436D03*
D224*
X0441388Y0128436D03*
D225*
X0383418Y0128606D03*
D226*
X0441303Y0128606D03*
D227*
X0428723Y0128946D03*
X0407813Y0129796D03*
D228*
X0382993Y0129116D03*
D229*
X0382823Y0129286D03*
D230*
X0382568Y0129626D03*
D231*
X0382398Y0129796D03*
D232*
X0382228Y0129966D03*
D233*
X0382058Y0130136D03*
D234*
X0396168Y0130476D03*
D235*
X0396168Y0130646D03*
D236*
X0381463Y0130816D03*
D237*
X0381293Y0130986D03*
D238*
X0380698Y0131666D03*
D239*
X0380528Y0131836D03*
D240*
X0380273Y0132176D03*
D241*
X0380103Y0132346D03*
D242*
X0379933Y0132516D03*
D243*
X0379848Y0132686D03*
D244*
X0379678Y0132856D03*
D245*
X0379508Y0133026D03*
D246*
X0379083Y0133536D03*
D247*
X0402968Y0135236D03*
D248*
X0378173Y0154485D02*
X0375024Y0157634D01*
X0375024Y0201729D01*
X0438016Y0201729D01*
X0438016Y0154485D01*
X0378173Y0154485D01*
D249*
X0393175Y0145266D03*
X0433295Y0145266D03*
M02*
