G75*
%MOIN*%
%OFA0B0*%
%FSLAX25Y25*%
%IPPOS*%
%LPD*%
%AMOC8*
5,1,8,0,0,1.08239X$1,22.5*
%
%ADD10C,0.14580*%
%ADD11C,0.03753*%
%ADD12R,0.04737X0.05131*%
%ADD13R,0.03950X0.03950*%
D10*
X0132898Y0106453D03*
X0327780Y0106453D03*
D11*
X0384020Y0160607D03*
X0384020Y0165607D03*
X0394020Y0165607D03*
X0404020Y0165607D03*
X0414020Y0165607D03*
X0414020Y0170607D03*
X0419020Y0170607D03*
X0424020Y0170607D03*
X0429020Y0170607D03*
X0424020Y0175607D03*
X0424020Y0180607D03*
X0424020Y0185607D03*
X0429020Y0185607D03*
X0419020Y0185607D03*
X0414020Y0185607D03*
X0409020Y0185607D03*
X0404020Y0185607D03*
X0399020Y0185607D03*
X0394020Y0185607D03*
X0389020Y0185607D03*
X0384020Y0185607D03*
X0384020Y0190607D03*
X0394020Y0190607D03*
X0404020Y0190607D03*
X0414020Y0190607D03*
X0419020Y0195607D03*
X0429020Y0195607D03*
X0424020Y0190607D03*
X0409020Y0195607D03*
X0384020Y0195607D03*
X0384020Y0180607D03*
X0389020Y0180607D03*
X0389020Y0175607D03*
X0384020Y0175607D03*
X0384020Y0170607D03*
X0389020Y0170607D03*
X0394020Y0170607D03*
X0399020Y0170607D03*
X0404020Y0170607D03*
X0409020Y0170607D03*
X0424020Y0165607D03*
X0429020Y0160607D03*
X0419020Y0160607D03*
X0409020Y0160607D03*
D12*
X0417557Y0145266D03*
X0424250Y0145266D03*
X0384130Y0145266D03*
X0377437Y0145266D03*
D13*
X0389730Y0145266D03*
X0395636Y0145266D03*
X0429850Y0145266D03*
X0435756Y0145266D03*
M02*
